<svg version="1.1" id="Layer_1" xmlns="http://www.w3.org/2000/svg" xmlns:xlink="http://www.w3.org/1999/xlink" x="0px" y="0px"
	 width="100%" viewBox="0 0 300 300" enable-background="new 0 0 300 300" xml:space="preserve">
<path fill="#FFFFFF" opacity="1.000000" stroke="none" 
	d="
M1.000000,106.000000 
	C1.000000,70.666664 1.000000,35.833332 1.000000,1.000000 
	C101.000000,1.000000 201.000000,1.000000 301.000000,1.000000 
	C301.000000,101.000000 301.000000,201.000000 301.000000,301.000000 
	C201.000000,301.000000 101.000000,301.000000 1.000000,301.000000 
	C1.000000,236.166672 1.000000,171.333328 1.000000,106.000000 
M143.242416,279.716003 
	C142.536804,274.956238 137.685867,278.498535 135.960770,275.163666 
	C133.489014,274.639130 131.017273,274.114624 128.287781,273.535431 
	C128.287781,278.883514 128.287781,283.392822 128.287781,288.040344 
	C133.185257,287.804169 129.666367,283.649933 131.744339,282.052429 
	C132.591629,282.052429 133.739197,282.052429 134.983124,282.830627 
	C134.857224,290.007446 140.219467,287.158630 143.856354,287.951630 
	C143.856354,285.018646 143.856354,282.400574 144.648453,280.174652 
	C145.452377,287.313385 145.452377,287.313385 150.151749,287.700806 
	C148.807693,284.573883 146.159286,281.423584 149.941437,278.462494 
	C150.000992,278.415863 149.494522,277.390259 149.072052,277.036987 
	C148.180176,276.291199 147.168793,275.688354 146.206436,275.026886 
	C145.460739,276.654602 144.715027,278.282318 143.242416,279.716003 
M113.684708,278.175568 
	C110.200157,278.949310 109.950867,275.977142 109.296913,273.228333 
	C123.990883,273.228333 138.684845,273.228333 153.378815,273.228333 
	C153.389542,273.398376 153.400269,273.568420 153.410995,273.738495 
	C152.278366,273.963013 151.145737,274.187561 149.969696,274.420715 
	C150.460922,275.874573 150.817398,276.929596 151.018158,278.880798 
	C151.018158,281.783875 151.018158,284.686981 151.018158,288.224426 
	C152.231369,287.790527 153.133728,287.467804 154.498596,287.026550 
	C154.498596,287.026550 154.965912,287.124329 155.326340,287.805664 
	C156.196365,287.299133 157.833984,286.763489 157.816010,286.290680 
	C157.660065,282.185150 157.206940,278.090912 157.297119,273.227722 
	C168.484589,273.227722 179.672073,273.227722 190.945953,273.227722 
	C190.945953,274.913666 190.945953,276.395630 190.179092,277.683289 
	C189.454865,277.963684 188.117493,278.212891 188.101410,278.529297 
	C187.943802,281.628815 188.006409,284.739502 188.006409,287.847046 
	C188.526749,288.004700 189.047089,288.162384 189.567429,288.320068 
	C190.058243,287.253815 190.549072,286.187592 191.499893,285.022888 
	C191.499893,285.022888 191.961472,285.113708 191.987518,285.889313 
	C192.579681,286.583191 193.074203,287.446198 193.818817,287.875977 
	C194.067810,288.019684 195.506927,286.999908 195.466644,286.608185 
	C195.033066,282.392395 194.412308,278.195892 194.296906,273.228027 
	C222.947052,273.152527 251.597183,273.070770 280.247345,273.005035 
	C289.894653,272.982880 291.997620,270.891327 291.999176,261.134003 
	C292.005005,224.977997 292.001526,188.821976 292.001526,152.665970 
	C292.001526,135.504364 291.992950,118.342743 292.005951,101.181137 
	C292.010803,94.786201 289.352356,89.779678 281.044403,89.829964 
	C226.895660,90.157745 172.744003,89.998413 118.593300,89.998413 
	C116.811676,89.998413 115.030052,89.998413 112.676445,89.998413 
	C118.076225,77.002686 123.225761,64.554062 128.420395,52.124279 
	C132.759750,41.741001 137.359695,31.460630 141.438477,20.976826 
	C143.689651,15.190578 140.396027,11.008067 134.284393,10.998778 
	C132.637421,10.996275 130.990433,10.998399 129.755020,10.998399 
	C121.469284,33.551311 113.333435,55.696259 104.799355,78.925140 
	C98.665108,62.012039 92.935661,46.387970 87.341934,30.715460 
	C84.749451,23.451832 82.811729,15.925150 79.762985,8.869534 
	C78.685234,6.375349 75.446648,3.974632 72.731201,3.236874 
	C69.181252,2.272392 65.171410,3.000597 60.167912,3.000597 
	C70.991310,32.836407 84.260475,60.910122 96.477402,89.998413 
	C71.011414,89.998413 46.365269,89.998390 21.719124,89.998421 
	C12.681345,89.998436 10.001387,92.712143 10.000336,101.916161 
	C9.995809,141.571136 9.998399,181.226105 9.998402,220.881088 
	C9.998404,234.710342 9.950491,248.539841 10.016653,262.368774 
	C10.055521,270.492798 12.610145,273.000916 20.488327,273.001190 
	C47.147137,273.002045 73.805946,273.001526 100.464752,273.001526 
	C102.231880,273.001526 103.999016,273.001526 105.999397,273.001526 
	C105.999397,277.219147 105.872574,280.870392 106.089218,284.501129 
	C106.142876,285.400421 107.310379,286.233215 108.315392,287.797791 
	C113.656174,288.999908 115.390892,286.177826 115.130501,280.668579 
	C116.218178,283.143372 116.977936,284.872040 117.675758,286.459808 
	C116.654175,287.619995 115.600464,288.816650 114.236725,290.365417 
	C120.102463,291.170502 122.307678,287.893616 123.800232,277.500214 
	C123.409767,277.204803 123.019310,276.909424 122.628845,276.614014 
	C121.454384,278.511383 120.279922,280.408752 119.235512,282.096039 
	C118.735321,280.606262 118.135201,278.818848 117.314957,276.375793 
	C115.987495,277.377808 115.011909,278.114197 113.684708,278.175568 
M217.001358,58.617683 
	C217.001389,57.284424 217.092789,55.943691 216.984497,54.619289 
	C216.643311,50.446709 219.352142,49.157665 222.670181,49.079651 
	C226.224258,48.996094 225.956848,51.974770 225.977203,54.353962 
	C226.037109,61.352943 225.998032,68.352768 225.998825,75.352257 
	C225.999771,83.543869 227.122437,84.514427 235.995117,83.607773 
	C235.995117,72.357674 236.522430,61.027325 235.792801,49.778503 
	C235.370728,43.271107 231.770859,38.126350 223.486374,38.999462 
	C218.157379,39.561089 212.828949,40.128128 207.005188,40.745201 
	C207.005188,53.605110 206.883194,66.895645 207.197235,80.175873 
	C207.228012,81.478142 209.758606,83.154045 211.459198,83.854706 
	C212.970108,84.477219 214.940155,83.985336 217.001358,83.985336 
	C217.001358,75.532539 217.001358,67.558640 217.001358,58.617683 
M177.035080,41.922222 
	C176.953278,49.002281 176.953278,49.002308 183.956528,49.003281 
	C185.288071,49.003468 186.636642,49.140800 187.948044,48.978306 
	C192.294785,48.439713 193.814331,50.709091 193.925705,54.787285 
	C192.982208,54.863937 192.164749,55.022865 191.357346,54.982155 
	C177.940384,54.305588 172.724716,62.738235 175.792252,75.712234 
	C177.853638,84.430702 184.317993,85.202293 191.388885,83.196198 
	C192.766418,82.805367 194.341171,82.846817 195.786255,83.017197 
	C198.085266,83.288261 200.351715,83.835327 203.002792,84.335655 
	C203.002792,72.173752 203.107758,60.874016 202.957230,49.577690 
	C202.885117,44.166920 198.577362,39.151905 193.324020,39.159786 
	C188.020538,39.167740 182.718933,40.425953 177.035080,41.922222 
M150.490982,84.001595 
	C151.328094,82.832359 152.834152,81.693214 152.888336,80.488770 
	C153.144028,74.802856 153.002319,69.099075 153.002319,63.304302 
	C162.546555,65.222389 168.014053,62.992985 171.465851,56.055202 
	C175.012955,48.925880 174.862320,41.290157 172.349670,34.239769 
	C171.053284,30.602160 167.108810,26.166685 163.642929,25.418831 
	C157.116760,24.010643 150.070541,25.012617 142.997681,25.012617 
	C142.997681,43.462158 142.997116,60.421970 142.997955,77.381783 
	C142.998276,83.880821 142.999741,83.880821 150.490982,84.001595 
M58.494370,35.001541 
	C60.260792,35.001541 62.027210,35.001541 63.998581,35.001541 
	C63.998581,32.289265 64.347160,30.065229 63.865139,28.038769 
	C63.585274,26.862207 61.990040,25.155605 60.954617,25.132608 
	C51.042759,24.912470 41.124050,25.000994 30.998386,25.000994 
	C30.998386,26.699129 31.145826,27.866745 30.972862,28.984791 
	C30.225010,33.818966 32.204037,35.715237 37.028305,35.044449 
	C38.913197,34.782364 40.865009,35.001575 42.998356,35.001575 
	C42.998356,49.887772 43.189922,64.169243 42.887405,78.440247 
	C42.790405,83.015999 44.628372,84.284554 48.617996,84.003334 
	C50.030167,83.903793 51.443733,83.824005 53.217823,83.712494 
	C53.217823,67.285545 53.217823,51.241291 53.217823,35.001568 
	C54.918407,35.001568 56.231602,35.001568 58.494370,35.001541 
M248.197662,83.718460 
	C249.331573,83.881645 250.545593,83.838341 251.586151,84.242104 
	C257.581696,86.568474 265.979004,81.806404 267.399170,77.089561 
	C270.710327,66.092247 271.713654,55.238045 266.144470,44.470402 
	C263.183075,38.744709 258.234528,38.985672 253.145508,39.003403 
	C248.639740,39.019104 244.736237,40.317650 242.741745,44.749466 
	C237.991867,55.303783 238.317505,66.101425 242.105820,76.753601 
	C242.985657,79.227577 245.747253,81.032333 248.197662,83.718460 
M184.944244,277.438904 
	C182.362793,277.264282 179.781357,277.089630 177.176437,276.913391 
	C177.013840,279.123749 176.892960,280.766968 176.712128,283.225037 
	C175.969345,280.861664 175.729843,279.219757 174.958862,277.884735 
	C174.126038,276.442657 172.796494,275.287384 171.683594,274.007019 
	C170.665543,275.634674 169.044464,277.179810 168.807159,278.914337 
	C168.590530,280.497650 169.519806,282.567444 170.588959,283.908783 
	C171.772888,285.394226 173.688843,286.296204 175.541824,287.637390 
	C176.934509,287.637390 178.873962,287.637390 180.745071,287.637390 
	C181.017868,284.983490 181.275314,282.478882 181.532761,279.974304 
	C182.028748,280.019348 182.524719,280.064392 183.020691,280.109436 
	C183.020691,282.237640 182.925430,284.373108 183.087677,286.488892 
	C183.128235,287.017792 183.997864,287.483154 184.486435,287.977753 
	C184.982742,287.485657 185.902206,286.996216 185.905365,286.500977 
	C185.923218,283.695770 185.721649,280.889160 184.944244,277.438904 
z"/>
<path fill="#43210B" opacity="1.000000" stroke="none" 
	d="
M151.173874,277.984619 
	C150.817398,276.929596 150.460922,275.874573 149.969696,274.420715 
	C151.145737,274.187561 152.278366,273.963013 153.410995,273.738495 
	C153.400269,273.568420 153.389542,273.398376 153.378815,273.228333 
	C138.684845,273.228333 123.990883,273.228333 108.692398,273.718445 
	C108.050438,278.158051 108.013000,282.107513 107.970963,286.316895 
	C107.966202,286.750031 107.966034,286.923309 107.965874,287.096588 
	C107.310379,286.233215 106.142876,285.400421 106.089218,284.501129 
	C105.872574,280.870392 105.999397,277.219147 105.999397,273.001526 
	C103.999016,273.001526 102.231880,273.001526 100.464752,273.001526 
	C73.805946,273.001526 47.147137,273.002045 20.488327,273.001190 
	C12.610145,273.000916 10.055521,270.492798 10.016653,262.368774 
	C9.950491,248.539841 9.998404,234.710342 9.998402,220.881088 
	C9.998399,181.226105 9.995809,141.571136 10.000336,101.916161 
	C10.001387,92.712143 12.681345,89.998436 21.719124,89.998421 
	C46.365269,89.998390 71.011414,89.998413 96.477402,89.998413 
	C84.260475,60.910122 70.991310,32.836407 60.167912,3.000597 
	C65.171410,3.000597 69.181252,2.272392 72.731201,3.236874 
	C75.446648,3.974632 78.685234,6.375349 79.762985,8.869534 
	C82.811729,15.925150 84.749451,23.451832 87.341934,30.715460 
	C92.935661,46.387970 98.665108,62.012039 104.799355,78.925140 
	C113.333435,55.696259 121.469284,33.551311 129.755020,10.998399 
	C130.990433,10.998399 132.637421,10.996275 134.284393,10.998778 
	C140.396027,11.008067 143.689651,15.190578 141.438477,20.976826 
	C137.359695,31.460630 132.759750,41.741001 128.420395,52.124279 
	C123.225761,64.554062 118.076225,77.002686 112.676445,89.998413 
	C115.030052,89.998413 116.811676,89.998413 118.593300,89.998413 
	C172.744003,89.998413 226.895660,90.157745 281.044403,89.829964 
	C289.352356,89.779678 292.010803,94.786201 292.005951,101.181137 
	C291.992950,118.342743 292.001526,135.504364 292.001526,152.665970 
	C292.001526,188.821976 292.005005,224.977997 291.999176,261.134003 
	C291.997620,270.891327 289.894653,272.982880 280.247345,273.005035 
	C251.597183,273.070770 222.947052,273.152527 193.689758,273.717285 
	C192.708893,277.842255 192.335175,281.477997 191.961456,285.113708 
	C191.961472,285.113708 191.499893,285.022888 191.256348,284.619324 
	C190.990524,282.103027 190.968231,279.990295 190.945953,277.877594 
	C190.945953,276.395630 190.945953,274.913666 190.945953,273.227722 
	C179.672073,273.227722 168.484589,273.227722 156.687653,273.718079 
	C155.707428,278.513763 155.336670,282.819031 154.965912,287.124329 
	C154.965912,287.124329 154.498596,287.026550 154.255142,286.631104 
	C154.004410,284.455750 154.340881,282.578033 153.871887,280.929443 
	C153.546219,279.784607 152.112534,278.955048 151.173874,277.984619 
M167.761566,268.963318 
	C168.855301,268.303802 169.949020,267.644257 171.826828,266.993225 
	C172.871521,266.990753 173.916214,266.988251 175.048553,267.667938 
	C176.045929,267.440430 177.043304,267.212921 178.450455,266.995117 
	C178.450455,266.995117 178.860092,267.010010 179.399368,267.029236 
	C179.578140,267.028259 179.756897,267.027283 180.106506,267.792389 
	C182.933868,268.051117 185.759933,268.518951 188.588791,268.536530 
	C219.072983,268.726013 249.557587,268.855164 280.042175,268.973602 
	C286.212524,268.997589 287.007812,268.198517 287.009003,262.096161 
	C287.019592,208.435272 287.018616,154.774399 287.010590,101.113510 
	C287.009644,94.711746 286.295471,94.022217 279.750214,94.020828 
	C247.444641,94.013977 215.139008,93.996071 182.833786,94.102005 
	C181.530441,94.106277 180.231049,95.320396 178.390091,95.969574 
	C178.210312,95.976578 178.030533,95.983582 177.452972,96.006416 
	C177.452972,96.006416 177.055084,96.018387 176.884964,95.231140 
	C173.911789,94.818619 170.938599,94.406105 167.324371,94.001289 
	C166.896988,93.998322 166.469589,93.995354 165.096298,94.006660 
	C117.440353,94.008255 69.784416,94.006828 22.128471,94.015144 
	C15.963622,94.016228 14.997384,94.804337 14.995173,100.225426 
	C14.973077,154.379868 15.007007,208.534332 14.934343,262.688690 
	C14.928448,267.082977 16.449200,269.046387 21.041597,269.036865 
	C69.696739,268.936035 118.352097,268.943451 167.761566,268.963318 
M81.195541,19.235697 
	C80.702278,17.650009 80.211082,16.063675 79.715424,14.478736 
	C76.642693,4.653200 74.323708,3.378277 63.585403,5.614101 
	C63.545757,5.930729 63.377178,6.301898 63.484768,6.556243 
	C74.864769,33.458591 86.274536,60.348343 97.655960,87.250084 
	C99.509773,91.631851 103.330505,89.539055 106.365273,89.998390 
	C108.885132,90.379776 110.570480,89.741730 111.672928,86.946442 
	C115.203903,77.993568 119.135735,69.199677 122.838997,60.313637 
	C128.328354,47.141838 133.950317,34.017681 138.991760,20.675220 
	C139.729843,18.721849 138.288986,14.315262 136.604797,13.433075 
	C133.572861,11.844914 130.688797,13.009144 129.226303,17.331133 
	C123.695015,33.677223 117.723198,49.875465 111.814041,66.091797 
	C109.795731,71.630600 107.476799,77.059860 105.295212,82.539177 
	C104.828392,82.545479 104.361565,82.551788 103.894745,82.558098 
	C96.430641,61.692379 88.966530,40.826660 81.195541,19.235697 
z"/>
<path fill="#43210B" opacity="1.000000" stroke="none" 
	d="
M217.001358,59.101208 
	C217.001358,67.558640 217.001358,75.532539 217.001358,83.985336 
	C214.940155,83.985336 212.970108,84.477219 211.459198,83.854706 
	C209.758606,83.154045 207.228012,81.478142 207.197235,80.175873 
	C206.883194,66.895645 207.005188,53.605110 207.005188,40.745201 
	C212.828949,40.128128 218.157379,39.561089 223.486374,38.999462 
	C231.770859,38.126350 235.370728,43.271107 235.792801,49.778503 
	C236.522430,61.027325 235.995117,72.357674 235.995117,83.607773 
	C227.122437,84.514427 225.999771,83.543869 225.998825,75.352257 
	C225.998032,68.352768 226.037109,61.352943 225.977203,54.353962 
	C225.956848,51.974770 226.224258,48.996094 222.670181,49.079651 
	C219.352142,49.157665 216.643311,50.446709 216.984497,54.619289 
	C217.092789,55.943691 217.001389,57.284424 217.001358,59.101208 
M229.239212,79.851112 
	C231.101303,81.516693 232.858795,81.479332 232.904388,78.722191 
	C233.066360,68.924965 233.285233,59.100712 232.692978,49.334576 
	C232.493393,46.043228 230.912399,42.111061 226.007492,41.952995 
	C221.092361,41.794605 219.094315,42.732769 217.679962,46.442848 
	C227.234970,45.102150 229.003479,46.682827 229.016144,56.554710 
	C229.025726,64.030640 229.045334,71.506554 229.239212,79.851112 
M214.009674,52.243397 
	C216.627258,47.779453 213.598785,45.228168 210.707138,40.978336 
	C210.282059,43.310341 210.026276,44.065792 210.024307,44.821907 
	C209.996231,55.598824 209.934906,66.376816 210.092407,77.151474 
	C210.110535,78.391312 211.394302,79.612656 212.091248,80.842567 
	C212.727432,79.552780 213.886124,78.274277 213.914261,76.971352 
	C214.086044,69.016647 214.001129,61.056400 214.009674,52.243397 
z"/>
<path fill="#45220C" opacity="1.000000" stroke="none" 
	d="
M177.225800,41.529327 
	C182.718933,40.425953 188.020538,39.167740 193.324020,39.159786 
	C198.577362,39.151905 202.885117,44.166920 202.957230,49.577690 
	C203.107758,60.874016 203.002792,72.173752 203.002792,84.335655 
	C200.351715,83.835327 198.085266,83.288261 195.786255,83.017197 
	C194.341171,82.846817 192.766418,82.805367 191.388885,83.196198 
	C184.317993,85.202293 177.853638,84.430702 175.792252,75.712234 
	C172.724716,62.738235 177.940384,54.305588 191.357346,54.982155 
	C192.164749,55.022865 192.982208,54.863937 193.925705,54.787285 
	C193.814331,50.709091 192.294785,48.439713 187.948044,48.978306 
	C186.636642,49.140800 185.288071,49.003468 183.956528,49.003281 
	C176.953278,49.002308 176.953278,49.002281 177.225800,41.529327 
M195.446732,75.794090 
	C195.724106,75.593918 195.908325,75.328972 196.565125,75.477615 
	C197.145798,77.240036 197.726471,79.002457 198.307144,80.764877 
	C198.791595,80.646935 199.276062,80.528992 199.760513,80.411049 
	C199.760513,69.860680 200.041046,59.298347 199.591980,48.767128 
	C199.454742,45.548763 197.200226,42.166847 193.213303,42.145565 
	C188.791870,42.121964 183.838516,40.505524 178.997116,45.591091 
	C182.631699,45.761620 185.003647,45.953621 187.376785,45.969696 
	C195.784393,46.026642 198.279053,49.261879 196.084503,58.016155 
	C194.583344,58.016155 192.954163,58.007942 191.325104,58.017490 
	C180.730896,58.079567 177.458984,61.446129 178.012970,71.804634 
	C178.216461,75.609467 179.071991,79.564209 183.095505,80.693008 
	C187.168793,81.835777 191.458725,81.429192 194.455414,76.797127 
	C194.729141,76.594643 194.910873,76.329170 195.446732,75.794090 
z"/>
<path fill="#44220C" opacity="1.000000" stroke="none" 
	d="
M150.028244,84.001984 
	C142.999741,83.880821 142.998276,83.880821 142.997955,77.381783 
	C142.997116,60.421970 142.997681,43.462158 142.997681,25.012617 
	C150.070541,25.012617 157.116760,24.010643 163.642929,25.418831 
	C167.108810,26.166685 171.053284,30.602160 172.349670,34.239769 
	C174.862320,41.290157 175.012955,48.925880 171.465851,56.055202 
	C168.014053,62.992985 162.546555,65.222389 153.002319,63.304302 
	C153.002319,69.099075 153.144028,74.802856 152.888336,80.488770 
	C152.834152,81.693214 151.328094,82.832359 150.028244,84.001984 
M145.983719,42.505569 
	C145.983780,53.651814 145.906448,64.799187 146.068649,75.943062 
	C146.092560,77.584824 147.251740,79.210060 147.885635,80.842949 
	C148.585526,79.277466 149.810883,77.737671 149.888916,76.141777 
	C150.145248,70.899002 149.985306,65.635864 149.985306,60.502834 
	C151.265091,60.272682 151.796036,60.010433 152.228394,60.123890 
	C162.382141,62.788403 169.285141,60.474197 170.750351,46.893627 
	C171.581863,39.186508 169.899002,28.596771 161.635223,27.851719 
	C156.653198,27.402546 151.597626,27.769096 145.983688,27.769096 
	C145.983688,32.947330 145.983688,37.228394 145.983719,42.505569 
z"/>
<path fill="#43210B" opacity="1.000000" stroke="none" 
	d="
M58.019581,35.001556 
	C56.231602,35.001568 54.918407,35.001568 53.217823,35.001568 
	C53.217823,51.241291 53.217823,67.285545 53.217823,83.712494 
	C51.443733,83.824005 50.030167,83.903793 48.617996,84.003334 
	C44.628372,84.284554 42.790405,83.015999 42.887405,78.440247 
	C43.189922,64.169243 42.998356,49.887772 42.998356,35.001575 
	C40.865009,35.001575 38.913197,34.782364 37.028305,35.044449 
	C32.204037,35.715237 30.225010,33.818966 30.972862,28.984791 
	C31.145826,27.866745 30.998386,26.699129 30.998386,25.000994 
	C41.124050,25.000994 51.042759,24.912470 60.954617,25.132608 
	C61.990040,25.155605 63.585274,26.862207 63.865139,28.038769 
	C64.347160,30.065229 63.998581,32.289265 63.998581,35.001541 
	C62.027210,35.001541 60.260792,35.001541 58.019581,35.001556 
M49.989895,43.520203 
	C49.989895,43.021442 49.963223,42.521011 49.994247,42.024189 
	C50.188339,38.915962 49.592930,35.377666 50.933594,32.881050 
	C51.612743,31.616323 55.817829,32.364914 58.381836,31.927738 
	C59.286034,31.773569 60.050457,30.799578 60.878696,30.199898 
	C60.182728,29.473396 59.499607,28.130171 58.788811,28.115366 
	C51.310966,27.959604 43.827557,27.957726 36.349411,28.103760 
	C35.598286,28.118427 34.871601,29.384455 34.133572,30.069735 
	C34.917141,30.710751 35.611679,31.593813 36.509548,31.924070 
	C37.390961,32.248276 38.499016,32.143318 39.472961,31.996645 
	C43.746948,31.353003 45.247395,32.852299 45.138386,37.405056 
	C44.824100,50.531681 44.952629,63.671864 45.144169,76.803268 
	C45.164230,78.178749 46.761818,79.531227 47.627491,80.894386 
	C48.414692,79.573830 49.861874,78.264626 49.884838,76.930916 
	C50.070839,66.127510 49.989609,55.319500 49.989895,43.520203 
z"/>
<path fill="#44220C" opacity="1.000000" stroke="none" 
	d="
M247.920319,83.431740 
	C245.747253,81.032333 242.985657,79.227577 242.105820,76.753601 
	C238.317505,66.101425 237.991867,55.303783 242.741745,44.749466 
	C244.736237,40.317650 248.639740,39.019104 253.145508,39.003403 
	C258.234528,38.985672 263.183075,38.744709 266.144470,44.470402 
	C271.713654,55.238045 270.710327,66.092247 267.399170,77.089561 
	C265.979004,81.806404 257.581696,86.568474 251.586151,84.242104 
	C250.545593,83.838341 249.331573,83.881645 247.920319,83.431740 
M242.493286,64.019180 
	C242.666306,66.165337 242.816422,68.313622 243.016586,70.457245 
	C243.631973,77.047668 247.894226,81.258408 254.607651,81.934769 
	C259.307465,82.408272 264.499908,78.793671 265.354919,72.886574 
	C266.311676,66.276932 266.207764,59.445274 265.899811,52.740807 
	C265.606201,46.349758 261.800903,42.322124 256.897125,41.992508 
	C248.988144,41.460884 245.376373,43.662266 243.637772,50.912487 
	C242.684906,54.886070 242.652069,59.080276 242.493286,64.019180 
z"/>
<path fill="#4E250F" opacity="1.000000" stroke="none" 
	d="
M185.269531,277.760956 
	C185.721649,280.889160 185.923218,283.695770 185.905365,286.500977 
	C185.902206,286.996216 184.982742,287.485657 184.486435,287.977753 
	C183.997864,287.483154 183.128235,287.017792 183.087677,286.488892 
	C182.925430,284.373108 183.020691,282.237640 183.020691,280.109436 
	C182.524719,280.064392 182.028748,280.019348 181.532761,279.974304 
	C181.275314,282.478882 181.017868,284.983490 180.745071,287.637390 
	C178.873962,287.637390 176.934509,287.637390 175.541824,287.637390 
	C173.688843,286.296204 171.772888,285.394226 170.588959,283.908783 
	C169.519806,282.567444 168.590530,280.497650 168.807159,278.914337 
	C169.044464,277.179810 170.665543,275.634674 171.683594,274.007019 
	C172.796494,275.287384 174.126038,276.442657 174.958862,277.884735 
	C175.729843,279.219757 175.969345,280.861664 176.712128,283.225037 
	C176.892960,280.766968 177.013840,279.123749 177.176437,276.913391 
	C179.781357,277.089630 182.362793,277.264282 185.269531,277.760956 
z"/>
<path fill="#522610" opacity="1.000000" stroke="none" 
	d="
M108.140633,287.447205 
	C107.966034,286.923309 107.966202,286.750031 108.257492,286.041199 
	C108.860603,283.444946 109.172585,281.384247 109.484558,279.323578 
	C109.963463,279.132812 110.442368,278.942078 110.921272,278.751312 
	C111.879669,280.451630 112.838066,282.151947 114.036339,284.277863 
	C114.036339,282.146362 114.036339,280.498474 114.036331,278.850616 
	C115.011909,278.114197 115.987495,277.377808 117.314957,276.375793 
	C118.135201,278.818848 118.735321,280.606262 119.235512,282.096039 
	C120.279922,280.408752 121.454384,278.511383 122.628845,276.614014 
	C123.019310,276.909424 123.409767,277.204803 123.800232,277.500214 
	C122.307678,287.893616 120.102463,291.170502 114.236725,290.365417 
	C115.600464,288.816650 116.654175,287.619995 117.675758,286.459808 
	C116.977936,284.872040 116.218178,283.143372 115.130501,280.668579 
	C115.390892,286.177826 113.656174,288.999908 108.140633,287.447205 
M111.185715,286.259460 
	C111.024605,286.375519 110.863487,286.491608 110.702377,286.607697 
	C110.927246,286.584259 111.152122,286.560822 111.185715,286.259460 
z"/>
<path fill="#4E250F" opacity="1.000000" stroke="none" 
	d="
M143.856354,279.782501 
	C143.856354,282.400574 143.856354,285.018646 143.856354,287.951630 
	C140.219467,287.158630 134.857224,290.007446 135.211182,282.240326 
	C135.573151,279.773468 135.707077,277.896942 135.841003,276.020386 
	C137.685867,278.498535 142.536804,274.956238 143.575806,279.782745 
	C143.909195,279.849487 143.856354,279.782501 143.856354,279.782501 
M140.528976,282.314514 
	C139.980209,281.975098 139.431442,281.635651 138.882706,281.296204 
	C138.747253,281.571106 138.611816,281.845978 138.476364,282.120880 
	C139.013840,282.326263 139.551300,282.531647 140.528976,282.314514 
z"/>
<path fill="#522610" opacity="1.000000" stroke="none" 
	d="
M135.900879,275.592041 
	C135.707077,277.896942 135.573151,279.773468 135.162994,281.851227 
	C133.739197,282.052429 132.591629,282.052429 131.744339,282.052429 
	C129.666367,283.649933 133.185257,287.804169 128.287781,288.040344 
	C128.287781,283.392822 128.287781,278.883514 128.287781,273.535431 
	C131.017273,274.114624 133.489014,274.639130 135.900879,275.592041 
z"/>
<path fill="#512610" opacity="1.000000" stroke="none" 
	d="
M143.939255,279.879761 
	C144.715027,278.282318 145.460739,276.654602 146.206436,275.026886 
	C147.168793,275.688354 148.180176,276.291199 149.072052,277.036987 
	C149.494522,277.390259 150.000992,278.415863 149.941437,278.462494 
	C146.159286,281.423584 148.807693,284.573883 150.151749,287.700806 
	C145.452377,287.313385 145.452377,287.313385 144.252411,279.978577 
	C143.856354,279.782501 143.909195,279.849487 143.939255,279.879761 
z"/>
<path fill="#642D17" opacity="1.000000" stroke="none" 
	d="
M191.974487,285.501526 
	C192.335175,281.477997 192.708893,277.842255 193.462692,274.100342 
	C194.412308,278.195892 195.033066,282.392395 195.466644,286.608185 
	C195.506927,286.999908 194.067810,288.019684 193.818817,287.875977 
	C193.074203,287.446198 192.579681,286.583191 191.974487,285.501526 
z"/>
<path fill="#632C16" opacity="1.000000" stroke="none" 
	d="
M155.146133,287.464996 
	C155.336670,282.819031 155.707428,278.513763 156.460190,274.100891 
	C157.206940,278.090912 157.660065,282.185150 157.816010,286.290680 
	C157.833984,286.763489 156.196365,287.299133 155.146133,287.464996 
z"/>
<path fill="#662D17" opacity="1.000000" stroke="none" 
	d="
M113.860519,278.513092 
	C114.036339,280.498474 114.036339,282.146362 114.036339,284.277863 
	C112.838066,282.151947 111.879669,280.451630 110.921272,278.751312 
	C110.442368,278.942078 109.963463,279.132812 109.484558,279.323578 
	C109.172585,281.384247 108.860603,283.444946 108.262100,285.781311 
	C108.013000,282.107513 108.050438,278.158051 108.466728,274.102325 
	C109.950867,275.977142 110.200157,278.949310 113.860519,278.513092 
z"/>
<path fill="#582812" opacity="1.000000" stroke="none" 
	d="
M190.562515,277.780457 
	C190.968231,279.990295 190.990524,282.103027 191.026352,284.668549 
	C190.549072,286.187592 190.058243,287.253815 189.567429,288.320068 
	C189.047089,288.162384 188.526749,288.004700 188.006409,287.847046 
	C188.006409,284.739502 187.943802,281.628815 188.101410,278.529297 
	C188.117493,278.212891 189.454865,277.963684 190.562515,277.780457 
z"/>
<path fill="#582812" opacity="1.000000" stroke="none" 
	d="
M151.096008,278.432709 
	C152.112534,278.955048 153.546219,279.784607 153.871887,280.929443 
	C154.340881,282.578033 154.004410,284.455750 154.023895,286.690399 
	C153.133728,287.467804 152.231369,287.790527 151.018158,288.224426 
	C151.018158,284.686981 151.018158,281.783875 151.096008,278.432709 
z"/>
<path fill="#3C210E" opacity="1.000000" stroke="none" 
	d="
M174.960907,266.985779 
	C173.916214,266.988251 172.871521,266.990753 171.029755,266.995911 
	C169.157242,267.023987 168.081818,267.049347 166.537643,267.058380 
	C154.335480,267.035553 142.592453,267.332306 130.870651,266.960083 
	C105.514832,266.154999 80.165703,265.098877 54.823162,263.941345 
	C47.565472,263.609863 40.297668,262.857361 33.114136,261.771240 
	C28.341997,261.049683 25.049076,257.959137 24.018904,253.023300 
	C23.174786,248.978912 22.493921,244.899521 21.785887,240.827805 
	C17.552830,216.484650 15.271902,192.097778 16.740980,167.266815 
	C17.859138,148.367233 19.972120,129.727905 23.902750,111.244270 
	C25.357960,104.401199 28.859884,101.303505 35.798222,100.973717 
	C40.257629,100.761757 44.700996,100.232727 49.158062,99.947601 
	C70.134766,98.605705 91.098335,96.880913 112.096603,96.108620 
	C129.720596,95.460419 147.385986,95.937401 165.264801,95.836700 
	C165.798157,95.577911 165.981934,95.315933 166.051666,94.726501 
	C166.055405,94.481758 166.042206,93.992393 166.042206,93.992393 
	C166.469589,93.995354 166.896988,93.998322 167.720642,94.393578 
	C171.096298,95.196701 174.075699,95.607544 177.055084,96.018387 
	C177.055084,96.018387 177.452972,96.006416 177.964264,96.275658 
	C181.310822,96.682709 184.146088,96.820518 187.431793,96.975174 
	C190.584061,96.996452 193.285904,97.000885 196.259308,97.289444 
	C198.675049,97.688667 200.819229,97.803757 203.400970,97.942940 
	C205.881943,97.983223 207.925323,97.999413 210.239441,98.289909 
	C212.330170,98.686546 214.150162,98.808876 216.405060,98.950943 
	C224.085724,99.672775 231.369308,100.117256 238.563156,101.173126 
	C242.910309,101.811172 247.224594,103.494377 247.956085,108.739128 
	C250.718414,128.545258 254.033569,148.311676 255.746124,168.213058 
	C256.807983,180.553085 256.064728,193.179306 254.851578,205.551544 
	C253.289368,221.483688 250.357590,237.278229 248.200500,253.157135 
	C247.420471,258.899170 243.521652,261.125519 238.702591,261.815216 
	C231.171814,262.892914 223.552338,263.350677 215.570114,264.053589 
	C213.442184,264.355438 211.714554,264.674805 209.557724,264.995972 
	C207.411163,265.017395 205.693817,265.037018 203.561096,265.042480 
	C201.084564,265.345856 199.023422,265.663391 196.519409,265.982910 
	C193.709976,266.008301 191.343384,266.031677 188.532440,266.041748 
	C185.012085,266.355621 181.936081,266.682831 178.860092,267.010010 
	C178.860092,267.010010 178.450455,266.995117 177.860229,266.995117 
	C176.500290,266.991974 175.730606,266.988892 174.960907,266.985779 
M108.098679,100.706711 
	C92.063957,101.462227 76.021912,102.092354 59.997772,103.028893 
	C52.560555,103.463554 45.125584,104.265625 37.748863,105.316978 
	C29.884844,106.437782 28.065346,108.512825 27.083689,116.335045 
	C25.259361,130.871994 23.059425,145.380936 21.858347,159.970886 
	C20.904961,171.552017 20.238291,183.315430 21.175419,194.857361 
	C22.686930,213.473511 25.620064,231.974365 27.959028,250.523117 
	C28.580227,255.449417 31.458740,257.738403 36.354164,257.974548 
	C42.325863,258.262573 48.286934,258.768982 54.253208,259.171906 
	C73.331467,260.460419 92.402122,262.646423 111.490364,262.813751 
	C138.351303,263.049316 165.233810,262.023224 192.090271,261.065186 
	C205.677719,260.580475 219.234573,259.134766 232.793228,257.982300 
	C241.716888,257.223846 242.628082,256.443604 244.895935,247.811859 
	C245.771194,244.480545 246.240662,241.023941 246.664429,237.595917 
	C248.405396,223.512360 250.666306,209.455872 251.550201,195.315323 
	C252.259247,183.971558 251.962051,172.451736 250.849380,161.134109 
	C249.232376,144.686386 246.475266,128.350937 244.214752,111.966171 
	C243.543060,107.097549 240.297989,105.360329 235.870132,105.036232 
	C225.197815,104.255043 214.529861,103.406006 203.851685,102.715256 
	C188.715805,101.736168 173.582535,100.430992 158.429367,100.082909 
	C141.960953,99.704605 125.471031,100.262802 108.098679,100.706711 
z"/>
<path fill="#71321C" opacity="1.000000" stroke="none" 
	d="
M215.970428,264.071075 
	C223.552338,263.350677 231.171814,262.892914 238.702591,261.815216 
	C243.521652,261.125519 247.420471,258.899170 248.200500,253.157135 
	C250.357590,237.278229 253.289368,221.483688 254.851578,205.551544 
	C256.064728,193.179306 256.807983,180.553085 255.746124,168.213058 
	C254.033569,148.311676 250.718414,128.545258 247.956085,108.739128 
	C247.224594,103.494377 242.910309,101.811172 238.563156,101.173126 
	C231.369308,100.117256 224.085724,99.672775 216.138794,98.680817 
	C213.614670,98.265839 211.791687,98.140724 209.968704,98.015602 
	C207.925323,97.999413 205.881943,97.983223 203.126907,97.672607 
	C200.272751,97.253899 198.130249,97.129608 195.987747,97.005310 
	C193.285904,97.000885 190.584061,96.996452 187.152618,96.694000 
	C183.925278,96.254257 181.427551,96.112534 178.929810,95.970825 
	C180.231049,95.320396 181.530441,94.106277 182.833786,94.102005 
	C215.139008,93.996071 247.444641,94.013977 279.750214,94.020828 
	C286.295471,94.022217 287.009644,94.711746 287.010590,101.113510 
	C287.018616,154.774399 287.019592,208.435272 287.009003,262.096161 
	C287.007812,268.198517 286.212524,268.997589 280.042175,268.973602 
	C249.557587,268.855164 219.072983,268.726013 188.588791,268.536530 
	C185.759933,268.518951 182.933868,268.051117 180.467163,267.400391 
	C183.544159,266.690613 186.260483,266.372833 188.976807,266.055054 
	C191.343384,266.031677 193.709976,266.008301 196.940552,265.990173 
	C199.861862,265.682495 201.919174,265.369568 203.976471,265.056641 
	C205.693817,265.037018 207.411163,265.017395 209.961121,264.998474 
	C212.519302,264.689819 214.244858,264.380463 215.970428,264.071075 
M265.976654,248.501099 
	C265.976654,248.501099 265.934509,248.010056 265.961548,247.503525 
	C265.974060,247.334900 265.986603,247.166290 266.690125,246.629745 
	C266.954437,243.529083 267.813507,240.287155 267.130432,237.411514 
	C266.918121,236.517487 262.527161,236.616013 259.264313,236.071976 
	C254.279861,236.811035 252.948608,239.872574 254.913681,246.770401 
	C254.920029,247.517227 254.926361,248.264053 254.923157,249.501892 
	C254.923157,249.501892 254.937347,249.992767 254.902725,250.816788 
	C255.234879,253.175720 253.744598,256.468201 258.813202,256.917725 
	C263.207428,257.378204 266.443817,256.431976 266.371460,250.735474 
	C266.226257,250.154404 266.081055,249.573318 265.976654,248.501099 
M270.029724,109.852203 
	C270.071289,111.260773 270.112854,112.669342 270.100494,114.778305 
	C270.135132,115.478638 270.169769,116.178970 270.085114,117.732613 
	C270.299744,124.406395 273.307281,125.869759 281.537445,122.913544 
	C282.152130,122.452896 283.265717,122.029144 283.302948,121.525780 
	C283.617371,117.275497 283.634521,113.003395 283.942139,108.752396 
	C284.215210,104.978333 282.407104,103.657303 278.912476,103.892029 
	C277.592896,103.980667 276.264801,103.942978 274.156097,103.937653 
	C270.331940,103.657639 269.839600,106.031929 270.029724,109.852203 
M260.668488,105.214874 
	C257.351929,103.044754 255.084549,102.978096 254.897964,107.853981 
	C254.758865,111.489037 254.014130,115.136490 254.238281,118.734863 
	C254.350296,120.533150 256.027130,122.233955 257.904480,124.007759 
	C266.142334,123.909019 266.142365,123.909019 265.959625,115.461899 
	C265.956116,115.299332 265.952148,115.136780 266.654602,114.639366 
	C266.770752,111.452332 266.886932,108.265305 267.003082,105.078270 
	C265.038696,105.327377 263.074280,105.576485 260.668488,105.214874 
M261.523407,132.024414 
	C257.437012,133.828751 257.451721,137.691666 257.704895,141.063736 
	C257.912964,143.835220 257.870819,147.614899 262.582184,148.158401 
	C262.774231,148.305573 262.904785,148.495087 262.983521,149.446854 
	C262.647675,150.297592 262.243530,151.909760 261.986053,151.886658 
	C256.812988,151.422562 256.969727,154.767090 256.992859,158.355835 
	C257.075500,171.185181 257.025238,184.015396 257.025238,196.845276 
	C257.025269,207.001984 257.025269,207.001984 266.665924,207.515060 
	C266.093292,207.852646 265.523407,208.194992 264.947632,208.527100 
	C258.400604,212.303635 256.044403,217.918549 258.104858,224.838287 
	C259.575256,229.776382 265.466492,233.993973 270.688904,233.847290 
	C276.941772,233.671631 282.526337,228.683044 283.817932,222.119308 
	C284.805847,217.099152 281.069519,211.045914 275.337769,208.160843 
	C274.449554,207.713776 273.816376,206.760117 273.866730,206.145294 
	C276.811432,206.297897 279.827423,206.880081 282.668579,206.408676 
	C283.949249,206.196182 285.809753,203.896637 285.829651,202.521210 
	C286.053711,187.026474 285.950500,171.527267 285.989746,156.029373 
	C285.996490,153.366852 284.999298,151.919220 282.187042,152.024261 
	C280.791565,152.076401 279.392487,152.033325 277.792023,152.033325 
	C279.490601,149.785965 281.098206,148.094421 282.198822,146.120239 
	C285.360809,140.448502 284.349335,135.602173 279.268646,132.739456 
	C278.839661,132.257141 278.410675,131.774841 277.968689,130.485657 
	C273.869293,125.317787 265.255707,125.799271 262.857178,131.619003 
	C262.714966,131.804764 262.534424,131.939056 261.523407,132.024414 
M274.261993,236.053314 
	C271.148865,236.258469 269.852234,237.947296 270.102142,241.919373 
	C270.102844,245.411224 269.772186,248.949417 270.251373,252.374313 
	C270.473419,253.961121 271.991730,256.180084 273.405884,256.646515 
	C279.709290,258.725586 283.856689,255.468246 283.947968,248.837402 
	C283.966278,247.507111 283.966064,246.176498 283.964783,244.846024 
	C283.956299,235.958328 283.789062,235.796005 274.261993,236.053314 
z"/>
<path fill="#6E301B" opacity="1.000000" stroke="none" 
	d="
M165.569244,93.999527 
	C166.042206,93.992393 166.055405,94.481758 165.834167,94.829041 
	C165.334671,95.356392 165.141373,95.603020 165.033051,95.916214 
	C147.385986,95.937401 129.720596,95.460419 112.096603,96.108620 
	C91.098335,96.880913 70.134766,98.605705 49.158062,99.947601 
	C44.700996,100.232727 40.257629,100.761757 35.798222,100.973717 
	C28.859884,101.303505 25.357960,104.401199 23.902750,111.244270 
	C19.972120,129.727905 17.859138,148.367233 16.740980,167.266815 
	C15.271902,192.097778 17.552830,216.484650 21.785887,240.827805 
	C22.493921,244.899521 23.174786,248.978912 24.018904,253.023300 
	C25.049076,257.959137 28.341997,261.049683 33.114136,261.771240 
	C40.297668,262.857361 47.565472,263.609863 54.823162,263.941345 
	C80.165703,265.098877 105.514832,266.154999 130.870651,266.960083 
	C142.592453,267.332306 154.335480,267.035553 166.535950,267.365723 
	C167.004471,268.099945 167.005936,268.510529 167.007401,268.921082 
	C118.352097,268.943451 69.696739,268.936035 21.041597,269.036865 
	C16.449200,269.046387 14.928448,267.082977 14.934343,262.688690 
	C15.007007,208.534332 14.973077,154.379868 14.995173,100.225426 
	C14.997384,94.804337 15.963622,94.016228 22.128471,94.015144 
	C69.784416,94.006828 117.440353,94.008255 165.569244,93.999527 
z"/>
<path fill="#72311B" opacity="1.000000" stroke="none" 
	d="
M81.348984,19.598320 
	C88.966530,40.826660 96.430641,61.692379 103.894745,82.558098 
	C104.361565,82.551788 104.828392,82.545479 105.295212,82.539177 
	C107.476799,77.059860 109.795731,71.630600 111.814041,66.091797 
	C117.723198,49.875465 123.695015,33.677223 129.226303,17.331133 
	C130.688797,13.009144 133.572861,11.844914 136.604797,13.433075 
	C138.288986,14.315262 139.729843,18.721849 138.991760,20.675220 
	C133.950317,34.017681 128.328354,47.141838 122.838997,60.313637 
	C119.135735,69.199677 115.203903,77.993568 111.672928,86.946442 
	C110.570480,89.741730 108.885132,90.379776 106.365273,89.998390 
	C103.330505,89.539055 99.509773,91.631851 97.655960,87.250084 
	C86.274536,60.348343 74.864769,33.458591 63.484768,6.556243 
	C63.377178,6.301898 63.545757,5.930729 63.592018,5.614929 
	C74.323708,3.378277 76.642693,4.653200 79.715424,14.478736 
	C80.211082,16.063675 80.702278,17.650009 81.348984,19.598320 
z"/>
<path fill="#71321C" opacity="1.000000" stroke="none" 
	d="
M176.970032,95.624763 
	C174.075699,95.607544 171.096298,95.196701 168.041168,94.389725 
	C170.938599,94.406105 173.911789,94.818619 176.970032,95.624763 
z"/>
<path fill="#6E301B" opacity="1.000000" stroke="none" 
	d="
M188.532440,266.041748 
	C186.260483,266.372833 183.544159,266.690613 180.381744,267.017365 
	C179.756897,267.027283 179.578140,267.028259 179.129730,267.019623 
	C181.936081,266.682831 185.012085,266.355621 188.532440,266.041748 
z"/>
<path fill="#6E301B" opacity="1.000000" stroke="none" 
	d="
M178.659943,95.970200 
	C181.427551,96.112534 183.925278,96.254257 186.702179,96.677155 
	C184.146088,96.820518 181.310822,96.682709 178.163147,96.267746 
	C178.030533,95.983582 178.210312,95.976578 178.659943,95.970200 
z"/>
<path fill="#71321C" opacity="1.000000" stroke="none" 
	d="
M167.384491,268.942200 
	C167.005936,268.510529 167.004471,268.099945 167.004700,267.382050 
	C168.081818,267.049347 169.157242,267.023987 170.637711,266.991699 
	C169.949020,267.644257 168.855301,268.303802 167.384491,268.942200 
z"/>
<path fill="#71321C" opacity="1.000000" stroke="none" 
	d="
M175.004730,267.326874 
	C175.730606,266.988892 176.500290,266.991974 177.655334,266.990234 
	C177.043304,267.212921 176.045929,267.440430 175.004730,267.326874 
z"/>
<path fill="#71301A" opacity="1.000000" stroke="none" 
	d="
M229.149841,79.416794 
	C229.045334,71.506554 229.025726,64.030640 229.016144,56.554710 
	C229.003479,46.682827 227.234970,45.102150 217.679962,46.442848 
	C219.094315,42.732769 221.092361,41.794605 226.007492,41.952995 
	C230.912399,42.111061 232.493393,46.043228 232.692978,49.334576 
	C233.285233,59.100712 233.066360,68.924965 232.904388,78.722191 
	C232.858795,81.479332 231.101303,81.516693 229.149841,79.416794 
z"/>
<path fill="#71301A" opacity="1.000000" stroke="none" 
	d="
M214.005737,52.670700 
	C214.001129,61.056400 214.086044,69.016647 213.914261,76.971352 
	C213.886124,78.274277 212.727432,79.552780 212.091248,80.842567 
	C211.394302,79.612656 210.110535,78.391312 210.092407,77.151474 
	C209.934906,66.376816 209.996231,55.598824 210.024307,44.821907 
	C210.026276,44.065792 210.282059,43.310341 210.707138,40.978336 
	C213.598785,45.228168 216.627258,47.779453 214.005737,52.670700 
z"/>
<path fill="#71301A" opacity="1.000000" stroke="none" 
	d="
M194.015747,77.012535 
	C191.458725,81.429192 187.168793,81.835777 183.095505,80.693008 
	C179.071991,79.564209 178.216461,75.609467 178.012970,71.804634 
	C177.458984,61.446129 180.730896,58.079567 191.325104,58.017490 
	C192.954163,58.007942 194.583344,58.016155 196.084503,58.016155 
	C198.279053,49.261879 195.784393,46.026642 187.376785,45.969696 
	C185.003647,45.953621 182.631699,45.761620 178.997116,45.591091 
	C183.838516,40.505524 188.791870,42.121964 193.213303,42.145565 
	C197.200226,42.166847 199.454742,45.548763 199.591980,48.767128 
	C200.041046,59.298347 199.760513,69.860680 199.760513,80.411049 
	C199.276062,80.528992 198.791595,80.646935 198.307144,80.764877 
	C197.726471,79.002457 197.145798,77.240036 196.282562,75.238808 
	C196.000000,75.000000 196.001221,75.001007 196.048615,74.586288 
	C196.378586,70.552467 196.754578,66.936180 196.863373,63.311863 
	C196.884644,62.603069 195.853683,61.227192 195.335907,61.240532 
	C191.895187,61.329182 188.251160,61.088306 185.080765,62.160057 
	C181.267731,63.449055 179.827713,68.725220 181.512695,72.899040 
	C183.159103,76.977333 186.040802,78.941856 190.591370,77.647301 
	C191.696777,77.332825 192.853806,77.199806 193.993164,76.990822 
	C193.999222,76.998299 194.015747,77.012535 194.015747,77.012535 
z"/>
<path fill="#71301A" opacity="1.000000" stroke="none" 
	d="
M195.999695,74.999619 
	C195.908325,75.328972 195.724106,75.593918 195.223358,75.897049 
	C195.000000,76.000000 195.000000,75.999695 195.097336,75.771912 
	C195.393326,75.258873 195.662186,75.077835 196.001221,75.001007 
	C196.001221,75.001007 196.000000,75.000000 195.999695,74.999619 
z"/>
<path fill="#71301A" opacity="1.000000" stroke="none" 
	d="
M195.000305,76.000351 
	C194.910873,76.329170 194.729141,76.594643 194.235580,76.904831 
	C194.015747,77.012535 193.999222,76.998299 194.093811,76.765511 
	C194.392746,76.254303 194.663284,76.076630 195.000000,75.999695 
	C195.000000,75.999695 195.000000,76.000000 195.000305,76.000351 
z"/>
<path fill="#70301A" opacity="1.000000" stroke="none" 
	d="
M145.983704,42.007515 
	C145.983688,37.228394 145.983688,32.947330 145.983688,27.769096 
	C151.597626,27.769096 156.653198,27.402546 161.635223,27.851719 
	C169.899002,28.596771 171.581863,39.186508 170.750351,46.893627 
	C169.285141,60.474197 162.382141,62.788403 152.228394,60.123890 
	C151.796036,60.010433 151.265091,60.272682 149.985306,60.502834 
	C149.985306,65.635864 150.145248,70.899002 149.888916,76.141777 
	C149.810883,77.737671 148.585526,79.277466 147.885635,80.842949 
	C147.251740,79.210060 146.092560,77.584824 146.068649,75.943062 
	C145.906448,64.799187 145.983780,53.651814 145.983704,42.007515 
M161.183609,32.002544 
	C160.064987,31.713858 158.960693,31.337994 157.825302,31.151272 
	C152.301132,30.242804 149.992859,32.216557 149.986588,37.801823 
	C149.981171,42.611832 149.912262,47.423820 150.040131,52.230446 
	C150.071487,53.408981 150.402466,55.046558 151.211349,55.656067 
	C154.603714,58.212292 161.670227,57.192352 164.496902,54.006107 
	C169.032196,48.893890 167.578644,36.309246 161.183609,32.002544 
z"/>
<path fill="#6E2F19" opacity="1.000000" stroke="none" 
	d="
M49.989880,44.016548 
	C49.989609,55.319500 50.070839,66.127510 49.884838,76.930916 
	C49.861874,78.264626 48.414692,79.573830 47.627495,80.894386 
	C46.761818,79.531227 45.164230,78.178749 45.144169,76.803268 
	C44.952629,63.671864 44.824100,50.531681 45.138386,37.405056 
	C45.247395,32.852299 43.746948,31.353003 39.472961,31.996645 
	C38.499016,32.143318 37.390961,32.248276 36.509548,31.924070 
	C35.611679,31.593813 34.917141,30.710751 34.133572,30.069736 
	C34.871601,29.384455 35.598286,28.118427 36.349411,28.103760 
	C43.827557,27.957726 51.310966,27.959604 58.788811,28.115366 
	C59.499607,28.130171 60.182728,29.473396 60.878696,30.199898 
	C60.050457,30.799578 59.286034,31.773569 58.381836,31.927738 
	C55.817829,32.364914 51.612743,31.616323 50.933594,32.881050 
	C49.592930,35.377666 50.188339,38.915962 49.994247,42.024189 
	C49.963223,42.521011 49.989895,43.021442 49.989880,44.016548 
z"/>
<path fill="#70301A" opacity="1.000000" stroke="none" 
	d="
M242.348831,63.597092 
	C242.652069,59.080276 242.684906,54.886070 243.637772,50.912487 
	C245.376373,43.662266 248.988144,41.460884 256.897125,41.992508 
	C261.800903,42.322124 265.606201,46.349758 265.899811,52.740807 
	C266.207764,59.445274 266.311676,66.276932 265.354919,72.886574 
	C264.499908,78.793671 259.307465,82.408272 254.607651,81.934769 
	C247.894226,81.258408 243.631973,77.047668 243.016586,70.457245 
	C242.816422,68.313622 242.666306,66.165337 242.348831,63.597092 
M263.000000,62.441055 
	C262.373230,58.053196 262.132721,53.563175 261.007019,49.307274 
	C259.959137,45.345551 256.094025,45.414501 253.095657,46.152958 
	C251.114243,46.640957 248.765961,48.463696 247.935425,50.300758 
	C244.708710,57.437870 245.582397,65.039131 247.527969,72.235229 
	C248.160126,74.573402 251.689026,77.259796 254.197449,77.610756 
	C256.304108,77.905495 259.827271,75.562119 260.968750,73.442047 
	C262.520538,70.559837 262.401703,66.778122 263.000000,62.441055 
z"/>
<path fill="#662D17" opacity="1.000000" stroke="none" 
	d="
M111.281357,286.398438 
	C111.152122,286.560822 110.927246,286.584259 110.702377,286.607697 
	C110.863487,286.491608 111.024605,286.375519 111.281357,286.398438 
z"/>
<path fill="#522610" opacity="1.000000" stroke="none" 
	d="
M140.308868,282.525757 
	C139.551300,282.531647 139.013840,282.326263 138.476379,282.120880 
	C138.611816,281.845978 138.747253,281.571106 138.882690,281.296204 
	C139.431442,281.635651 139.980209,281.975098 140.308868,282.525757 
z"/>
<path fill="#596359" opacity="1.000000" stroke="none" 
	d="
M108.544586,100.559685 
	C125.471031,100.262802 141.960953,99.704605 158.429367,100.082909 
	C173.582535,100.430992 188.715805,101.736168 203.851685,102.715256 
	C214.529861,103.406006 225.197815,104.255043 235.870132,105.036232 
	C240.297989,105.360329 243.543060,107.097549 244.214752,111.966171 
	C246.475266,128.350937 249.232376,144.686386 250.849380,161.134109 
	C251.962051,172.451736 252.259247,183.971558 251.550201,195.315323 
	C250.666306,209.455872 248.405396,223.512360 246.664429,237.595917 
	C246.240662,241.023941 245.771194,244.480545 244.895935,247.811859 
	C242.628082,256.443604 241.716888,257.223846 232.793228,257.982300 
	C219.234573,259.134766 205.677719,260.580475 192.090271,261.065186 
	C165.233810,262.023224 138.351303,263.049316 111.490364,262.813751 
	C92.402122,262.646423 73.331467,260.460419 54.253208,259.171906 
	C48.286934,258.768982 42.325863,258.262573 36.354164,257.974548 
	C31.458740,257.738403 28.580227,255.449417 27.959028,250.523117 
	C25.620064,231.974365 22.686930,213.473511 21.175419,194.857361 
	C20.238291,183.315430 20.904961,171.552017 21.858347,159.970886 
	C23.059425,145.380936 25.259361,130.871994 27.083689,116.335045 
	C28.065346,108.512825 29.884844,106.437782 37.748863,105.316978 
	C45.125584,104.265625 52.560555,103.463554 59.997772,103.028893 
	C76.021912,102.092354 92.063957,101.462227 108.544586,100.559685 
z"/>
<path fill="#6E301B" opacity="1.000000" stroke="none" 
	d="
M203.561096,265.042480 
	C201.919174,265.369568 199.861862,265.682495 197.383423,265.988159 
	C199.023422,265.663391 201.084564,265.345856 203.561096,265.042480 
z"/>
<path fill="#6E301B" opacity="1.000000" stroke="none" 
	d="
M196.259308,97.289452 
	C198.130249,97.129608 200.272751,97.253899 202.689331,97.648514 
	C200.819229,97.803757 198.675049,97.688667 196.259308,97.289452 
z"/>
<path fill="#6E301B" opacity="1.000000" stroke="none" 
	d="
M215.570114,264.053589 
	C214.244858,264.380463 212.519302,264.689819 210.390335,264.996704 
	C211.714554,264.674805 213.442184,264.355438 215.570114,264.053589 
z"/>
<path fill="#6E301B" opacity="1.000000" stroke="none" 
	d="
M210.239441,98.289909 
	C211.791687,98.140724 213.614670,98.265839 215.703918,98.661079 
	C214.150162,98.808876 212.330170,98.686546 210.239441,98.289909 
z"/>
<path fill="#71321C" opacity="1.000000" stroke="none" 
	d="
M165.264801,95.836700 
	C165.141373,95.603020 165.334671,95.356392 165.830414,95.073784 
	C165.981934,95.315933 165.798157,95.577911 165.264801,95.836700 
z"/>
<path fill="#46230F" opacity="1.000000" stroke="none" 
	d="
M279.686920,132.962067 
	C284.349335,135.602173 285.360809,140.448502 282.198822,146.120239 
	C281.098206,148.094421 279.490601,149.785965 277.792023,152.033325 
	C279.392487,152.033325 280.791565,152.076401 282.187042,152.024261 
	C284.999298,151.919220 285.996490,153.366852 285.989746,156.029373 
	C285.950500,171.527267 286.053711,187.026474 285.829651,202.521210 
	C285.809753,203.896637 283.949249,206.196182 282.668579,206.408676 
	C279.827423,206.880081 276.811432,206.297897 273.069763,206.078094 
	C270.539368,206.327515 268.805969,206.644135 267.072571,206.960754 
	C257.025269,207.001984 257.025269,207.001984 257.025238,196.845276 
	C257.025238,184.015396 257.075500,171.185181 256.992859,158.355835 
	C256.969727,154.767090 256.812988,151.422562 261.986053,151.886658 
	C262.243530,151.909760 262.647675,150.297592 263.314880,149.302444 
	C271.768860,153.251526 279.184937,150.934082 281.213196,142.937073 
	C281.974823,139.934280 280.268219,136.305466 279.686920,132.962067 
M280.002136,195.996979 
	C280.002136,195.996979 280.025574,195.983093 280.043152,195.252991 
	C280.329590,193.843552 280.616028,192.434097 280.960663,190.508682 
	C280.966675,190.335709 280.972717,190.162735 281.005066,189.361191 
	C279.851990,188.251007 278.698914,187.140808 277.310822,185.804382 
	C277.769531,184.765610 278.365479,183.415955 279.464539,181.717316 
	C279.642609,181.148071 279.820709,180.578812 280.058228,179.319534 
	C280.334686,178.214172 280.611145,177.108810 280.731384,175.562241 
	C280.554474,175.289307 280.313171,175.097153 280.029541,174.497223 
	C280.029541,174.497223 280.010651,174.008575 280.304932,173.905167 
	C280.200684,173.933517 280.096466,173.961868 279.375092,173.675079 
	C279.237213,171.805496 279.099335,169.935898 279.464539,167.717316 
	C279.642639,167.148071 279.820709,166.578827 280.058441,165.318970 
	C280.332611,164.212463 280.606781,163.105942 280.947052,161.499481 
	C280.953491,161.331512 280.959961,161.163544 280.999420,160.358765 
	C276.553406,152.927643 272.234009,158.641190 268.198792,160.351135 
	C268.493744,161.947479 268.774139,163.465103 269.004700,165.006622 
	C269.004700,165.006622 268.980011,165.054367 268.188324,165.028442 
	C267.132324,165.032104 266.076324,165.035751 264.259705,165.012222 
	C260.724487,164.783508 260.562744,166.441238 262.008514,169.682602 
	C262.330994,170.459671 262.653503,171.236755 262.621887,172.547409 
	C262.231079,173.045425 261.840302,173.543457 261.449493,174.041473 
	C262.634644,174.358414 263.819794,174.675354 265.512604,174.994125 
	C265.681793,174.989960 265.850983,174.985809 266.784088,175.012695 
	C267.540833,176.336060 268.297577,177.659439 269.005371,179.006393 
	C269.005371,179.006393 268.979858,179.054337 268.188232,179.028427 
	C267.132294,179.032028 266.076324,179.035645 264.259705,179.012161 
	C260.724518,178.783539 260.562805,180.441299 262.005005,183.746613 
	C262.347260,184.842682 262.689514,185.938751 262.968201,187.660721 
	C263.647003,188.441086 264.325836,189.221451 265.799561,190.003952 
	C268.977356,189.628540 269.146515,191.686890 268.131653,193.989670 
	C265.893250,193.989670 263.654846,193.989670 261.022583,193.989670 
	C261.619629,197.463974 262.067810,200.072128 262.530182,202.762726 
	C267.122650,201.134369 270.048096,198.925705 269.744812,193.983963 
	C270.828064,194.321732 271.911285,194.659500 272.362457,195.277237 
	C271.582611,196.514374 270.802765,197.751495 270.023010,199.682007 
	C270.383301,200.289856 270.743591,200.897690 271.103882,201.505508 
	C271.392059,200.665710 271.680267,199.825912 272.063965,198.343155 
	C272.710449,197.893707 273.356964,197.444260 274.015167,197.507401 
	C274.017822,197.678284 274.020447,197.849182 273.703064,198.700684 
	C273.903748,200.078979 274.104431,201.457260 274.305145,202.835556 
	C275.541595,202.227066 276.778076,201.618576 278.707123,200.910889 
	C279.127167,199.942902 279.547180,198.974930 280.412903,197.783875 
	C280.692108,197.581635 280.883606,197.316147 280.793365,196.537231 
	C280.601044,196.252930 280.338928,196.066971 280.002136,195.996979 
M280.366241,184.531052 
	C280.156464,184.477524 279.946716,184.423996 279.736938,184.370483 
	C279.871399,184.501556 280.005890,184.632645 280.366241,184.531052 
M279.584442,156.517685 
	C279.584442,156.517685 279.472717,156.582932 279.584442,156.517685 
z"/>
<path fill="#786D5E" opacity="1.000000" stroke="none" 
	d="
M275.009338,236.106705 
	C283.789062,235.796005 283.956299,235.958328 283.964783,244.846024 
	C283.966064,246.176498 283.966278,247.507111 283.947968,248.837402 
	C283.856689,255.468246 279.709290,258.725586 273.405884,256.646515 
	C271.991730,256.180084 270.473419,253.961121 270.251373,252.374313 
	C269.772186,248.949417 270.102844,245.411224 270.470215,241.522247 
	C271.096344,241.641449 271.425507,242.135147 271.598328,242.678574 
	C272.028625,244.031845 272.387695,245.407745 272.775391,246.774567 
	C274.167419,245.870285 276.740448,244.951965 276.729919,244.064301 
	C276.698364,241.405334 275.656708,238.758362 275.009338,236.106705 
z"/>
<path fill="#4F2810" opacity="1.000000" stroke="none" 
	d="
M266.869263,207.237915 
	C268.805969,206.644135 270.539368,206.327515 272.669006,206.025803 
	C273.816376,206.760117 274.449554,207.713776 275.337769,208.160843 
	C281.069519,211.045914 284.805847,217.099152 283.817932,222.119308 
	C282.526337,228.683044 276.941772,233.671631 270.688904,233.847290 
	C265.466492,233.993973 259.575256,229.776382 258.104858,224.838287 
	C256.044403,217.918549 258.400604,212.303635 264.947632,208.527100 
	C265.523407,208.194992 266.093292,207.852646 266.869263,207.237915 
M260.093658,217.182938 
	C260.045990,218.513550 260.001099,219.844254 259.950073,221.174744 
	C259.783173,225.527634 261.867981,228.704727 265.725037,230.221359 
	C269.701416,231.784943 273.996857,232.010666 277.492706,228.906265 
	C280.591339,226.154572 282.305267,222.785004 281.301422,218.301453 
	C280.127197,213.056549 276.811951,210.400848 271.824158,209.453384 
	C267.537750,208.639175 263.250702,211.283813 260.093658,217.182938 
z"/>
<path fill="#7F5427" opacity="1.000000" stroke="none" 
	d="
M279.477783,132.850769 
	C280.268219,136.305466 281.974823,139.934280 281.213196,142.937073 
	C279.184937,150.934082 271.768860,153.251526 263.310028,148.942505 
	C262.904785,148.495087 262.774231,148.305573 262.215607,147.760773 
	C258.274231,142.135956 258.585266,137.026917 262.315582,132.021866 
	C262.534424,131.939056 262.714966,131.804764 263.304077,131.320740 
	C268.554504,127.952026 273.286957,128.629120 277.981689,131.292542 
	C278.410675,131.774841 278.839661,132.257141 279.477783,132.850769 
M263.069336,144.708557 
	C265.682220,149.211990 269.369171,150.171829 274.719177,147.933685 
	C280.444061,143.908890 280.600281,136.099274 274.447388,132.394745 
	C264.066071,131.042068 259.846802,135.308182 263.069336,144.708557 
z"/>
<path fill="#7F7463" opacity="1.000000" stroke="none" 
	d="
M274.940582,103.962875 
	C276.264801,103.942978 277.592896,103.980667 278.912476,103.892029 
	C282.407104,103.657303 284.215210,104.978333 283.942139,108.752396 
	C283.634521,113.003395 283.617371,117.275497 283.302948,121.525780 
	C283.265717,122.029144 282.152130,122.452896 280.912750,122.765305 
	C278.007477,120.569054 276.374115,116.481934 273.383484,119.747604 
	C272.026031,118.522842 271.115204,117.701073 270.204407,116.879303 
	C270.169769,116.178970 270.135132,115.478638 270.344971,114.404678 
	C270.589478,114.031052 271.028198,113.995865 271.350403,114.136543 
	C273.216309,113.878914 275.248901,113.966377 276.214874,112.994102 
	C279.532806,109.654640 276.959381,106.768845 274.940582,103.962875 
z"/>
<path fill="#976C47" opacity="1.000000" stroke="none" 
	d="
M265.948425,114.974220 
	C265.952148,115.136780 265.956116,115.299332 265.959625,115.461899 
	C266.142365,123.909019 266.142334,123.909019 257.452209,123.606506 
	C257.336273,120.412834 257.427917,117.557098 258.125977,114.858246 
	C258.417267,113.732162 259.998749,112.939812 261.254883,112.169968 
	C262.806000,112.344208 264.095886,112.344208 265.431458,112.344208 
	C265.510101,112.744331 265.729248,113.859276 265.948425,114.974220 
z"/>
<path fill="#71695B" opacity="1.000000" stroke="none" 
	d="
M260.993622,111.995728 
	C259.998749,112.939812 258.417267,113.732162 258.125977,114.858246 
	C257.427917,117.557098 257.336273,120.412834 256.998047,123.592056 
	C256.027130,122.233955 254.350296,120.533150 254.238281,118.734863 
	C254.014130,115.136490 254.758865,111.489037 254.897964,107.853981 
	C255.084549,102.978096 257.351929,103.044754 260.731812,105.861694 
	C260.861298,108.337578 260.927460,110.166649 260.993622,111.995728 
z"/>
<path fill="#956D4A" opacity="1.000000" stroke="none" 
	d="
M260.049194,236.260162 
	C262.527161,236.616013 266.918121,236.517487 267.130432,237.411514 
	C267.813507,240.287155 266.954437,243.529083 266.047638,246.667175 
	C263.923096,245.804993 262.441040,244.905365 260.681183,243.724838 
	C260.285309,241.049347 260.167236,238.654755 260.049194,236.260162 
z"/>
<path fill="#9A724F" opacity="1.000000" stroke="none" 
	d="
M274.548340,103.950264 
	C276.959381,106.768845 279.532806,109.654640 276.214874,112.994102 
	C275.248901,113.966377 273.216309,113.878914 271.334503,113.753815 
	C270.701324,111.825233 270.406281,110.420059 270.111237,109.014893 
	C269.839600,106.031929 270.331940,103.657639 274.548340,103.950264 
z"/>
<path fill="#9C6F48" opacity="1.000000" stroke="none" 
	d="
M261.254883,112.169968 
	C260.927460,110.166649 260.861298,108.337578 260.952515,106.167053 
	C263.074280,105.576485 265.038696,105.327377 267.003082,105.078270 
	C266.886932,108.265305 266.770752,111.452332 266.301514,114.806793 
	C265.729248,113.859276 265.510101,112.744331 265.431458,112.344208 
	C264.095886,112.344208 262.806000,112.344208 261.254883,112.169968 
z"/>
<path fill="#9B724E" opacity="1.000000" stroke="none" 
	d="
M274.635681,236.080017 
	C275.656708,238.758362 276.698364,241.405334 276.729919,244.064301 
	C276.740448,244.951965 274.167419,245.870285 272.775391,246.774567 
	C272.387695,245.407745 272.028625,244.031845 271.598328,242.678574 
	C271.425507,242.135147 271.096344,241.641449 270.530762,241.061646 
	C269.852234,237.947296 271.148865,236.258469 274.635681,236.080017 
z"/>
<path fill="#6B5F53" opacity="1.000000" stroke="none" 
	d="
M259.656738,236.166077 
	C260.167236,238.654755 260.285309,241.049347 260.690735,244.103424 
	C261.005737,245.519897 261.033386,246.276871 260.810547,247.016357 
	C260.393005,246.988266 260.225952,246.977676 259.936462,246.708282 
	C259.368713,245.879837 258.923340,245.310211 258.477997,244.740601 
	C258.315247,245.142426 258.152527,245.544266 257.608887,245.960159 
	C256.464142,245.991165 255.700287,246.008102 254.936447,246.025024 
	C252.948608,239.872574 254.279861,236.811035 259.656738,236.166077 
z"/>
<path fill="#956741" opacity="1.000000" stroke="none" 
	d="
M265.993927,251.007263 
	C266.443817,256.431976 263.207428,257.378204 258.359589,256.520416 
	C257.559906,254.422867 257.213837,252.722610 256.816620,250.771164 
	C258.219788,251.308609 259.112762,251.650620 260.054749,252.134079 
	C260.188660,252.326935 260.273529,252.378342 260.358398,252.429749 
	C260.236572,252.288330 260.114777,252.146896 259.994202,251.753952 
	C259.997803,251.334732 260.000122,251.167053 260.430328,251.000397 
	C262.570129,251.003342 264.282013,251.005295 265.993927,251.007263 
z"/>
<path fill="#625950" opacity="1.000000" stroke="none" 
	d="
M270.144775,117.305954 
	C271.115204,117.701073 272.026031,118.522842 273.383484,119.747604 
	C276.374115,116.481934 278.007477,120.569054 280.567932,122.793198 
	C273.307281,125.869759 270.299744,124.406395 270.144775,117.305954 
z"/>
<path fill="#46230F" opacity="1.000000" stroke="none" 
	d="
M277.975189,130.889099 
	C273.286957,128.629120 268.554504,127.952026 263.386932,131.171799 
	C265.255707,125.799271 273.869293,125.317787 277.975189,130.889099 
z"/>
<path fill="#7E7361" opacity="1.000000" stroke="none" 
	d="
M260.005737,251.992645 
	C259.112762,251.650620 258.219788,251.308609 256.816620,250.771164 
	C257.213837,252.722610 257.559906,254.422867 257.943695,256.475037 
	C253.744598,256.468201 255.234879,253.175720 255.101868,250.323395 
	C255.178238,249.556961 255.055466,249.283920 254.932678,249.010880 
	C254.926361,248.264053 254.920029,247.517227 254.925064,246.397720 
	C255.700287,246.008102 256.464142,245.991165 257.638977,246.264648 
	C258.353027,247.048798 258.656128,247.542526 258.993042,248.330627 
	C259.343903,249.092972 259.660980,249.560959 259.980560,250.271637 
	C259.983093,250.514343 260.002441,250.999390 260.002441,250.999390 
	C260.000122,251.167053 259.997803,251.334732 259.997742,251.751221 
	C260.000000,252.000000 260.005737,251.992645 260.005737,251.992645 
z"/>
<path fill="#46230F" opacity="1.000000" stroke="none" 
	d="
M261.919495,132.023132 
	C258.585266,137.026917 258.274231,142.135956 262.060974,147.674011 
	C257.870819,147.614899 257.912964,143.835220 257.704895,141.063736 
	C257.451721,137.691666 257.437012,133.828751 261.919495,132.023132 
z"/>
<path fill="#946038" opacity="1.000000" stroke="none" 
	d="
M261.061035,247.033859 
	C261.033386,246.276871 261.005737,245.519897 260.968536,244.384323 
	C262.441040,244.905365 263.923096,245.804993 265.702148,246.851135 
	C265.986603,247.166290 265.974060,247.334900 265.585327,247.752136 
	C263.826447,247.678467 262.443726,247.356155 261.061035,247.033859 
z"/>
<path fill="#956741" opacity="1.000000" stroke="none" 
	d="
M260.810547,247.016357 
	C262.443726,247.356155 263.826447,247.678467 265.571838,248.005402 
	C265.934509,248.010056 265.976654,248.501099 265.574738,248.751129 
	C263.441223,249.343750 261.709625,249.686340 259.978027,250.028931 
	C259.660980,249.560959 259.343903,249.092972 259.228455,248.211304 
	C259.639648,247.520767 259.849274,247.243927 260.058899,246.967087 
	C260.225952,246.977676 260.393005,246.988266 260.810547,247.016357 
z"/>
<path fill="#946038" opacity="1.000000" stroke="none" 
	d="
M259.980560,250.271637 
	C261.709625,249.686340 263.441223,249.343750 265.554321,248.996704 
	C266.081055,249.573318 266.226257,250.154404 266.182678,250.871368 
	C264.282013,251.005295 262.570129,251.003342 260.430328,251.000397 
	C260.002441,250.999390 259.983093,250.514343 259.980560,250.271637 
z"/>
<path fill="#625950" opacity="1.000000" stroke="none" 
	d="
M270.070496,109.433548 
	C270.406281,110.420059 270.701324,111.825233 271.012268,113.613129 
	C271.028198,113.995865 270.589478,114.031052 270.371948,114.054482 
	C270.112854,112.669342 270.071289,111.260773 270.070496,109.433548 
z"/>
<path fill="#6B5F53" opacity="1.000000" stroke="none" 
	d="
M254.927917,249.256378 
	C255.055466,249.283920 255.178238,249.556961 255.119171,249.911377 
	C254.937347,249.992767 254.923157,249.501892 254.927917,249.256378 
z"/>
<path fill="#45220C" opacity="1.000000" stroke="none" 
	d="
M195.097336,75.771912 
	C194.663284,76.076630 194.392746,76.254303 194.087738,76.758034 
	C192.853806,77.199806 191.696777,77.332825 190.591370,77.647301 
	C186.040802,78.941856 183.159103,76.977333 181.512695,72.899040 
	C179.827713,68.725220 181.267731,63.449055 185.080765,62.160057 
	C188.251160,61.088306 191.895187,61.329182 195.335907,61.240532 
	C195.853683,61.227192 196.884644,62.603069 196.863373,63.311863 
	C196.754578,66.936180 196.378586,70.552467 196.048615,74.586288 
	C195.662186,75.077835 195.393326,75.258873 195.097336,75.771912 
M184.394745,67.092834 
	C184.864960,69.496162 184.870636,72.176712 186.051697,74.155823 
	C186.477951,74.870087 190.785156,74.603111 191.474945,73.561340 
	C193.172348,70.997803 193.798325,67.724831 194.855179,64.737152 
	C194.264877,64.214447 193.674576,63.691746 193.084274,63.169044 
	C190.373734,64.264000 187.663177,65.358963 184.394745,67.092834 
z"/>
<path fill="#44220C" opacity="1.000000" stroke="none" 
	d="
M161.577515,32.071724 
	C167.578644,36.309246 169.032196,48.893890 164.496902,54.006107 
	C161.670227,57.192352 154.603714,58.212292 151.211349,55.656067 
	C150.402466,55.046558 150.071487,53.408981 150.040131,52.230446 
	C149.912262,47.423820 149.981171,42.611832 149.986588,37.801823 
	C149.992859,32.216557 152.301132,30.242804 157.825302,31.151272 
	C158.960693,31.337994 160.064987,31.713858 161.577515,32.071724 
M162.597855,51.902386 
	C162.971436,50.854389 163.407333,49.823978 163.708862,48.755646 
	C166.513428,38.818771 162.140991,32.921024 153.002762,34.644325 
	C153.002762,39.715382 153.163391,44.840096 152.947052,49.948853 
	C152.799591,53.431118 154.467346,54.436623 157.454041,53.952614 
	C159.003830,53.701462 160.479279,52.991554 162.597855,51.902386 
z"/>
<path fill="#45220C" opacity="1.000000" stroke="none" 
	d="
M262.999664,62.911613 
	C262.401703,66.778122 262.520538,70.559837 260.968750,73.442047 
	C259.827271,75.562119 256.304108,77.905495 254.197449,77.610756 
	C251.689026,77.259796 248.160126,74.573402 247.527969,72.235229 
	C245.582397,65.039131 244.708710,57.437870 247.935425,50.300758 
	C248.765961,48.463696 251.114243,46.640957 253.095657,46.152958 
	C256.094025,45.414501 259.959137,45.345551 261.007019,49.307274 
	C262.132721,53.563175 262.373230,58.053196 262.999664,62.911613 
M251.577225,73.926941 
	C254.574921,75.529945 258.266510,75.768875 258.711334,72.088058 
	C259.518433,65.409485 259.164429,58.545628 258.713654,51.797955 
	C258.623535,50.449047 255.796204,48.145313 254.478058,48.306183 
	C252.856735,48.504059 250.559418,50.611515 250.182755,52.264645 
	C248.585846,59.273254 248.041504,66.397476 251.577225,73.926941 
z"/>
<path fill="#1E1D1B" opacity="1.000000" stroke="none" 
	d="
M263.031738,187.034821 
	C262.689514,185.938751 262.347260,184.842682 262.267761,183.180603 
	C263.360474,181.422821 264.190430,180.231049 265.020386,179.039261 
	C266.076324,179.035645 267.132294,179.032028 268.584839,179.402725 
	C269.324341,180.852936 269.667267,181.928848 270.343689,182.999176 
	C271.309204,182.638306 271.941223,182.282990 272.573273,181.927673 
	C272.057648,181.617523 271.542023,181.307373 270.983856,180.677490 
	C270.312317,179.899445 269.683319,179.441132 269.054321,178.982819 
	C268.297577,177.659439 267.540833,176.336060 266.662109,174.717850 
	C268.359039,174.287704 270.177979,174.152405 272.014099,174.267639 
	C272.191711,174.781128 272.352081,175.044052 272.512451,175.306992 
	C272.675354,174.872131 272.838287,174.437286 272.930847,173.636536 
	C270.572845,172.180405 268.285217,171.090195 265.979248,169.699371 
	C265.543549,168.791153 265.126099,168.183533 264.708679,167.575912 
	C264.518494,167.702515 264.328278,167.829117 264.138092,167.955719 
	C264.426636,168.635925 264.715210,169.316132 265.003052,170.331528 
	C265.001587,171.113632 265.000793,171.560562 264.662811,172.005219 
	C263.875732,172.006592 263.425873,172.010208 262.975983,172.013824 
	C262.653503,171.236755 262.330994,170.459671 262.269531,169.148590 
	C263.360474,167.422852 264.190399,166.231125 265.020325,165.039398 
	C266.076324,165.035751 267.132324,165.032104 268.584900,165.402283 
	C269.322632,166.852051 269.663757,167.927948 270.339447,168.998795 
	C271.308655,168.638290 271.943298,168.282867 272.577942,167.927429 
	C272.059082,167.616104 271.540222,167.304779 270.978577,166.674469 
	C270.308746,165.897919 269.681641,165.440323 269.054535,164.982727 
	C268.774139,163.465103 268.493744,161.947479 268.198792,160.351135 
	C272.234009,158.641190 276.553406,152.927643 280.819336,160.760651 
	C280.571838,161.262939 280.424255,161.410324 280.450806,161.455658 
	C280.566559,161.653107 280.732971,161.820877 280.880951,161.999435 
	C280.606781,163.105942 280.332611,164.212463 279.726074,165.686432 
	C279.249634,166.724701 279.105530,167.395508 278.961426,168.066315 
	C279.099335,169.935898 279.237213,171.805496 279.687653,173.837631 
	C280.000214,174.000183 280.010651,174.008575 280.010651,174.008575 
	C280.010651,174.008575 280.029541,174.497223 280.105347,174.958374 
	C280.351257,175.693298 280.586761,175.887955 280.887634,176.003464 
	C280.611145,177.108810 280.334686,178.214172 279.726013,179.686722 
	C279.249664,180.724716 279.105560,181.395508 278.961456,182.066315 
	C278.365479,183.415955 277.769531,184.765610 277.310822,185.804382 
	C278.698914,187.140808 279.851990,188.251007 280.822327,189.760910 
	C280.570770,190.265335 280.419464,190.420197 280.447357,190.466064 
	C280.570984,190.669342 280.746002,190.841354 280.902466,191.024658 
	C280.616028,192.434097 280.329590,193.843552 279.776276,195.624573 
	C279.337555,196.001511 279.165741,196.006851 278.635071,195.941986 
	C277.627716,194.235260 276.979187,192.598740 275.984680,190.089279 
	C275.132141,192.155319 274.548584,193.569458 273.722443,194.989136 
	C273.479858,194.994690 272.994537,194.997269 272.994537,194.997269 
	C271.911285,194.659500 270.828064,194.321732 269.372406,193.991974 
	C269.000000,194.000000 269.019653,193.984695 269.019653,193.984695 
	C269.146515,191.686890 268.977356,189.628540 265.397156,189.645416 
	C264.340424,188.536209 263.686096,187.785507 263.031738,187.034821 
M265.066528,184.570251 
	C265.491211,184.878235 265.915924,185.186218 266.340607,185.494202 
	C266.227875,184.996460 266.115173,184.498718 265.962891,183.399689 
	C265.544922,182.791718 265.126953,182.183746 264.708984,181.575790 
	C264.520203,181.701477 264.331421,181.827179 264.142639,181.952866 
	C264.428833,182.634644 264.715027,183.316406 265.066528,184.570251 
M271.813599,187.483597 
	C271.302063,187.041946 270.790497,186.600296 270.278961,186.158646 
	C270.068390,186.475632 269.857819,186.792618 269.647247,187.109589 
	C270.192352,187.319794 270.737427,187.529984 271.813599,187.483597 
M272.590515,190.517105 
	C272.590515,190.517105 272.477051,190.585373 272.590515,190.517105 
M276.600677,178.516708 
	C276.600677,178.516708 276.475647,178.595123 276.600677,178.516708 
M272.409576,161.482147 
	C272.409576,161.482147 272.523773,161.413254 272.409576,161.482147 
M276.482697,161.600998 
	C276.482697,161.600998 276.406921,161.478317 276.482697,161.600998 
M276.481445,164.599182 
	C276.481445,164.599182 276.404419,164.474182 276.481445,164.599182 
M276.519470,175.402954 
	C276.519470,175.402954 276.595581,175.526108 276.519470,175.402954 
z"/>
<path fill="#34221B" opacity="1.000000" stroke="none" 
	d="
M269.007629,193.990173 
	C270.048096,198.925705 267.122650,201.134369 262.530182,202.762726 
	C262.067810,200.072128 261.619629,197.463974 261.022583,193.989670 
	C263.654846,193.989670 265.893250,193.989670 268.575653,193.987183 
	C269.019653,193.984695 269.000000,194.000000 269.007629,193.990173 
z"/>
<path fill="#34221B" opacity="1.000000" stroke="none" 
	d="
M273.965027,194.983582 
	C274.548584,193.569458 275.132141,192.155319 275.984680,190.089279 
	C276.979187,192.598740 277.627716,194.235260 278.636353,196.270691 
	C278.995148,197.107971 278.993896,197.546356 278.649719,198.039307 
	C277.889252,199.054291 277.471710,200.014725 276.787598,200.819733 
	C275.688354,199.782898 274.855713,198.901489 274.023102,198.020065 
	C274.020447,197.849182 274.017822,197.678284 274.236267,197.104218 
	C274.293274,196.128555 274.129150,195.556061 273.965027,194.983582 
z"/>
<path fill="#28201B" opacity="1.000000" stroke="none" 
	d="
M271.996918,174.017090 
	C270.177979,174.152405 268.359039,174.287704 266.280121,174.702332 
	C265.850983,174.985809 265.681793,174.989960 265.256531,174.620178 
	C265.000275,173.499985 265.000122,172.753738 265.000000,172.007477 
	C265.000793,171.560562 265.001587,171.113632 265.251495,170.332977 
	C265.500610,169.999237 265.997559,170.000000 265.997559,170.000000 
	C268.285217,171.090195 270.572845,172.180405 272.679749,173.638611 
	C272.331635,174.010117 272.164276,174.013596 271.996918,174.017090 
z"/>
<path fill="#2D2019" opacity="1.000000" stroke="none" 
	d="
M273.863098,198.360382 
	C274.855713,198.901489 275.688354,199.782898 277.027374,200.827393 
	C277.533783,200.990448 278.014526,201.010101 278.014526,201.010101 
	C276.778076,201.618576 275.541595,202.227066 274.305145,202.835556 
	C274.104431,201.457260 273.903748,200.078979 273.863098,198.360382 
z"/>
<path fill="#2D2019" opacity="1.000000" stroke="none" 
	d="
M273.722443,194.989136 
	C274.129150,195.556061 274.293274,196.128555 274.230408,196.847931 
	C273.356964,197.444260 272.710449,197.893707 271.692230,198.669067 
	C270.887970,198.992859 270.455444,198.990738 270.022919,198.988632 
	C270.802765,197.751495 271.582611,196.514374 272.678497,195.137253 
	C272.994537,194.997269 273.479858,194.994690 273.722443,194.989136 
z"/>
<path fill="#32221B" opacity="1.000000" stroke="none" 
	d="
M264.662811,172.005219 
	C265.000122,172.753738 265.000275,173.499985 265.002686,174.619263 
	C263.819794,174.675354 262.634644,174.358414 261.449493,174.041473 
	C261.840302,173.543457 262.231079,173.045425 262.798950,172.280609 
	C263.425873,172.010208 263.875732,172.006592 264.662811,172.005219 
z"/>
<path fill="#32221B" opacity="1.000000" stroke="none" 
	d="
M264.640045,179.025711 
	C264.190430,180.231049 263.360474,181.422821 262.278046,182.811035 
	C260.562805,180.441299 260.724518,178.783539 264.640045,179.025711 
z"/>
<path fill="#1E1D1B" opacity="1.000000" stroke="none" 
	d="
M278.360840,200.960495 
	C278.014526,201.010101 277.533783,200.990448 277.294006,200.982803 
	C277.471710,200.014725 277.889252,199.054291 278.893372,198.046844 
	C279.479950,197.999847 279.967224,198.006943 279.967224,198.006943 
	C279.547180,198.974930 279.127167,199.942902 278.360840,200.960495 
z"/>
<path fill="#32221B" opacity="1.000000" stroke="none" 
	d="
M264.640015,165.025818 
	C264.190399,166.231125 263.360474,167.422852 262.278076,168.811005 
	C260.562744,166.441238 260.724487,164.783508 264.640015,165.025818 
z"/>
<path fill="#72311B" opacity="1.000000" stroke="none" 
	d="
M262.999969,187.347778 
	C263.686096,187.785507 264.340424,188.536209 264.999695,189.644363 
	C264.325836,189.221451 263.647003,188.441086 262.999969,187.347778 
z"/>
<path fill="#34221B" opacity="1.000000" stroke="none" 
	d="
M270.022949,199.335327 
	C270.455444,198.990738 270.887970,198.992859 271.644470,198.990540 
	C271.680267,199.825912 271.392059,200.665710 271.103882,201.505524 
	C270.743591,200.897690 270.383301,200.289856 270.022949,199.335327 
z"/>
<path fill="#73311B" opacity="1.000000" stroke="none" 
	d="
M279.213013,181.891815 
	C279.105560,181.395508 279.249664,180.724716 279.696289,180.031738 
	C279.820709,180.578812 279.642609,181.148071 279.213013,181.891815 
z"/>
<path fill="#73311B" opacity="1.000000" stroke="none" 
	d="
M279.212982,167.891815 
	C279.105530,167.395508 279.249634,166.724701 279.696259,166.031738 
	C279.820709,166.578827 279.642639,167.148071 279.212982,167.891815 
z"/>
<path fill="#2D2019" opacity="1.000000" stroke="none" 
	d="
M280.190063,197.895416 
	C279.967224,198.006943 279.479950,197.999847 279.236328,197.992294 
	C278.993896,197.546356 278.995148,197.107971 278.995148,196.340897 
	C279.165741,196.006851 279.337555,196.001511 279.767487,195.989624 
	C280.025574,195.983093 280.002136,195.996979 280.107422,196.209106 
	C280.408112,196.695923 280.666382,196.884659 280.987427,196.987411 
	C280.883606,197.316147 280.692108,197.581635 280.190063,197.895416 
z"/>
<path fill="#2F211A" opacity="1.000000" stroke="none" 
	d="
M280.253296,184.647400 
	C280.005890,184.632645 279.871399,184.501556 279.736938,184.370483 
	C279.946716,184.423996 280.156464,184.477524 280.253296,184.647400 
z"/>
<path fill="#201E1B" opacity="1.000000" stroke="none" 
	d="
M279.528564,156.550308 
	C279.472717,156.582932 279.584442,156.517685 279.528564,156.550308 
z"/>
<path fill="#2F211A" opacity="1.000000" stroke="none" 
	d="
M280.931580,190.766663 
	C280.746002,190.841354 280.570984,190.669342 280.447357,190.466064 
	C280.419464,190.420197 280.570770,190.265335 280.809204,190.075195 
	C280.972717,190.162735 280.966675,190.335709 280.931580,190.766663 
z"/>
<path fill="#1E1D1B" opacity="1.000000" stroke="none" 
	d="
M280.890381,196.762329 
	C280.666382,196.884659 280.408112,196.695923 280.109863,196.200302 
	C280.338928,196.066971 280.601044,196.252930 280.890381,196.762329 
z"/>
<path fill="#291F1A" opacity="1.000000" stroke="none" 
	d="
M280.809509,175.782852 
	C280.586761,175.887955 280.351257,175.693298 280.094299,175.202637 
	C280.313171,175.097153 280.554474,175.289307 280.809509,175.782852 
z"/>
<path fill="#291F1A" opacity="1.000000" stroke="none" 
	d="
M280.914001,161.749451 
	C280.732971,161.820877 280.566559,161.653107 280.450806,161.455658 
	C280.424255,161.410324 280.571838,161.262939 280.802856,161.079041 
	C280.959961,161.163544 280.953491,161.331512 280.914001,161.749451 
z"/>
<path fill="#1E1D1B" opacity="1.000000" stroke="none" 
	d="
M279.996216,173.995209 
	C280.096466,173.961868 280.200684,173.933517 280.157776,173.956879 
	C280.010651,174.008575 280.000214,174.000183 279.996216,173.995209 
z"/>
<path fill="#82582A" opacity="1.000000" stroke="none" 
	d="
M260.210876,216.792145 
	C263.250702,211.283813 267.537750,208.639175 271.824158,209.453384 
	C276.811951,210.400848 280.127197,213.056549 281.301422,218.301453 
	C282.305267,222.785004 280.591339,226.154572 277.492706,228.906265 
	C273.996857,232.010666 269.701416,231.784943 265.725037,230.221359 
	C261.867981,228.704727 259.783173,225.527634 259.950073,221.174744 
	C260.001099,219.844254 260.045990,218.513550 260.210876,216.792145 
M274.557098,228.713593 
	C275.698456,227.468430 276.839813,226.223251 278.554871,224.427109 
	C278.703552,222.626755 279.039764,220.818436 278.963898,219.027603 
	C278.776398,214.602234 275.570435,211.989517 270.570404,211.980347 
	C265.547180,211.971130 262.323334,214.563385 261.986450,218.882523 
	C261.408600,226.291885 264.825439,229.164902 274.557098,228.713593 
z"/>
<path fill="#9F7045" opacity="1.000000" stroke="none" 
	d="
M275.018829,132.952240 
	C280.600281,136.099274 280.444061,143.908890 274.357849,147.655365 
	C272.111816,143.848038 270.670654,148.755356 268.228577,146.963730 
	C267.631653,146.410385 266.327515,145.201477 264.975281,143.618225 
	C263.064423,139.287033 264.375610,136.794739 268.559875,135.225220 
	C268.745361,136.181717 268.697479,136.922989 269.023254,137.418716 
	C269.813385,138.621109 270.777435,139.709244 271.671387,140.843430 
	C272.448029,139.589630 273.382965,138.403458 273.955811,137.062592 
	C274.505493,135.775925 274.679657,134.328842 275.018829,132.952240 
z"/>
<path fill="#9B6031" opacity="1.000000" stroke="none" 
	d="
M274.733093,132.673492 
	C274.679657,134.328842 274.505493,135.775925 273.955811,137.062592 
	C273.382965,138.403458 272.448029,139.589630 271.671387,140.843430 
	C270.777435,139.709244 269.813385,138.621109 269.023254,137.418716 
	C268.697479,136.922989 268.745361,136.181717 268.559875,135.225220 
	C264.375610,136.794739 263.064423,139.287033 264.634827,143.619446 
	C263.888824,143.992615 263.435242,143.990189 262.981628,143.987762 
	C259.846802,135.308182 264.066071,131.042068 274.733093,132.673492 
z"/>
<path fill="#8D6F4F" opacity="1.000000" stroke="none" 
	d="
M263.025482,144.348160 
	C263.435242,143.990189 263.888824,143.992615 264.682922,143.993805 
	C266.327515,145.201477 267.631653,146.410385 268.228577,146.963730 
	C270.670654,148.755356 272.111816,143.848038 273.997742,147.699234 
	C269.369171,150.171829 265.682220,149.211990 263.025482,144.348160 
z"/>
<path fill="#946038" opacity="1.000000" stroke="none" 
	d="
M259.936462,246.708282 
	C259.849274,247.243927 259.639648,247.520767 259.194641,247.916931 
	C258.656128,247.542526 258.353027,247.048798 258.019867,246.250580 
	C258.152527,245.544266 258.315247,245.142426 258.477997,244.740601 
	C258.923340,245.310211 259.368713,245.879837 259.936462,246.708282 
z"/>
<path fill="#7E7361" opacity="1.000000" stroke="none" 
	d="
M259.996460,252.002747 
	C260.114777,252.146896 260.236572,252.288330 260.358398,252.429749 
	C260.273529,252.378342 260.188660,252.326935 260.054749,252.134079 
	C260.005737,251.992645 260.000000,252.000000 259.996460,252.002747 
z"/>
<path fill="#FFFFFF" opacity="1.000000" stroke="none" 
	d="
M184.673691,66.773376 
	C187.663177,65.358963 190.373734,64.264000 193.084274,63.169044 
	C193.674576,63.691746 194.264877,64.214447 194.855179,64.737152 
	C193.798325,67.724831 193.172348,70.997803 191.474945,73.561340 
	C190.785156,74.603111 186.477951,74.870087 186.051697,74.155823 
	C184.870636,72.176712 184.864960,69.496162 184.673691,66.773376 
z"/>
<path fill="#FFFFFF" opacity="1.000000" stroke="none" 
	d="
M162.293091,52.195633 
	C160.479279,52.991554 159.003830,53.701462 157.454041,53.952614 
	C154.467346,54.436623 152.799591,53.431118 152.947052,49.948853 
	C153.163391,44.840096 153.002762,39.715382 153.002762,34.644325 
	C162.140991,32.921024 166.513428,38.818771 163.708862,48.755646 
	C163.407333,49.823978 162.971436,50.854389 162.293091,52.195633 
z"/>
<path fill="#FFFFFF" opacity="1.000000" stroke="none" 
	d="
M251.312668,73.607162 
	C248.041504,66.397476 248.585846,59.273254 250.182755,52.264645 
	C250.559418,50.611515 252.856735,48.504059 254.478058,48.306183 
	C255.796204,48.145313 258.623535,50.449047 258.713654,51.797955 
	C259.164429,58.545628 259.518433,65.409485 258.711334,72.088058 
	C258.266510,75.768875 254.574921,75.529945 251.312668,73.607162 
z"/>
<path fill="#32221B" opacity="1.000000" stroke="none" 
	d="
M269.029846,178.994598 
	C269.683319,179.441132 270.312317,179.899445 270.733948,180.842957 
	C270.354431,181.887039 270.182312,182.445892 270.010162,183.004761 
	C269.667267,181.928848 269.324341,180.852936 268.980652,179.415680 
	C268.979858,179.054337 269.005371,179.006393 269.029846,178.994598 
z"/>
<path fill="#28201B" opacity="1.000000" stroke="none" 
	d="
M271.021362,166.993454 
	C271.540222,167.304779 272.059082,167.616104 272.577942,167.927429 
	C271.943298,168.282867 271.308655,168.638290 270.360657,168.698608 
	C270.372009,167.933487 270.696686,167.463470 271.021362,166.993454 
z"/>
<path fill="#32221B" opacity="1.000000" stroke="none" 
	d="
M270.978577,166.674469 
	C270.696686,167.463470 270.372009,167.933487 270.026123,168.703674 
	C269.663757,167.927948 269.322632,166.852051 268.980774,165.415253 
	C268.980011,165.054367 269.004700,165.006622 269.029602,164.994675 
	C269.681641,165.440323 270.308746,165.897919 270.978577,166.674469 
z"/>
<path fill="#241F1B" opacity="1.000000" stroke="none" 
	d="
M270.343689,182.999176 
	C270.182312,182.445892 270.354431,181.887039 270.776489,181.162689 
	C271.542023,181.307373 272.057648,181.617523 272.573273,181.927673 
	C271.941223,182.282990 271.309204,182.638306 270.343689,182.999176 
z"/>
<path fill="#241F1B" opacity="1.000000" stroke="none" 
	d="
M271.548035,187.611877 
	C270.737427,187.529984 270.192352,187.319794 269.647247,187.109589 
	C269.857819,186.792618 270.068390,186.475632 270.278961,186.158646 
	C270.790497,186.600296 271.302063,187.041946 271.548035,187.611877 
z"/>
<path fill="#32221B" opacity="1.000000" stroke="none" 
	d="
M265.001221,183.998169 
	C264.715027,183.316406 264.428833,182.634644 264.142639,181.952866 
	C264.331421,181.827179 264.520203,181.701477 264.708984,181.575790 
	C265.126953,182.183746 265.544922,182.791718 265.732361,183.700241 
	C265.334930,183.999924 265.168060,183.999039 265.001221,183.998169 
z"/>
<path fill="#241F1B" opacity="1.000000" stroke="none" 
	d="
M265.033875,184.284210 
	C265.168060,183.999039 265.334930,183.999924 265.752136,184.000885 
	C266.115173,184.498718 266.227875,184.996460 266.340607,185.494202 
	C265.915924,185.186218 265.491211,184.878235 265.033875,184.284210 
z"/>
<path fill="#32221B" opacity="1.000000" stroke="none" 
	d="
M265.979248,169.699387 
	C265.997559,170.000000 265.500610,169.999237 265.252197,169.997787 
	C264.715210,169.316132 264.426636,168.635925 264.138092,167.955719 
	C264.328278,167.829117 264.518494,167.702515 264.708679,167.575912 
	C265.126099,168.183533 265.543549,168.791153 265.979248,169.699387 
z"/>
<path fill="#201E1B" opacity="1.000000" stroke="none" 
	d="
M272.014099,174.267639 
	C272.164276,174.013596 272.331635,174.010117 272.750122,174.004532 
	C272.838287,174.437286 272.675354,174.872131 272.512451,175.306992 
	C272.352081,175.044052 272.191711,174.781128 272.014099,174.267639 
z"/>
<path fill="#1F1E1B" opacity="1.000000" stroke="none" 
	d="
M272.533783,190.551239 
	C272.477051,190.585373 272.590515,190.517105 272.533783,190.551239 
z"/>
<path fill="#291F1A" opacity="1.000000" stroke="none" 
	d="
M276.538147,178.555908 
	C276.475647,178.595123 276.600677,178.516708 276.538147,178.555908 
z"/>
<path fill="#201E1B" opacity="1.000000" stroke="none" 
	d="
M272.466675,161.447693 
	C272.523773,161.413254 272.409576,161.482147 272.466675,161.447693 
z"/>
<path fill="#291F1A" opacity="1.000000" stroke="none" 
	d="
M276.444824,161.539658 
	C276.406921,161.478317 276.482697,161.600998 276.444824,161.539658 
z"/>
<path fill="#291F1A" opacity="1.000000" stroke="none" 
	d="
M276.442932,164.536682 
	C276.404419,164.474182 276.481445,164.599182 276.442932,164.536682 
z"/>
<path fill="#291F1A" opacity="1.000000" stroke="none" 
	d="
M276.557526,175.464539 
	C276.595581,175.526108 276.519470,175.402954 276.557526,175.464539 
z"/>
<path fill="#907251" opacity="1.000000" stroke="none" 
	d="
M273.962494,228.952515 
	C264.825439,229.164902 261.408600,226.291885 261.986450,218.882523 
	C262.323334,214.563385 265.547180,211.971130 270.570404,211.980347 
	C275.570435,211.989517 278.776398,214.602234 278.963898,219.027603 
	C279.039764,220.818436 278.703552,222.626755 277.961700,224.669373 
	C275.802246,224.374283 274.235992,223.836945 273.162537,223.468674 
	C273.485626,221.840866 274.001831,220.261642 273.984802,218.688171 
	C273.979889,218.230530 271.880310,217.248093 271.710968,217.426575 
	C270.390564,218.818222 268.662323,220.290146 268.276917,222.009964 
	C267.302612,226.357590 271.410675,227.141190 273.962494,228.952515 
z"/>
<path fill="#806549" opacity="1.000000" stroke="none" 
	d="
M274.259796,228.833054 
	C271.410675,227.141190 267.302612,226.357590 268.276917,222.009964 
	C268.662323,220.290146 270.390564,218.818222 271.710968,217.426575 
	C271.880310,217.248093 273.979889,218.230530 273.984802,218.688171 
	C274.001831,220.261642 273.485626,221.840866 273.162537,223.468674 
	C274.235992,223.836945 275.802246,224.374283 277.674866,224.944855 
	C276.839813,226.223251 275.698456,227.468430 274.259796,228.833054 
z"/>
</svg>