<?xml version="1.0" encoding="UTF-8"?>
<svg version="1.1" xmlns="http://www.w3.org/2000/svg" width="500" height="500">
<path d="M0 0 C1.70884005 1.62339805 3.37446717 3.29319053 5 5 C6.65520622 6.32692366 8.32319561 7.6379766 10 8.9375 C16.17021474 13.84061707 20.64393434 17.86360606 22 26 C22.0862683 32.68579287 21.00741093 37.6216327 17 43 C11.01075066 48.46591688 4.90926386 50.28296024 -3.1875 50.1875 C-4.39792969 50.18105469 -5.60835938 50.17460937 -6.85546875 50.16796875 C-10 50 -10 50 -13 49 C-16.27868432 48.60280256 -19.55606323 48.23860219 -22.84375 47.92578125 C-27.73494752 47.38333641 -31.55780176 46.12806879 -36 44 C-32.33482479 51.70519789 -28.28805243 58.98633569 -23.734375 66.1875 C-22 69 -22 69 -20 73 C-7.13 73.495 -7.13 73.495 6 74 C5.505 65.09 5.505 65.09 5 56 C6.670625 55.62875 8.34125 55.2575 10.0625 54.875 C15.764352 53.35008609 18.85911957 51.14088043 23 47 C26.67956291 48.56232021 29.16515793 50.83584082 32.0625 53.5625 C35.77478591 57.01462571 39.54816138 60.31925184 43.5 63.5 C48.25595419 67.33719031 52.75504801 71.39385101 57.25 75.53125 C59.93737634 77.94378104 62.68965444 80.2325621 65.5 82.5 C70.25595419 86.33719031 74.75504801 90.39385101 79.25 94.53125 C81.93737634 96.94378104 84.68965444 99.2325621 87.5 101.5 C92.25595419 105.33719031 96.75504801 109.39385101 101.25 113.53125 C103.93737634 115.94378104 106.68965444 118.2325621 109.5 120.5 C114.25595419 124.33719031 118.75504801 128.39385101 123.25 132.53125 C125.93737634 134.94378104 128.68965444 137.2325621 131.5 139.5 C136.25595419 143.33719031 140.75504801 147.39385101 145.25 151.53125 C147.93737634 153.94378104 150.68965444 156.2325621 153.5 158.5 C158.25595419 162.33719031 162.75504801 166.39385101 167.25 170.53125 C169.93737634 172.94378104 172.68965444 175.2325621 175.5 177.5 C180.25595419 181.33719031 184.75504801 185.39385101 189.25 189.53125 C191.93737634 191.94378104 194.68965444 194.2325621 197.5 196.5 C202.25595419 200.33719031 206.75504801 204.39385101 211.25 208.53125 C213.93737634 210.94378104 216.68965444 213.2325621 219.5 215.5 C224.25595419 219.33719031 228.75504801 223.39385101 233.25 227.53125 C235.93737634 229.94378104 238.68965444 232.2325621 241.5 234.5 C245.28460334 237.55348679 248.92207537 240.70668301 252.5 244 C256.9698512 248.11378909 261.59044893 251.97087297 266.31640625 255.78515625 C268.94708557 257.95632827 271.47942424 260.20241357 274 262.5 C278.35487072 266.46715568 282.85980415 270.20768944 287.4375 273.9140625 C290.67739086 276.55141268 293.84317799 279.26408759 297 282 C295.46101854 286.61694437 291.54018617 287.93126208 287.43676758 290.08081055 C260.15136579 303.56913638 217.20529675 300.15708051 187.40234375 300.16796875 C185.27275065 300.17119869 183.14315775 300.17456391 181.01356506 300.17805481 C176.57210783 300.18399391 172.13066989 300.18590039 167.68920898 300.18530273 C163.21488363 300.1852219 158.74066159 300.19210407 154.26635742 300.20581055 C47.0582564 300.5291282 47.0582564 300.5291282 26 290 C25.08200698 287.24602095 24.75011691 285.12922695 24.51025391 282.26147461 C24.38281799 280.77345337 24.38281799 280.77345337 24.25280762 279.25537109 C24.16164673 278.14887207 24.07048584 277.04237305 23.9765625 275.90234375 C23.82362732 274.1073645 23.82362732 274.1073645 23.66760254 272.27612305 C23.43958223 269.59938483 23.21279683 266.92257085 22.987854 264.24557495 C22.34576999 256.61076876 21.68890033 248.97722864 21.03125 241.34375 C20.95763371 240.48822981 20.88401741 239.63270962 20.80817032 238.75126457 C19.30446726 221.29870519 17.73457973 203.85218651 16.15625 186.40625 C16.03089522 185.0201323 15.905543 183.63401436 15.78019333 182.24789619 C14.5796652 168.97431652 13.37650808 155.70097642 12.16979432 142.42795765 C11.62452412 136.42932604 11.08099808 130.43053753 10.53797913 124.43170166 C10.31080651 121.92615676 10.08295976 119.42067288 9.85441589 116.91525269 C9.53952245 113.46309509 9.22679041 110.01074809 8.91455078 106.55834961 C8.77438506 105.03113486 8.77438506 105.03113486 8.63138771 103.47306728 C8.54751493 102.54089414 8.46364216 101.60872099 8.37722778 100.64830017 C8.30390291 99.84193587 8.23057804 99.03557158 8.1550312 98.204772 C8.00991212 96.14096499 8 94.06890283 8 92 C0.08 92 -7.84 92 -16 92 C-16 152.06 -16 212.12 -16 274 C-11.38 274 -6.76 274 -2 274 C3.25 274.8125 3.25 274.8125 7 276 C9.29013653 279.4352048 9.17842973 280.985331 9 285 C12.63 285.33 16.26 285.66 20 286 C21 290 21 290 20 292 C-15.64 292 -51.28 292 -88 292 C-88 291.34 -88 290.68 -88 290 C-89.09699219 290.05800781 -90.19398437 290.11601562 -91.32421875 290.17578125 C-92.77860314 290.22269688 -94.23303374 290.26819511 -95.6875 290.3125 C-96.40873047 290.35439453 -97.12996094 290.39628906 -97.87304688 290.43945312 C-102.06020122 290.53505026 -103.55508577 290.34662599 -106.98828125 287.671875 C-109 285 -109 285 -109.5 281.9375 C-108.95255192 278.72124253 -108.2924309 277.2924309 -106 275 C-103 274 -103 274 -92 274 C-92 213.28 -92 152.56 -92 90 C-95.96 90 -99.92 90 -104 90 C-109 87 -109 87 -110.0625 83.625 C-110 80 -110 80 -108.25 77.125 C-104.75264946 73.82194672 -101.9291416 73.88318657 -97.3125 73.9375 C-96.31863281 73.94652344 -95.32476562 73.95554687 -94.30078125 73.96484375 C-93.54152344 73.97644531 -92.78226563 73.98804688 -92 74 C-92.01047363 73.12899658 -92.02094727 72.25799316 -92.03173828 71.3605957 C-92.06625338 68.06352989 -92.09110586 64.76666184 -92.10986328 61.46948242 C-92.11979131 60.05473765 -92.13333825 58.64001266 -92.15087891 57.2253418 C-92.37318924 38.80627714 -90.67824601 21.31122225 -78 7 C-57.69850185 -12.98856562 -23.17250938 -16.80884676 0 0 Z " fill="#F08D01" transform="translate(187,112)"/>
<path d="M0 0 C1.70884005 1.62339805 3.37446717 3.29319053 5 5 C6.65520622 6.32692366 8.32319561 7.6379766 10 8.9375 C16.17021474 13.84061707 20.64393434 17.86360606 22 26 C22.0862683 32.68579287 21.00741093 37.6216327 17 43 C11.01075066 48.46591688 4.90926386 50.28296024 -3.1875 50.1875 C-4.39792969 50.18105469 -5.60835938 50.17460937 -6.85546875 50.16796875 C-10 50 -10 50 -13 49 C-16.27868432 48.60280256 -19.55606323 48.23860219 -22.84375 47.92578125 C-27.73494752 47.38333641 -31.55780176 46.12806879 -36 44 C-32.33482479 51.70519789 -28.28805243 58.98633569 -23.734375 66.1875 C-22.3519416 68.4292839 -21.15367408 70.63958031 -20 73 C-19.2886792 73.02505615 -18.5773584 73.0501123 -17.84448242 73.07592773 C-14.62530483 73.19188439 -11.40642015 73.31461245 -8.1875 73.4375 C-7.06794922 73.47681641 -5.94839844 73.51613281 -4.79492188 73.55664062 C-3.72177734 73.59853516 -2.64863281 73.64042969 -1.54296875 73.68359375 C-0.55321045 73.72025146 0.43654785 73.75690918 1.45629883 73.79467773 C4 74 4 74 7 75 C7.99 83.415 7.99 83.415 9 92 C0.75 92 -7.5 92 -16 92 C-16 152.06 -16 212.12 -16 274 C-11.38 274 -6.76 274 -2 274 C3.25 274.8125 3.25 274.8125 7 276 C9.29013653 279.4352048 9.17842973 280.985331 9 285 C12.63 285.33 16.26 285.66 20 286 C21 290 21 290 20 292 C-15.64 292 -51.28 292 -88 292 C-88 291.34 -88 290.68 -88 290 C-89.09699219 290.05800781 -90.19398437 290.11601562 -91.32421875 290.17578125 C-92.77860314 290.22269688 -94.23303374 290.26819511 -95.6875 290.3125 C-96.40873047 290.35439453 -97.12996094 290.39628906 -97.87304688 290.43945312 C-102.06020122 290.53505026 -103.55508577 290.34662599 -106.98828125 287.671875 C-109 285 -109 285 -109.5 281.9375 C-108.95255192 278.72124253 -108.2924309 277.2924309 -106 275 C-103 274 -103 274 -92 274 C-92 213.28 -92 152.56 -92 90 C-95.96 90 -99.92 90 -104 90 C-109 87 -109 87 -110.0625 83.625 C-110 80 -110 80 -108.25 77.125 C-104.75264946 73.82194672 -101.9291416 73.88318657 -97.3125 73.9375 C-96.31863281 73.94652344 -95.32476562 73.95554687 -94.30078125 73.96484375 C-93.54152344 73.97644531 -92.78226563 73.98804688 -92 74 C-92.01047363 73.12899658 -92.02094727 72.25799316 -92.03173828 71.3605957 C-92.06625338 68.06352989 -92.09110586 64.76666184 -92.10986328 61.46948242 C-92.11979131 60.05473765 -92.13333825 58.64001266 -92.15087891 57.2253418 C-92.37318924 38.80627714 -90.67824601 21.31122225 -78 7 C-57.69850185 -12.98856562 -23.17250938 -16.80884676 0 0 Z " fill="#970064" transform="translate(187,112)"/>
<path d="M0 0 C1.70884005 1.62339805 3.37446717 3.29319053 5 5 C6.65520622 6.32692366 8.32319561 7.6379766 10 8.9375 C16.17021474 13.84061707 20.64393434 17.86360606 22 26 C22.0862683 32.68579287 21.00741093 37.6216327 17 43 C11.01075066 48.46591688 4.90926386 50.28296024 -3.1875 50.1875 C-4.39792969 50.18105469 -5.60835938 50.17460937 -6.85546875 50.16796875 C-10 50 -10 50 -13 49 C-16.27868432 48.60280256 -19.55606323 48.23860219 -22.84375 47.92578125 C-27.73494752 47.38333641 -31.55780176 46.12806879 -36 44 C-32.33482479 51.70519789 -28.28805243 58.98633569 -23.734375 66.1875 C-22.3519416 68.4292839 -21.15367408 70.63958031 -20 73 C-19.2886792 73.02505615 -18.5773584 73.0501123 -17.84448242 73.07592773 C-14.62530483 73.19188439 -11.40642015 73.31461245 -8.1875 73.4375 C-7.06794922 73.47681641 -5.94839844 73.51613281 -4.79492188 73.55664062 C-3.72177734 73.59853516 -2.64863281 73.64042969 -1.54296875 73.68359375 C-0.55321045 73.72025146 0.43654785 73.75690918 1.45629883 73.79467773 C4 74 4 74 7 75 C7.495 80.94 7.495 80.94 8 87 C-0.58 87 -9.16 87 -18 87 C-18.99 83.7 -19.98 80.4 -21 77 C-22.17029203 74.47517927 -23.336129 72.10236015 -24.6875 69.6875 C-25.20534058 68.73447998 -25.20534058 68.73447998 -25.73364258 67.76220703 C-28.06385913 63.52573729 -30.58612009 59.44950983 -33.1875 55.375 C-39.29303129 45.53630362 -43.7583734 35.78448326 -42 24 C-40.38713063 17.70768725 -36.82334186 14.52749423 -31.35546875 11.25390625 C-23.03563112 6.82493796 -15.48367662 5.47171276 -6.25 8.1875 C-2.05052964 9.74645081 0.80208107 11.88407899 4 15 C4 15.33 4 15.66 4 16 C2.98679687 16.18175781 1.97359375 16.36351562 0.9296875 16.55078125 C-0.42196353 16.80421582 -1.77352119 17.05814865 -3.125 17.3125 C-3.79015625 17.43044922 -4.4553125 17.54839844 -5.140625 17.66992188 C-12.1963836 19.0188169 -16.86751931 21.03086123 -21 27 C-22.8580366 30.71607321 -22.31891801 34.7533205 -21.3125 38.6875 C-18.73740918 43.22456477 -14.84155304 45.42005342 -10 47 C-1.99014839 47.77138548 6.42312958 48.29397471 13 43 C16.84837613 39.37457765 18.70705983 36.09840563 19.203125 30.8515625 C19.33949732 24.37387709 18.10536202 20.46628123 13.8125 15.4375 C2.70146765 5.80793863 -9.46661916 3.05022295 -24 4 C-36.59436446 5.81825924 -50.84387356 11.93430427 -59 22 C-65.5458773 32.64963883 -68.24970091 42.65524309 -68.4140625 55.06640625 C-68.43342865 55.98590561 -68.4527948 56.90540497 -68.4727478 57.85276794 C-68.5319684 60.75592107 -68.57869633 63.6591151 -68.625 66.5625 C-68.66323285 68.54493805 -68.70228757 70.52736043 -68.7421875 72.50976562 C-68.83915094 77.33975676 -68.91917436 82.16960475 -69 87 C-74.94 87.33 -80.88 87.66 -87 88 C-86.505 88.99 -86.505 88.99 -86 90 C-80.72 90.33 -75.44 90.66 -70 91 C-70 155.68 -70 220.36 -70 287 C-75.28 287.33 -80.56 287.66 -86 288 C-86 288.66 -86 289.32 -86 290 C-51.68 290 -17.36 290 18 290 C18.33 289.34 18.66 288.68 19 288 C7.12 288 -4.76 288 -17 288 C-17 222.99 -17 157.98 -17 91 C-8.42 91 0.16 91 9 91 C9 91.33 9 91.66 9 92 C0.75 92 -7.5 92 -16 92 C-16 152.06 -16 212.12 -16 274 C-11.38 274 -6.76 274 -2 274 C3.25 274.8125 3.25 274.8125 7 276 C9.29013653 279.4352048 9.17842973 280.985331 9 285 C12.63 285.33 16.26 285.66 20 286 C21 290 21 290 20 292 C-15.64 292 -51.28 292 -88 292 C-88 291.34 -88 290.68 -88 290 C-89.09699219 290.05800781 -90.19398437 290.11601562 -91.32421875 290.17578125 C-92.77860314 290.22269688 -94.23303374 290.26819511 -95.6875 290.3125 C-96.40873047 290.35439453 -97.12996094 290.39628906 -97.87304688 290.43945312 C-102.06020122 290.53505026 -103.55508577 290.34662599 -106.98828125 287.671875 C-109 285 -109 285 -109.5 281.9375 C-108.95255192 278.72124253 -108.2924309 277.2924309 -106 275 C-103 274 -103 274 -92 274 C-92 213.28 -92 152.56 -92 90 C-95.96 90 -99.92 90 -104 90 C-109 87 -109 87 -110.0625 83.625 C-110 80 -110 80 -108.25 77.125 C-104.75264946 73.82194672 -101.9291416 73.88318657 -97.3125 73.9375 C-96.31863281 73.94652344 -95.32476562 73.95554687 -94.30078125 73.96484375 C-93.54152344 73.97644531 -92.78226563 73.98804688 -92 74 C-92.01047363 73.12899658 -92.02094727 72.25799316 -92.03173828 71.3605957 C-92.06625338 68.06352989 -92.09110586 64.76666184 -92.10986328 61.46948242 C-92.11979131 60.05473765 -92.13333825 58.64001266 -92.15087891 57.2253418 C-92.37318924 38.80627714 -90.67824601 21.31122225 -78 7 C-57.69850185 -12.98856562 -23.17250938 -16.80884676 0 0 Z " fill="#000000" transform="translate(187,112)"/>
<path d="M0 0 C3.81110414 4.17884225 5.41935663 8.30482625 5.4921875 13.94921875 C5.10008194 20.41896052 3.80784683 25.47288281 -1.1484375 29.99609375 C-6.9584661 34.41788543 -12.41801872 35.80101093 -19.7265625 35.71484375 C-20.93699219 35.70839844 -22.14742188 35.70195312 -23.39453125 35.6953125 C-26.5390625 35.52734375 -26.5390625 35.52734375 -29.5390625 34.52734375 C-32.81774682 34.13014631 -36.09512573 33.76594594 -39.3828125 33.453125 C-44.27401002 32.91068016 -48.09686426 31.65541254 -52.5390625 29.52734375 C-48.87388729 37.23254164 -44.82711493 44.51367944 -40.2734375 51.71484375 C-38.8910041 53.95662765 -37.69273658 56.16692406 -36.5390625 58.52734375 C-35.8277417 58.5523999 -35.1164209 58.57745605 -34.38354492 58.60327148 C-31.16436733 58.71922814 -27.94548265 58.8419562 -24.7265625 58.96484375 C-23.60701172 59.00416016 -22.48746094 59.04347656 -21.33398438 59.08398438 C-20.26083984 59.12587891 -19.18769531 59.16777344 -18.08203125 59.2109375 C-17.09227295 59.24759521 -16.10251465 59.28425293 -15.08276367 59.32202148 C-12.5390625 59.52734375 -12.5390625 59.52734375 -9.5390625 60.52734375 C-9.0440625 66.46734375 -9.0440625 66.46734375 -8.5390625 72.52734375 C-17.1190625 72.52734375 -25.6990625 72.52734375 -34.5390625 72.52734375 C-35.5290625 69.22734375 -36.5190625 65.92734375 -37.5390625 62.52734375 C-38.70935453 60.00252302 -39.8751915 57.6297039 -41.2265625 55.21484375 C-41.57178955 54.57949707 -41.9170166 53.94415039 -42.27270508 53.28955078 C-44.60292163 49.05308104 -47.12518259 44.97685358 -49.7265625 40.90234375 C-55.83209379 31.06364737 -60.2974359 21.31182701 -58.5390625 9.52734375 C-56.92619313 3.235031 -53.36240436 0.05483798 -47.89453125 -3.21875 C-39.57469362 -7.64771829 -32.02273912 -9.00094349 -22.7890625 -6.28515625 C-18.58959214 -4.72620544 -15.73698143 -2.58857726 -12.5390625 0.52734375 C-12.5390625 0.85734375 -12.5390625 1.18734375 -12.5390625 1.52734375 C-14.05886719 1.79998047 -14.05886719 1.79998047 -15.609375 2.078125 C-16.96102603 2.33155957 -18.31258369 2.5854924 -19.6640625 2.83984375 C-20.32921875 2.95779297 -20.994375 3.07574219 -21.6796875 3.19726562 C-28.7354461 4.54616065 -33.40658181 6.55820498 -37.5390625 12.52734375 C-39.3970991 16.24341696 -38.85798051 20.28066425 -37.8515625 24.21484375 C-35.27647168 28.75190852 -31.38061554 30.94739717 -26.5390625 32.52734375 C-18.52921089 33.29872923 -10.11593292 33.82131846 -3.5390625 28.52734375 C0.30931363 24.9019214 2.16799733 21.62574938 2.6640625 16.37890625 C2.80043482 9.90122084 1.56629952 5.99362498 -2.7265625 0.96484375 C-13.83759485 -8.66471762 -26.00568166 -11.4224333 -40.5390625 -10.47265625 C-53.13342696 -8.65439701 -67.38293606 -2.53835198 -75.5390625 7.52734375 C-82.0849398 18.17698258 -84.78876341 28.18258684 -84.953125 40.59375 C-84.97249115 41.51324936 -84.9918573 42.43274872 -85.0118103 43.38011169 C-85.0710309 46.28326482 -85.11775883 49.18645885 -85.1640625 52.08984375 C-85.20229535 54.0722818 -85.24135007 56.05470418 -85.28125 58.03710938 C-85.37821344 62.86710051 -85.45823686 67.6969485 -85.5390625 72.52734375 C-91.4790625 72.85734375 -97.4190625 73.18734375 -103.5390625 73.52734375 C-103.2090625 74.18734375 -102.8790625 74.84734375 -102.5390625 75.52734375 C-97.2590625 75.85734375 -91.9790625 76.18734375 -86.5390625 76.52734375 C-86.5390625 141.20734375 -86.5390625 205.88734375 -86.5390625 272.52734375 C-91.8190625 272.85734375 -97.0990625 273.18734375 -102.5390625 273.52734375 C-102.5390625 274.18734375 -102.5390625 274.84734375 -102.5390625 275.52734375 C-68.2190625 275.52734375 -33.8990625 275.52734375 1.4609375 275.52734375 C1.7909375 274.86734375 2.1209375 274.20734375 2.4609375 273.52734375 C-9.4190625 273.52734375 -21.2990625 273.52734375 -33.5390625 273.52734375 C-33.5390625 208.51734375 -33.5390625 143.50734375 -33.5390625 76.52734375 C-24.9590625 76.52734375 -16.3790625 76.52734375 -7.5390625 76.52734375 C-7.5390625 76.85734375 -7.5390625 77.18734375 -7.5390625 77.52734375 C-15.7890625 77.52734375 -24.0390625 77.52734375 -32.5390625 77.52734375 C-32.5390625 137.58734375 -32.5390625 197.64734375 -32.5390625 259.52734375 C-27.9190625 259.52734375 -23.2990625 259.52734375 -18.5390625 259.52734375 C-13.2890625 260.33984375 -13.2890625 260.33984375 -9.5390625 261.52734375 C-7.24892597 264.96254855 -7.36063277 266.51267475 -7.5390625 270.52734375 C-3.9090625 270.85734375 -0.2790625 271.18734375 3.4609375 271.52734375 C4.4609375 275.52734375 4.4609375 275.52734375 3.4609375 277.52734375 C-32.1790625 277.52734375 -67.8190625 277.52734375 -104.5390625 277.52734375 C-104.8690625 276.20734375 -105.1990625 274.88734375 -105.5390625 273.52734375 C-104.8790625 272.86734375 -104.2190625 272.20734375 -103.5390625 271.52734375 C-98.2590625 271.52734375 -92.9790625 271.52734375 -87.5390625 271.52734375 C-87.5390625 207.50734375 -87.5390625 143.48734375 -87.5390625 77.52734375 C-93.1490625 77.52734375 -98.7590625 77.52734375 -104.5390625 77.52734375 C-104.8690625 76.20734375 -105.1990625 74.88734375 -105.5390625 73.52734375 C-101.85818897 71.07342806 -99.09550662 71.29931616 -94.8515625 71.40234375 C-94.14966797 71.41136719 -93.44777344 71.42039062 -92.72460938 71.4296875 C-90.99594725 71.45320671 -89.26746105 71.48907662 -87.5390625 71.52734375 C-87.56000977 70.42970703 -87.58095703 69.33207031 -87.60253906 68.20117188 C-87.67606175 64.04880315 -87.72126117 59.89648914 -87.75878906 55.74365234 C-87.7786532 53.96132672 -87.8057541 52.179064 -87.84082031 50.39697266 C-88.18287379 32.5397691 -86.53547675 16.23384499 -74.0390625 2.40234375 C-65.9195129 -5.25145731 -55.48981888 -10.49984823 -44.5390625 -12.47265625 C-43.38083984 -12.70082031 -43.38083984 -12.70082031 -42.19921875 -12.93359375 C-26.53972396 -15.27860961 -11.407907 -10.91568766 0 0 Z " fill="#471D12" transform="translate(203.5390625,126.47265625)"/>
<path d="M0 0 C1.71484375 1.60546875 1.71484375 1.60546875 3 3 C2.07058594 3.17015625 1.14117187 3.3403125 0.18359375 3.515625 C-11.27037169 5.45594273 -11.27037169 5.45594273 -19.9375 12.5625 C-21.85916308 18.77964527 -22.19385683 24.61228635 -19.25 30.5 C-17.2795863 32.68934855 -15.47128449 34.41131711 -13 36 C-21.10219363 36.39204163 -28.06947995 35.53846087 -35 31.0625 C-38.47255026 25.74515741 -39.40576426 19.76201438 -38.7265625 13.46484375 C-36.88774855 6.5036195 -32.18358495 2.44404859 -26.12109375 -1.09765625 C-17.74537116 -4.8571142 -8.06818624 -3.96074597 0 0 Z " fill="#000000" transform="translate(185,124)"/>
<path d="M0 0 C0.99 0 1.98 0 3 0 C3.98111308 3.8953458 4.95954856 7.79135935 5.9375 11.6875 C6.35418945 13.34168945 6.35418945 13.34168945 6.77929688 15.02929688 C7.04677734 16.09599609 7.31425781 17.16269531 7.58984375 18.26171875 C7.83597412 19.24100342 8.08210449 20.22028809 8.33569336 21.22924805 C8.95451894 23.81030338 9.49873642 26.39384539 10 29 C11.32 29 12.64 29 14 29 C14 30.32 14 31.64 14 33 C13.34 33 12.68 33 12 33 C12.7425 34.3303125 12.7425 34.3303125 13.5 35.6875 C14.94378674 38.87586238 15.30159922 40.58187546 15 44 C13.68 44 12.36 44 11 44 C10.32880451 42.5437455 9.66318193 41.08492133 9 39.625 C8.62875 38.81289062 8.2575 38.00078125 7.875 37.1640625 C7 35 7 35 7 33 C6.12988281 32.90912109 6.12988281 32.90912109 5.2421875 32.81640625 C4.46101563 32.73261719 3.67984375 32.64882812 2.875 32.5625 C2.05128906 32.48128906 1.22757812 32.40007812 0.37890625 32.31640625 C-2 32 -2 32 -5.1875 31 C-8.02190648 30.67539335 -8.02190648 30.67539335 -9.55859375 32.49609375 C-11.14237812 34.41071618 -11.14237812 34.41071618 -12.5078125 36.43359375 C-13.00023437 36.95050781 -13.49265625 37.46742188 -14 38 C-15.32 38 -16.64 38 -18 38 C-17.61650903 34.64445399 -17.16918447 33.18908853 -14.875 30.625 C-12.5946985 28.01832285 -12.5946985 28.01832285 -13.25 24.1875 C-13.4975 23.135625 -13.745 22.08375 -14 21 C-12.02 21.33 -10.04 21.66 -8 22 C-7.62875 20.7934375 -7.62875 20.7934375 -7.25 19.5625 C-6.27721492 16.79006253 -5.22135166 14.22395287 -4 11.5625 C-2.27132888 7.75684342 -1.03318525 4.04664222 0 0 Z M0 14 C-0.67354499 15.43429001 -1.33859701 16.87257057 -2 18.3125 C-2.37125 19.11300781 -2.7425 19.91351563 -3.125 20.73828125 C-4.18040667 23.06213959 -4.18040667 23.06213959 -4 26 C-0.19495213 27.79682816 0.70600835 28.07349791 5 27 C3.68 22.71 2.36 18.42 1 14 C0.67 14 0.34 14 0 14 Z " fill="#9E005D" transform="translate(308,115)"/>
<path d="M0 0 C1.32 0.33 2.64 0.66 4 1 C3.67 3.31 3.34 5.62 3 8 C3.66 7.67 4.32 7.34 5 7 C10.29853862 6.54906054 10.29853862 6.54906054 12.75 8.125 C15.94754946 12.92132418 16.27289754 17.86720567 16.25 23.5 C16.25515625 24.7684375 16.2603125 26.036875 16.265625 27.34375 C16.00698139 30.90390317 15.28821239 33.68745385 14 37 C12.68 36.67 11.36 36.34 10 36 C10.165 34.72125 10.33 33.4425 10.5 32.125 C11.77165639 21.7873702 11.77165639 21.7873702 9 12 C6.50447516 12.78130071 6.50447516 12.78130071 4 14 C2.99994696 17.00015912 2.88424415 18.97423756 2.90234375 22.10546875 C2.90556641 23.08837891 2.90878906 24.07128906 2.91210938 25.08398438 C2.92048828 26.10814453 2.92886719 27.13230469 2.9375 28.1875 C2.94201172 29.22326172 2.94652344 30.25902344 2.95117188 31.32617188 C2.9629599 33.88417266 2.97941485 36.44205733 3 39 C1.68 39 0.36 39 -1 39 C-1.86049802 33.775056 -2.19208325 28.73001244 -2.1875 23.4375 C-2.18814453 22.65971191 -2.18878906 21.88192383 -2.18945312 21.08056641 C-2.12513687 13.92830649 -1.26830054 7.04359764 0 0 Z " fill="#9E005D" transform="translate(263,117)"/>
<path d="M0 0 C0.33 0 0.66 0 1 0 C1 12.21 1 24.42 1 37 C-4.94 37.33 -10.88 37.66 -17 38 C-16.67 38.66 -16.34 39.32 -16 40 C-10.72 40.33 -5.44 40.66 0 41 C0 105.35 0 169.7 0 236 C-0.33 236 -0.66 236 -1 236 C-1 171.98 -1 107.96 -1 42 C-6.61 42 -12.22 42 -18 42 C-18.33 40.68 -18.66 39.36 -19 38 C-15.31912647 35.54608431 -12.55644412 35.77197241 -8.3125 35.875 C-7.61060547 35.88402344 -6.90871094 35.89304688 -6.18554688 35.90234375 C-4.45688475 35.92586296 -2.72839855 35.96173287 -1 36 C-1.00785522 34.41747437 -1.00785522 34.41747437 -1.01586914 32.80297852 C-1.03391901 28.9024337 -1.04543195 25.0018926 -1.05493164 21.10131836 C-1.0599719 19.41055684 -1.06680405 17.71979971 -1.07543945 16.02905273 C-1.08751857 13.60399293 -1.09323123 11.17899056 -1.09765625 8.75390625 C-1.10281754 7.99348526 -1.10797882 7.23306427 -1.11329651 6.44960022 C-1.11349238 4.6326743 -1.06197277 2.81586873 -1 1 C-0.67 0.67 -0.34 0.34 0 0 Z " fill="#491919" transform="translate(117,162)"/>
<path d="M0 0 C3.6875 0.3125 3.6875 0.3125 6.0625 2.1875 C9.37805146 6.52322114 8.87105061 10.27822256 8.875 15.5625 C8.88724609 16.40941406 8.89949219 17.25632813 8.91210938 18.12890625 C8.92331454 22.93218551 8.55262695 26.80080951 6.6875 31.3125 C5.6975 31.3125 4.7075 31.3125 3.6875 31.3125 C3.6875 30.6525 3.6875 29.9925 3.6875 29.3125 C2.615 29.415625 1.5425 29.51875 0.4375 29.625 C-3.3125 29.3125 -3.3125 29.3125 -5.75 27.3125 C-7.74763042 23.47704959 -8.04949941 20.55453149 -7.3125 16.3125 C-6.15617254 13.94956998 -5.16266245 12.16266245 -3.3125 10.3125 C-0.97952567 10.27157063 1.35455225 10.27008277 3.6875 10.3125 C3.0275 8.6625 2.3675 7.0125 1.6875 5.3125 C-0.6225 5.6425 -2.9325 5.9725 -5.3125 6.3125 C-4.25147638 0.40108268 -4.25147638 0.40108268 0 0 Z M-2.3125 15.3125 C-3.16306945 18.86942677 -3.48159807 20.80520578 -2.3125 24.3125 C-0.4602633 25.31728037 -0.4602633 25.31728037 1.6875 25.3125 C3.66328739 24.42188785 3.66328739 24.42188785 4.6875 22.3125 C4.45272801 18.66708155 4.45272801 18.66708155 3.6875 15.3125 C0.63836772 14.30138907 0.63836772 14.30138907 -2.3125 15.3125 Z " fill="#9E005D" transform="translate(221.3125,124.6875)"/>
<path d="M0 0 C3.93754535 -0.02690805 7.87490782 -0.0467945 11.8125 -0.0625 C12.93205078 -0.07087891 14.05160156 -0.07925781 15.20507812 -0.08789062 C16.81479492 -0.09272461 16.81479492 -0.09272461 18.45703125 -0.09765625 C19.9416687 -0.10551147 19.9416687 -0.10551147 21.45629883 -0.11352539 C24 0 24 0 27 1 C27.33 4.63 27.66 8.26 28 12 C20.08 12 12.16 12 4 12 C2.68 8.04 1.36 4.08 0 0 Z " fill="#000000" transform="translate(167,186)"/>
<path d="M0 0 C15.43610168 -0.39523447 15.43610168 -0.39523447 23 2 C25.29404844 5.44107266 25.26293056 6.96839809 25 11 C24 12 24 12 21.68334961 12.11352539 C20.68311768 12.10828857 19.68288574 12.10305176 18.65234375 12.09765625 C17.57275391 12.09443359 16.49316406 12.09121094 15.38085938 12.08789062 C14.24455078 12.07951172 13.10824219 12.07113281 11.9375 12.0625 C10.79732422 12.05798828 9.65714844 12.05347656 8.48242188 12.04882812 C5.65492582 12.0369976 2.82745655 12.0190615 0 12 C0 8.04 0 4.08 0 0 Z " fill="#000000" transform="translate(171,386)"/>
<path d="M0 0 C2.0625 0.4375 2.0625 0.4375 4 1 C4 1.66 4 2.32 4 3 C4.66 2.67 5.32 2.34 6 2 C11.36899365 1.54306437 11.36899365 1.54306437 13.8125 3.3125 C16.37551217 6.95467519 16.16456827 10.50592108 16.1875 14.8125 C16.20167969 16.01519531 16.21585937 17.21789062 16.23046875 18.45703125 C16.00124672 21.98083425 15.27030979 24.72129528 14 28 C12.68 27.67 11.36 27.34 10 27 C10.165 26.236875 10.33 25.47375 10.5 24.6875 C11.89043939 15.43296884 11.89043939 15.43296884 9 7 C6.93597032 7.48705712 6.93597032 7.48705712 5 9 C3.16585223 15.7252085 3.91369521 23.08602732 4 30 C2.68 30 1.36 30 0 30 C-0.76246129 22.9336177 -1.10700079 15.91543785 -1.125 8.8125 C-1.12951172 8.05783447 -1.13402344 7.30316895 -1.13867188 6.52563477 C-1.12381982 1.12381982 -1.12381982 1.12381982 0 0 Z " fill="#9E005D" transform="translate(326,123)"/>
<path d="M0 0 C1.32 0 2.64 0 4 0 C4 1.32 4 2.64 4 4 C4.804375 4.2475 5.60875 4.495 6.4375 4.75 C9 6 9 6 9.8125 8.125 C9.874375 8.74375 9.93625 9.3625 10 10 C7.42143135 10.92091738 6.4056713 11.18506902 3.859375 10.0234375 C3.24578125 9.68570313 2.6321875 9.34796875 2 9 C1.7006013 16.22032206 1.7006013 16.22032206 4 23 C5.65 23 7.3 23 9 23 C8.67 24.65 8.34 26.3 8 28 C4.6875 28.25 4.6875 28.25 1 28 C-1.90400891 25.19279139 -2.95140833 22.34307376 -3.09765625 18.30078125 C-3.08605469 17.31464844 -3.07445312 16.32851562 -3.0625 15.3125 C-3.05347656 14.31863281 -3.04445312 13.32476562 -3.03515625 12.30078125 C-3.02355469 11.54152344 -3.01195312 10.78226563 -3 10 C-4.65 10 -6.3 10 -8 10 C-7.8125 8.125 -7.8125 8.125 -7 6 C-5.33927151 5.31867549 -3.672233 4.65257873 -2 4 C-0.65589738 1.98264795 -0.65589738 1.98264795 0 0 Z " fill="#9E005D" transform="translate(239,123)"/>
<path d="M0 0 C2.31 0 4.62 0 7 0 C7 2.80344355 6.94082989 5.53547699 6.78125 8.328125 C6.73613281 9.12734375 6.69101562 9.9265625 6.64453125 10.75 C6.59683594 11.575 6.54914063 12.4 6.5 13.25 C6.45230469 14.09046875 6.40460938 14.9309375 6.35546875 15.796875 C6.23798207 17.86464056 6.11912513 19.93232818 6 22 C6.99 22 7.98 22 9 22 C8.67 23.32 8.34 24.64 8 26 C4.7 26 1.4 26 -2 26 C-1.67 24.68 -1.34 23.36 -1 22 C-0.01 22 0.98 22 2 22 C1.835 21.34 1.67 20.68 1.5 20 C0.5967727 14.58063618 0.6628721 9.34851158 2 4 C1.34 4 0.68 4 0 4 C0 2.68 0 1.36 0 0 Z " fill="#9E005D" transform="translate(347,125)"/>
<path d="M0 0 C1.32 0 2.64 0 4 0 C4 11.88 4 23.76 4 36 C2.68 35.67 1.36 35.34 0 35 C-0.20010711 31.22972796 -0.38270332 27.45879083 -0.5625 23.6875 C-0.61857422 22.63498047 -0.67464844 21.58246094 -0.73242188 20.49804688 C-1.05236514 13.56594279 -0.82306262 6.89089653 0 0 Z " fill="#9E005D" transform="translate(361,120)"/>
<path d="M0 0 C1.32 0 2.64 0 4 0 C4.05865035 3.18742115 4.09381259 6.37470118 4.125 9.5625 C4.14175781 10.45775391 4.15851563 11.35300781 4.17578125 12.27539062 C4.21479596 17.60089905 3.75475782 21.96370689 2 27 C1.01 27 0.02 27 -1 27 C-0.67 18.09 -0.34 9.18 0 0 Z " fill="#9E005D" transform="translate(252,125)"/>
<path d="M0 0 C1.95803507 -0.05389087 3.91648909 -0.09274217 5.875 -0.125 C7.51082031 -0.15980469 7.51082031 -0.15980469 9.1796875 -0.1953125 C12 0 12 0 14 2 C13.625 4.125 13.625 4.125 13 6 C11.02090602 6.02686553 9.04171029 6.04633375 7.0625 6.0625 C5.96035156 6.07410156 4.85820312 6.08570313 3.72265625 6.09765625 C1 6 1 6 0 5 C-0.04063832 3.33382885 -0.042721 1.66611905 0 0 Z " fill="#CA4D17" transform="translate(195,198)"/>
<path d="M0 0 C1.65 0.33 3.3 0.66 5 1 C4.67 2.65 4.34 4.3 4 6 C2.35 5.67 0.7 5.34 -1 5 C-0.67 3.35 -0.34 1.7 0 0 Z " fill="#9E005D" transform="translate(252,116)"/>
</svg>
