<?xml version="1.0" encoding="UTF-8"?>
<svg version="1.1" xmlns="http://www.w3.org/2000/svg" width="300" height="300">
<path d="M0 0 C2.22747326 -0.13563775 4.45734323 -0.23227853 6.6875 -0.3125 C7.92886719 -0.37050781 9.17023438 -0.42851562 10.44921875 -0.48828125 C14.08783597 0.01207865 15.30907824 0.63748866 17.76576233 3.26856995 C20.34705913 6.88969979 21.55607664 11.13925694 22.9609375 15.3203125 C23.31459381 16.33358612 23.66825012 17.34685974 24.03262329 18.39083862 C25.16039482 21.63101908 26.26822625 24.87759448 27.375 28.125 C28.11060982 30.25437979 28.84757687 32.38329123 29.5859375 34.51171875 C30.67565411 37.65344327 31.76481731 40.79533198 32.84954834 43.93878174 C35.16688013 50.64501359 37.53457539 57.33029982 39.9765625 63.9921875 C40.26880707 64.79415558 40.56105164 65.59612366 40.8621521 66.4223938 C41.96855243 69.98082813 41.96855243 69.98082813 44 73 C52.46302379 51.49798062 60.25801591 29.7695062 68 8 C69.62463842 7.94604522 71.24978541 7.90722805 72.875 7.875 C74.23238281 7.84019531 74.23238281 7.84019531 75.6171875 7.8046875 C78 8 78 8 80 10 C82.39157356 18.11392164 78.82901517 24.23303917 75.5625 31.625 C70.0990609 44.06264991 64.78554162 56.56032698 59.52734375 69.0859375 C58.79107497 70.83752578 58.05470659 72.58907219 57.3182373 74.34057617 C55.54434941 78.55990511 53.77178792 82.77978883 52 87 C53.33959337 86.99446924 53.33959337 86.99446924 54.70624924 86.98882675 C76.42182919 86.90054534 98.13737828 86.83432431 119.85309982 86.79275131 C130.354606 86.7721133 140.8559925 86.74396902 151.35742188 86.69824219 C160.50891932 86.65841237 169.66033011 86.63257621 178.81191182 86.62364602 C183.65904671 86.61842473 188.50593366 86.60612713 193.3529892 86.57707977 C197.91332472 86.54997156 202.47330967 86.54154567 207.03371811 86.54756927 C208.70911691 86.54646697 210.38452718 86.53848568 212.05985641 86.5231781 C214.34476049 86.50332127 216.62833521 86.50804398 218.91326904 86.51898193 C220.83244204 86.51345118 220.83244204 86.51345118 222.7903862 86.50780869 C226.57797389 87.08863176 227.72753526 87.97285707 230 91 C231.14775011 94.44325034 231.13169545 97.10291661 231.14044189 100.73628235 C231.14489858 101.76895769 231.14489858 101.76895769 231.1494453 102.82249516 C231.1581328 105.13468675 231.15964058 107.44682657 231.16113281 109.7590332 C231.16576095 111.41474519 231.17078561 113.0704561 231.17617798 114.72616577 C231.18930439 119.22831311 231.19574741 123.73044554 231.20018864 128.23260903 C231.20311897 131.04499465 231.2072237 133.85737619 231.21169281 136.66975975 C231.22536837 145.46795868 231.23503474 154.26614828 231.2388947 163.0643571 C231.24337576 173.22264668 231.26092562 183.38080173 231.2898953 193.5390504 C231.3115073 201.38967328 231.32159872 209.2402583 231.32293582 217.09091061 C231.32398419 221.78039449 231.32989885 226.46975191 231.34775543 231.15920448 C231.3642278 235.57100031 231.3663957 239.9825745 231.35761642 244.39439011 C231.3568456 246.01249853 231.36119475 247.63061883 231.37107468 249.24869728 C231.3837854 251.4603175 231.37792277 253.67115172 231.36749268 255.88276672 C231.36895924 257.11960362 231.3704258 258.35644053 231.3719368 259.63075733 C230.95855969 263.37539301 229.95874905 265.79946138 228 269 C224.68463538 270.65768231 220.97447131 270.18071814 217.32763672 270.20532227 C216.43001617 270.21522186 215.53239563 270.22512146 214.60757446 270.23532104 C211.63163925 270.266985 208.65568806 270.29171281 205.6796875 270.31640625 C203.61987893 270.33697155 201.56007461 270.35796791 199.50027466 270.37937927 C194.07187342 270.43464372 188.64343383 270.4840337 183.21496582 270.53222656 C177.67843196 270.58240968 172.14195399 270.63811237 166.60546875 270.69335938 C155.73702688 270.80099443 144.86853654 270.90242751 134 271 C134.33 275.62 134.66 280.24 135 285 C132.36 285 129.72 285 127 285 C127 281.37 127 277.74 127 274 C127.66 274 128.32 274 129 274 C129.33 272.68 129.66 271.36 130 270 C119.11 270.33 108.22 270.66 97 271 C97 271.99 97 272.98 97 274 C98.65 274.33 100.3 274.66 102 275 C102 278.3 102 281.6 102 285 C101.01 285 100.02 285 99 285 C99 282.36 99 279.72 99 277 C98.34 277 97.68 277 97 277 C97 279.64 97 282.28 97 285 C94.69 285 92.38 285 90 285 C89.67 280.38 89.34 275.76 89 271 C75.8 271 62.6 271 49 271 C49 271.99 49 272.98 49 274 C52.05263664 274.98120464 53.94736336 274.98120464 57 274 C57.495 275.485 57.495 275.485 58 277 C58.66 276.01 59.32 275.02 60 274 C60.99 274 61.98 274 63 274 C61.08957952 284.31627057 61.08957952 284.31627057 58 288 C56.68 288 55.36 288 54 288 C54 285 54 285 56 283 C55.67 282.34 55.34 281.68 55 281 C54.01 282.32 53.02 283.64 52 285 C49.69 284.67 47.38 284.34 45 284 C45 279.38 45 274.76 45 270 C43.86882751 270.00888245 42.73765503 270.01776489 41.57220459 270.0269165 C30.91901787 270.10795563 20.26589358 270.167943 9.61246872 270.20724869 C4.13523272 270.22813543 -1.34175472 270.25647319 -6.81884766 270.30175781 C-12.1032328 270.34517637 -17.38737867 270.36912892 -22.67192841 270.37950897 C-24.68940753 270.38690749 -26.70687336 270.40135487 -28.72425079 270.42292023 C-31.54725076 270.45190101 -34.36925835 270.45595822 -37.19238281 270.45410156 C-38.02891891 270.46848267 -38.86545502 270.48286377 -39.7273407 270.49768066 C-43.35348728 270.47182579 -45.52885893 270.34860255 -48.48797607 268.15911865 C-51.23690547 264.23374113 -51.12738815 260.92542853 -51.13371277 256.25698853 C-51.13597833 255.56783273 -51.13824388 254.87867694 -51.14057809 254.16863763 C-51.14691976 251.85410738 -51.14608862 249.53963565 -51.14526367 247.22509766 C-51.14825507 245.56776351 -51.15165755 243.91043006 -51.15544128 242.25309753 C-51.16428766 237.74688111 -51.16661967 233.24068367 -51.16725707 228.7344594 C-51.16820584 224.97447648 -51.17188378 221.21449799 -51.17542917 217.45451677 C-51.18357621 208.5842589 -51.18601318 199.71401118 -51.18530273 190.84375 C-51.18470192 181.68984229 -51.19525393 172.5359935 -51.2110464 163.3821007 C-51.22411688 155.52639794 -51.22948684 147.67071445 -51.22884732 139.81500089 C-51.22859218 135.12166803 -51.23145216 130.42838751 -51.24202538 125.73506546 C-51.25169802 121.32084475 -51.25179126 116.90672651 -51.24450874 112.49250221 C-51.24346185 110.8723657 -51.24583198 109.25222284 -51.2518692 107.63209724 C-51.25957746 105.4202702 -51.25495221 103.20879807 -51.24723816 100.99697876 C-51.24778293 99.75922007 -51.24832769 98.52146137 -51.24888897 97.24619484 C-51.00127824 94.01667178 -50.52462011 91.84578402 -49 89 C-45.29878569 86.53252379 -42.5027494 86.73174045 -38.22387695 86.77294922 C-37.03816101 86.77251114 -37.03816101 86.77251114 -35.82849121 86.77206421 C-33.21497634 86.77345786 -30.60174634 86.78902062 -27.98828125 86.8046875 C-26.17653052 86.80841751 -24.36477776 86.81126454 -22.55302429 86.81326294 C-17.78378737 86.82090036 -13.0146722 86.8405498 -8.2454834 86.8626709 C-3.37916715 86.88312697 1.48716877 86.89226415 6.35351562 86.90234375 C15.90239725 86.92379558 25.4511885 86.95793286 35 87 C34.64866753 86.18244484 34.64866753 86.18244484 34.29023743 85.34837341 C28.40556806 71.65292179 22.53295045 57.95235655 16.67236328 44.24658203 C15.03300827 40.41297419 13.39128047 36.5804106 11.74560547 32.74951172 C10.18036359 29.10517454 8.62271167 25.45771373 7.07260132 21.80691528 C6.52917522 20.53065525 5.98286018 19.25562102 5.4335022 17.98190308 C0.40222482 6.30761654 0.40222482 6.30761654 0 0 Z M49 277 C49 278.65 49 280.3 49 282 C49.66 282 50.32 282 51 282 C51 280.35 51 278.7 51 277 C50.34 277 49.68 277 49 277 Z " fill="#596358" transform="translate(60,2)"/>
<path d="M0 0 C2.22747326 -0.13563775 4.45734323 -0.23227853 6.6875 -0.3125 C7.92886719 -0.37050781 9.17023438 -0.42851562 10.44921875 -0.48828125 C14.08783597 0.01207865 15.30907824 0.63748866 17.76576233 3.26856995 C20.34705913 6.88969979 21.55607664 11.13925694 22.9609375 15.3203125 C23.31459381 16.33358612 23.66825012 17.34685974 24.03262329 18.39083862 C25.16039482 21.63101908 26.26822625 24.87759448 27.375 28.125 C28.11060982 30.25437979 28.84757687 32.38329123 29.5859375 34.51171875 C30.67565411 37.65344327 31.76481731 40.79533198 32.84954834 43.93878174 C35.16688013 50.64501359 37.53457539 57.33029982 39.9765625 63.9921875 C40.26880707 64.79415558 40.56105164 65.59612366 40.8621521 66.4223938 C41.96855243 69.98082813 41.96855243 69.98082813 44 73 C52.46302379 51.49798062 60.25801591 29.7695062 68 8 C69.62463842 7.94604522 71.24978541 7.90722805 72.875 7.875 C74.23238281 7.84019531 74.23238281 7.84019531 75.6171875 7.8046875 C78 8 78 8 80 10 C82.39157356 18.11392164 78.82901517 24.23303917 75.5625 31.625 C70.0990609 44.06264991 64.78554162 56.56032698 59.52734375 69.0859375 C58.79107497 70.83752578 58.05470659 72.58907219 57.3182373 74.34057617 C55.54434941 78.55990511 53.77178792 82.77978883 52 87 C53.33959337 86.99446924 53.33959337 86.99446924 54.70624924 86.98882675 C76.42182919 86.90054534 98.13737828 86.83432431 119.85309982 86.79275131 C130.354606 86.7721133 140.8559925 86.74396902 151.35742188 86.69824219 C160.50891932 86.65841237 169.66033011 86.63257621 178.81191182 86.62364602 C183.65904671 86.61842473 188.50593366 86.60612713 193.3529892 86.57707977 C197.91332472 86.54997156 202.47330967 86.54154567 207.03371811 86.54756927 C208.70911691 86.54646697 210.38452718 86.53848568 212.05985641 86.5231781 C214.34476049 86.50332127 216.62833521 86.50804398 218.91326904 86.51898193 C220.83244204 86.51345118 220.83244204 86.51345118 222.7903862 86.50780869 C226.57797389 87.08863176 227.72753526 87.97285707 230 91 C231.14775011 94.44325034 231.13169545 97.10291661 231.14044189 100.73628235 C231.14489858 101.76895769 231.14489858 101.76895769 231.1494453 102.82249516 C231.1581328 105.13468675 231.15964058 107.44682657 231.16113281 109.7590332 C231.16576095 111.41474519 231.17078561 113.0704561 231.17617798 114.72616577 C231.18930439 119.22831311 231.19574741 123.73044554 231.20018864 128.23260903 C231.20311897 131.04499465 231.2072237 133.85737619 231.21169281 136.66975975 C231.22536837 145.46795868 231.23503474 154.26614828 231.2388947 163.0643571 C231.24337576 173.22264668 231.26092562 183.38080173 231.2898953 193.5390504 C231.3115073 201.38967328 231.32159872 209.2402583 231.32293582 217.09091061 C231.32398419 221.78039449 231.32989885 226.46975191 231.34775543 231.15920448 C231.3642278 235.57100031 231.3663957 239.9825745 231.35761642 244.39439011 C231.3568456 246.01249853 231.36119475 247.63061883 231.37107468 249.24869728 C231.3837854 251.4603175 231.37792277 253.67115172 231.36749268 255.88276672 C231.36895924 257.11960362 231.3704258 258.35644053 231.3719368 259.63075733 C230.95855969 263.37539301 229.95874905 265.79946138 228 269 C224.68463538 270.65768231 220.97447131 270.18071814 217.32763672 270.20532227 C216.43001617 270.21522186 215.53239563 270.22512146 214.60757446 270.23532104 C211.63163925 270.266985 208.65568806 270.29171281 205.6796875 270.31640625 C203.61987893 270.33697155 201.56007461 270.35796791 199.50027466 270.37937927 C194.07187342 270.43464372 188.64343383 270.4840337 183.21496582 270.53222656 C177.67843196 270.58240968 172.14195399 270.63811237 166.60546875 270.69335938 C155.73702688 270.80099443 144.86853654 270.90242751 134 271 C134.33 275.62 134.66 280.24 135 285 C132.36 285 129.72 285 127 285 C127 281.37 127 277.74 127 274 C127.66 274 128.32 274 129 274 C129.33 272.68 129.66 271.36 130 270 C119.11 270.33 108.22 270.66 97 271 C97 271.99 97 272.98 97 274 C98.65 274.33 100.3 274.66 102 275 C102 278.3 102 281.6 102 285 C101.01 285 100.02 285 99 285 C99 282.36 99 279.72 99 277 C98.34 277 97.68 277 97 277 C97 279.64 97 282.28 97 285 C94.69 285 92.38 285 90 285 C89.67 280.38 89.34 275.76 89 271 C75.8 271 62.6 271 49 271 C49 271.99 49 272.98 49 274 C52.05263664 274.98120464 53.94736336 274.98120464 57 274 C57.495 275.485 57.495 275.485 58 277 C58.66 276.01 59.32 275.02 60 274 C60.99 274 61.98 274 63 274 C61.08957952 284.31627057 61.08957952 284.31627057 58 288 C56.68 288 55.36 288 54 288 C54 285 54 285 56 283 C55.67 282.34 55.34 281.68 55 281 C54.01 282.32 53.02 283.64 52 285 C49.69 284.67 47.38 284.34 45 284 C45 279.38 45 274.76 45 270 C43.86882751 270.00888245 42.73765503 270.01776489 41.57220459 270.0269165 C30.91901787 270.10795563 20.26589358 270.167943 9.61246872 270.20724869 C4.13523272 270.22813543 -1.34175472 270.25647319 -6.81884766 270.30175781 C-12.1032328 270.34517637 -17.38737867 270.36912892 -22.67192841 270.37950897 C-24.68940753 270.38690749 -26.70687336 270.40135487 -28.72425079 270.42292023 C-31.54725076 270.45190101 -34.36925835 270.45595822 -37.19238281 270.45410156 C-38.02891891 270.46848267 -38.86545502 270.48286377 -39.7273407 270.49768066 C-43.35348728 270.47182579 -45.52885893 270.34860255 -48.48797607 268.15911865 C-51.23690547 264.23374113 -51.12738815 260.92542853 -51.13371277 256.25698853 C-51.13597833 255.56783273 -51.13824388 254.87867694 -51.14057809 254.16863763 C-51.14691976 251.85410738 -51.14608862 249.53963565 -51.14526367 247.22509766 C-51.14825507 245.56776351 -51.15165755 243.91043006 -51.15544128 242.25309753 C-51.16428766 237.74688111 -51.16661967 233.24068367 -51.16725707 228.7344594 C-51.16820584 224.97447648 -51.17188378 221.21449799 -51.17542917 217.45451677 C-51.18357621 208.5842589 -51.18601318 199.71401118 -51.18530273 190.84375 C-51.18470192 181.68984229 -51.19525393 172.5359935 -51.2110464 163.3821007 C-51.22411688 155.52639794 -51.22948684 147.67071445 -51.22884732 139.81500089 C-51.22859218 135.12166803 -51.23145216 130.42838751 -51.24202538 125.73506546 C-51.25169802 121.32084475 -51.25179126 116.90672651 -51.24450874 112.49250221 C-51.24346185 110.8723657 -51.24583198 109.25222284 -51.2518692 107.63209724 C-51.25957746 105.4202702 -51.25495221 103.20879807 -51.24723816 100.99697876 C-51.24778293 99.75922007 -51.24832769 98.52146137 -51.24888897 97.24619484 C-51.00127824 94.01667178 -50.52462011 91.84578402 -49 89 C-45.29878569 86.53252379 -42.5027494 86.73174045 -38.22387695 86.77294922 C-37.03816101 86.77251114 -37.03816101 86.77251114 -35.82849121 86.77206421 C-33.21497634 86.77345786 -30.60174634 86.78902062 -27.98828125 86.8046875 C-26.17653052 86.80841751 -24.36477776 86.81126454 -22.55302429 86.81326294 C-17.78378737 86.82090036 -13.0146722 86.8405498 -8.2454834 86.8626709 C-3.37916715 86.88312697 1.48716877 86.89226415 6.35351562 86.90234375 C15.90239725 86.92379558 25.4511885 86.95793286 35 87 C34.64866753 86.18244484 34.64866753 86.18244484 34.29023743 85.34837341 C28.40556806 71.65292179 22.53295045 57.95235655 16.67236328 44.24658203 C15.03300827 40.41297419 13.39128047 36.5804106 11.74560547 32.74951172 C10.18036359 29.10517454 8.62271167 25.45771373 7.07260132 21.80691528 C6.52917522 20.53065525 5.98286018 19.25562102 5.4335022 17.98190308 C0.40222482 6.30761654 0.40222482 6.30761654 0 0 Z M17.125 98.375 C15.94119751 98.43812378 14.75739502 98.50124756 13.53771973 98.56628418 C6.01986893 98.97631056 -1.49089494 99.45302858 -9 100 C-9.95233521 100.0669104 -10.90467041 100.1338208 -11.88586426 100.20275879 C-14.53303805 100.39724171 -17.17628461 100.6185384 -19.8203125 100.8515625 C-20.96667679 100.9348732 -20.96667679 100.9348732 -22.13619995 101.01986694 C-26.88703356 101.48464821 -29.72585826 102.47935477 -33 106 C-33.90498853 108.1617417 -33.90498853 108.1617417 -34.07421875 110.51953125 C-34.18443359 111.37740234 -34.29464844 112.23527344 -34.40820312 113.11914062 C-34.50037109 114.00794922 -34.59253906 114.89675781 -34.6875 115.8125 C-34.89534915 117.56953535 -35.107514 119.32606612 -35.32421875 121.08203125 C-35.47963135 122.34200928 -35.47963135 122.34200928 -35.63818359 123.62744141 C-36.13377079 126.87718253 -37.01286862 129.8655629 -38 133 C-39.048552 136.53364933 -39.29189348 139.97945025 -39.53515625 143.65234375 C-39.57826935 144.30026382 -39.62138245 144.9481839 -39.665802 145.61573792 C-39.80338906 147.72269082 -39.93390767 149.82997989 -40.0625 151.9375 C-40.12928452 153.01620361 -40.12928452 153.01620361 -40.19741821 154.11669922 C-41.63134615 177.59297911 -41.04309089 200.65966385 -38 224 C-37.80083984 225.55388428 -37.80083984 225.55388428 -37.59765625 227.13916016 C-37.15292864 230.51348169 -36.67469914 233.8815681 -36.1875 237.25 C-36.04658936 238.3217749 -35.90567871 239.3935498 -35.76049805 240.49780273 C-35.60621338 241.51430908 -35.45192871 242.53081543 -35.29296875 243.578125 C-35.1643042 244.47950195 -35.03563965 245.38087891 -34.90307617 246.30957031 C-33.68725538 249.93172362 -32.01519837 252.66906546 -29 255 C-25.99778991 255.73295625 -23.69030275 256.0817933 -20.6640625 256.20703125 C-19.86648529 256.26275803 -19.06890808 256.3184848 -18.24716187 256.37590027 C-15.70732534 256.54781033 -13.16722276 256.68109717 -10.625 256.8125 C-8.09104985 256.97057022 -5.55768738 257.13642453 -3.02426147 257.30265808 C-1.45193882 257.4028457 0.12080248 257.49673688 1.69393921 257.58320618 C6.17954895 257.83483977 10.55085282 258.3488898 15 259 C31.44864248 260.48564607 48.02676484 260.19712451 64.52735519 260.18847656 C66.89088918 260.18749339 69.25441666 260.18848372 71.61795044 260.18969727 C97.1206856 260.19457182 122.54209326 259.60485756 148 258 C148 257.34 148 256.68 148 256 C149.00417969 256.01160156 150.00835937 256.02320313 151.04296875 256.03515625 C165.73184965 256.55750811 165.73184965 256.55750811 180 254 C182.58831582 251.18606827 183.5149028 248.79340244 184.1875 245.0625 C184.34605469 244.22847656 184.50460938 243.39445313 184.66796875 242.53515625 C185.00106758 239.99184871 185.05957734 237.56182553 185 235 C185.66 235 186.32 235 187 235 C194.00588744 196.38377202 193.36462037 155.45423826 185.625 117 C185.44042236 116.05519775 185.25584473 115.11039551 185.06567383 114.13696289 C183.87087935 108.78885879 182.83302507 105.07011022 178 102 C169.10329998 99.69597458 159.63955472 99.47883476 150.5 98.9375 C149.82628357 98.89675354 149.15256714 98.85600708 148.45843506 98.81402588 C143.63990426 98.52368518 138.82038805 98.25761886 134 98 C132.34726074 97.90887939 132.34726074 97.90887939 130.66113281 97.81591797 C92.89352496 95.83716466 54.8702689 96.34209264 17.125 98.375 Z M49 277 C49 278.65 49 280.3 49 282 C49.66 282 50.32 282 51 282 C51 280.35 51 278.7 51 277 C50.34 277 49.68 277 49 277 Z " fill="#70311B" transform="translate(60,2)"/>
<path d="M0 0 C2.22747326 -0.13563775 4.45734323 -0.23227853 6.6875 -0.3125 C7.92886719 -0.37050781 9.17023438 -0.42851562 10.44921875 -0.48828125 C14.08783597 0.01207865 15.30907824 0.63748866 17.76576233 3.26856995 C20.34705913 6.88969979 21.55607664 11.13925694 22.9609375 15.3203125 C23.31459381 16.33358612 23.66825012 17.34685974 24.03262329 18.39083862 C25.16039482 21.63101908 26.26822625 24.87759448 27.375 28.125 C28.11060982 30.25437979 28.84757687 32.38329123 29.5859375 34.51171875 C30.67565411 37.65344327 31.76481731 40.79533198 32.84954834 43.93878174 C35.16688013 50.64501359 37.53457539 57.33029982 39.9765625 63.9921875 C40.26880707 64.79415558 40.56105164 65.59612366 40.8621521 66.4223938 C41.96855243 69.98082813 41.96855243 69.98082813 44 73 C52.46302379 51.49798062 60.25801591 29.7695062 68 8 C69.62463842 7.94604522 71.24978541 7.90722805 72.875 7.875 C74.23238281 7.84019531 74.23238281 7.84019531 75.6171875 7.8046875 C78 8 78 8 80 10 C82.39157356 18.11392164 78.82901517 24.23303917 75.5625 31.625 C70.0990609 44.06264991 64.78554162 56.56032698 59.52734375 69.0859375 C58.79107497 70.83752578 58.05470659 72.58907219 57.3182373 74.34057617 C55.54434941 78.55990511 53.77178792 82.77978883 52 87 C53.33959337 86.99446924 53.33959337 86.99446924 54.70624924 86.98882675 C76.42182919 86.90054534 98.13737828 86.83432431 119.85309982 86.79275131 C130.354606 86.7721133 140.8559925 86.74396902 151.35742188 86.69824219 C160.50891932 86.65841237 169.66033011 86.63257621 178.81191182 86.62364602 C183.65904671 86.61842473 188.50593366 86.60612713 193.3529892 86.57707977 C197.91332472 86.54997156 202.47330967 86.54154567 207.03371811 86.54756927 C208.70911691 86.54646697 210.38452718 86.53848568 212.05985641 86.5231781 C214.34476049 86.50332127 216.62833521 86.50804398 218.91326904 86.51898193 C220.83244204 86.51345118 220.83244204 86.51345118 222.7903862 86.50780869 C226.57797389 87.08863176 227.72753526 87.97285707 230 91 C231.14775011 94.44325034 231.13169545 97.10291661 231.14044189 100.73628235 C231.14489858 101.76895769 231.14489858 101.76895769 231.1494453 102.82249516 C231.1581328 105.13468675 231.15964058 107.44682657 231.16113281 109.7590332 C231.16576095 111.41474519 231.17078561 113.0704561 231.17617798 114.72616577 C231.18930439 119.22831311 231.19574741 123.73044554 231.20018864 128.23260903 C231.20311897 131.04499465 231.2072237 133.85737619 231.21169281 136.66975975 C231.22536837 145.46795868 231.23503474 154.26614828 231.2388947 163.0643571 C231.24337576 173.22264668 231.26092562 183.38080173 231.2898953 193.5390504 C231.3115073 201.38967328 231.32159872 209.2402583 231.32293582 217.09091061 C231.32398419 221.78039449 231.32989885 226.46975191 231.34775543 231.15920448 C231.3642278 235.57100031 231.3663957 239.9825745 231.35761642 244.39439011 C231.3568456 246.01249853 231.36119475 247.63061883 231.37107468 249.24869728 C231.3837854 251.4603175 231.37792277 253.67115172 231.36749268 255.88276672 C231.36895924 257.11960362 231.3704258 258.35644053 231.3719368 259.63075733 C230.95855969 263.37539301 229.95874905 265.79946138 228 269 C224.68463538 270.65768231 220.97447131 270.18071814 217.32763672 270.20532227 C216.43001617 270.21522186 215.53239563 270.22512146 214.60757446 270.23532104 C211.63163925 270.266985 208.65568806 270.29171281 205.6796875 270.31640625 C203.61987893 270.33697155 201.56007461 270.35796791 199.50027466 270.37937927 C194.07187342 270.43464372 188.64343383 270.4840337 183.21496582 270.53222656 C177.67843196 270.58240968 172.14195399 270.63811237 166.60546875 270.69335938 C155.73702688 270.80099443 144.86853654 270.90242751 134 271 C134.33 275.62 134.66 280.24 135 285 C132.36 285 129.72 285 127 285 C127 281.37 127 277.74 127 274 C127.66 274 128.32 274 129 274 C129.33 272.68 129.66 271.36 130 270 C119.11 270.33 108.22 270.66 97 271 C97 271.99 97 272.98 97 274 C98.65 274.33 100.3 274.66 102 275 C102 278.3 102 281.6 102 285 C101.01 285 100.02 285 99 285 C99 282.36 99 279.72 99 277 C98.34 277 97.68 277 97 277 C97 279.64 97 282.28 97 285 C94.69 285 92.38 285 90 285 C89.67 280.38 89.34 275.76 89 271 C75.8 271 62.6 271 49 271 C49 271.99 49 272.98 49 274 C52.05263664 274.98120464 53.94736336 274.98120464 57 274 C57.495 275.485 57.495 275.485 58 277 C58.66 276.01 59.32 275.02 60 274 C60.99 274 61.98 274 63 274 C61.08957952 284.31627057 61.08957952 284.31627057 58 288 C56.68 288 55.36 288 54 288 C54 285 54 285 56 283 C55.67 282.34 55.34 281.68 55 281 C54.01 282.32 53.02 283.64 52 285 C49.69 284.67 47.38 284.34 45 284 C45 279.38 45 274.76 45 270 C43.86882751 270.00888245 42.73765503 270.01776489 41.57220459 270.0269165 C30.91901787 270.10795563 20.26589358 270.167943 9.61246872 270.20724869 C4.13523272 270.22813543 -1.34175472 270.25647319 -6.81884766 270.30175781 C-12.1032328 270.34517637 -17.38737867 270.36912892 -22.67192841 270.37950897 C-24.68940753 270.38690749 -26.70687336 270.40135487 -28.72425079 270.42292023 C-31.54725076 270.45190101 -34.36925835 270.45595822 -37.19238281 270.45410156 C-38.02891891 270.46848267 -38.86545502 270.48286377 -39.7273407 270.49768066 C-43.35348728 270.47182579 -45.52885893 270.34860255 -48.48797607 268.15911865 C-51.23690547 264.23374113 -51.12738815 260.92542853 -51.13371277 256.25698853 C-51.13597833 255.56783273 -51.13824388 254.87867694 -51.14057809 254.16863763 C-51.14691976 251.85410738 -51.14608862 249.53963565 -51.14526367 247.22509766 C-51.14825507 245.56776351 -51.15165755 243.91043006 -51.15544128 242.25309753 C-51.16428766 237.74688111 -51.16661967 233.24068367 -51.16725707 228.7344594 C-51.16820584 224.97447648 -51.17188378 221.21449799 -51.17542917 217.45451677 C-51.18357621 208.5842589 -51.18601318 199.71401118 -51.18530273 190.84375 C-51.18470192 181.68984229 -51.19525393 172.5359935 -51.2110464 163.3821007 C-51.22411688 155.52639794 -51.22948684 147.67071445 -51.22884732 139.81500089 C-51.22859218 135.12166803 -51.23145216 130.42838751 -51.24202538 125.73506546 C-51.25169802 121.32084475 -51.25179126 116.90672651 -51.24450874 112.49250221 C-51.24346185 110.8723657 -51.24583198 109.25222284 -51.2518692 107.63209724 C-51.25957746 105.4202702 -51.25495221 103.20879807 -51.24723816 100.99697876 C-51.24778293 99.75922007 -51.24832769 98.52146137 -51.24888897 97.24619484 C-51.00127824 94.01667178 -50.52462011 91.84578402 -49 89 C-45.29878569 86.53252379 -42.5027494 86.73174045 -38.22387695 86.77294922 C-37.03816101 86.77251114 -37.03816101 86.77251114 -35.82849121 86.77206421 C-33.21497634 86.77345786 -30.60174634 86.78902062 -27.98828125 86.8046875 C-26.17653052 86.80841751 -24.36477776 86.81126454 -22.55302429 86.81326294 C-17.78378737 86.82090036 -13.0146722 86.8405498 -8.2454834 86.8626709 C-3.37916715 86.88312697 1.48716877 86.89226415 6.35351562 86.90234375 C15.90239725 86.92379558 25.4511885 86.95793286 35 87 C34.64866753 86.18244484 34.64866753 86.18244484 34.29023743 85.34837341 C28.40556806 71.65292179 22.53295045 57.95235655 16.67236328 44.24658203 C15.03300827 40.41297419 13.39128047 36.5804106 11.74560547 32.74951172 C10.18036359 29.10517454 8.62271167 25.45771373 7.07260132 21.80691528 C6.52917522 20.53065525 5.98286018 19.25562102 5.4335022 17.98190308 C0.40222482 6.30761654 0.40222482 6.30761654 0 0 Z M-46 93 C-46.30605432 96.05636325 -46.30605432 96.05636325 -46.25396729 99.71887207 C-46.25708727 100.41745724 -46.26020725 101.11604241 -46.26342177 101.83579683 C-46.27143039 104.18814185 -46.26506713 106.54023096 -46.25878906 108.89257812 C-46.26149766 110.57433728 -46.26505785 112.25609525 -46.26940918 113.93785095 C-46.2785511 118.51419656 -46.27498153 123.0904523 -46.26865101 127.66679955 C-46.26360032 132.44783146 -46.26827986 137.22885549 -46.27142334 142.0098877 C-46.27506571 150.03997179 -46.27025679 158.07001914 -46.26074219 166.10009766 C-46.24985712 175.39435473 -46.25338251 184.68852408 -46.264395 193.98277903 C-46.27346017 201.95136979 -46.27475693 209.91993409 -46.26951766 217.88852835 C-46.26639371 222.65275607 -46.26600023 227.41694251 -46.27259064 232.1811676 C-46.2783523 236.6593952 -46.27438894 241.13750928 -46.26280212 245.61572456 C-46.2601492 247.26291782 -46.26093135 248.91012058 -46.26532745 250.5573101 C-46.27075957 252.79871333 -46.26397761 255.03974842 -46.25396729 257.28112793 C-46.25321323 258.53769951 -46.25245918 259.79427109 -46.25168228 261.08892059 C-46.30374921 264.12529871 -46.30374921 264.12529871 -44 266 C-41.95861496 266.30249732 -41.95861496 266.30249732 -39.57403564 266.25168228 C-38.16958757 266.25950552 -38.16958757 266.25950552 -36.73676682 266.26748681 C-35.70118259 266.26302537 -34.66559837 266.25856392 -33.59863281 266.25396729 C-32.50394306 266.25708727 -31.40925331 266.26020725 -30.28139114 266.26342177 C-26.58858207 266.2714419 -22.89593549 266.26506251 -19.203125 266.25878906 C-16.56570957 266.26149715 -13.92830559 266.26498429 -11.29089355 266.26940918 C-4.85617769 266.27832058 1.57849162 266.27637342 8.01320934 266.2705839 C13.24102855 266.26607426 18.46883468 266.26545147 23.69665527 266.26763153 C24.43960366 266.267938 25.18255205 266.26824446 25.94801402 266.26856022 C27.4571155 266.26919964 28.96621697 266.26984807 30.47531843 266.2705054 C44.63912012 266.27621381 58.80289595 266.2696428 72.9666934 266.25890467 C85.1301523 266.24996869 97.29357304 266.25152059 109.45703125 266.26074219 C123.56880446 266.27143581 137.680555 266.27566444 151.7923317 266.26951766 C153.2960027 266.26888054 154.79967371 266.26825179 156.30334473 266.26763153 C157.04325488 266.26732298 157.78316503 266.26701443 158.5454967 266.26669653 C163.76939102 266.26496686 168.99327099 266.26789053 174.21716309 266.27259064 C180.57996964 266.27818941 186.94272682 266.27670427 193.30552769 266.26602915 C196.55434939 266.26075882 199.80307127 266.25980827 203.05189514 266.26532745 C206.56755794 266.27075137 210.08298523 266.26398725 213.59863281 266.25396729 C215.15200914 266.26065945 215.15200914 266.26065945 216.73676682 266.26748681 C217.67306553 266.26227132 218.60936424 266.25705582 219.57403564 266.25168228 C220.79245085 266.25119522 220.79245085 266.25119522 222.0354805 266.25069833 C224.23421394 266.17372496 224.23421394 266.17372496 226 264 C226.30605432 260.94363675 226.30605432 260.94363675 226.25396729 257.28112793 C226.25708727 256.58254276 226.26020725 255.88395759 226.26342177 255.16420317 C226.27143039 252.81185815 226.26506713 250.45976904 226.25878906 248.10742188 C226.26149766 246.42566272 226.26505785 244.74390475 226.26940918 243.06214905 C226.2785511 238.48580344 226.27498153 233.9095477 226.26865101 229.33320045 C226.26360032 224.55216854 226.26827986 219.77114451 226.27142334 214.9901123 C226.27506571 206.96002821 226.27025679 198.92998086 226.26074219 190.89990234 C226.24985712 181.60564527 226.25338251 172.31147592 226.264395 163.01722097 C226.27346017 155.04863021 226.27475693 147.08006591 226.26951766 139.11147165 C226.26639371 134.34724393 226.26600023 129.58305749 226.27259064 124.8188324 C226.2783523 120.3406048 226.27438894 115.86249072 226.26280212 111.38427544 C226.2601492 109.73708218 226.26093135 108.08987942 226.26532745 106.4426899 C226.27075957 104.20128667 226.26397761 101.96025158 226.25396729 99.71887207 C226.25321323 98.46230049 226.25245918 97.20572891 226.25168228 95.91107941 C226.30374921 92.87470129 226.30374921 92.87470129 224 91 C221.95861496 90.69750268 221.95861496 90.69750268 219.57403564 90.74831772 C218.16958757 90.74049448 218.16958757 90.74049448 216.73676682 90.73251319 C215.70118259 90.73697463 214.66559837 90.74143608 213.59863281 90.74603271 C211.95659819 90.74135274 211.95659819 90.74135274 210.28139114 90.73657823 C206.58858207 90.7285581 202.89593549 90.73493749 199.203125 90.74121094 C196.56570957 90.73850285 193.92830559 90.73501571 191.29089355 90.73059082 C184.85617769 90.72167942 178.42150838 90.72362658 171.98679066 90.7294161 C166.75897145 90.73392574 161.53116532 90.73454853 156.30334473 90.73236847 C155.56039634 90.732062 154.81744795 90.73175554 154.05198598 90.73143978 C152.5428845 90.73080036 151.03378303 90.73015193 149.52468157 90.7294946 C135.36087988 90.72378619 121.19710405 90.7303572 107.0333066 90.74109533 C94.8698477 90.75003131 82.70642696 90.74847941 70.54296875 90.73925781 C56.43119554 90.72856419 42.319445 90.72433556 28.2076683 90.73048234 C26.7039973 90.73111946 25.20032629 90.73174821 23.69665527 90.73236847 C22.95674512 90.73267702 22.21683497 90.73298557 21.4545033 90.73330347 C16.23060898 90.73503314 11.00672901 90.73210947 5.78283691 90.72740936 C-0.57996964 90.72181059 -6.94272682 90.72329573 -13.30552769 90.73397085 C-16.55434939 90.73924118 -19.80307127 90.74019173 -23.05189514 90.73467255 C-26.56755794 90.72924863 -30.08298523 90.73601275 -33.59863281 90.74603271 C-35.15200914 90.73934055 -35.15200914 90.73934055 -36.73676682 90.73251319 C-37.67306553 90.73772868 -38.60936424 90.74294418 -39.57403564 90.74831772 C-40.79245085 90.74880478 -40.79245085 90.74880478 -42.0354805 90.74930167 C-44.23421394 90.82627504 -44.23421394 90.82627504 -46 93 Z M49 277 C49 278.65 49 280.3 49 282 C49.66 282 50.32 282 51 282 C51 280.35 51 278.7 51 277 C50.34 277 49.68 277 49 277 Z " fill="#43210B" transform="translate(60,2)"/>
<path d="M0 0 C1.74179098 -0.00689423 3.48358175 -0.01384346 5.22537231 -0.02084351 C10.75571918 -0.03985883 16.28603086 -0.04450034 21.81640625 -0.046875 C22.75506908 -0.04775871 23.69373192 -0.04864243 24.66083908 -0.04955292 C51.9251071 -0.07235555 79.05746431 0.12630742 106.20147705 2.98425293 C108.62980255 3.22834474 111.06001174 3.43766934 113.49169922 3.64550781 C115.2132487 3.80237758 116.93476637 3.9595968 118.65625 4.1171875 C119.45366104 4.18110687 120.25107208 4.24502625 121.07264709 4.31088257 C126.55426838 4.83838369 130.25746065 5.89482716 134.11132812 10.08813477 C135.51867897 12.43633977 136.10459547 14.36536056 136.66015625 17.04296875 C136.8610083 18.00734863 137.06186035 18.97172852 137.26879883 19.96533203 C137.47013428 21.01317871 137.67146973 22.06102539 137.87890625 23.140625 C138.09248779 24.25034668 138.30606934 25.36006836 138.52612305 26.50341797 C145.91534587 66.55887235 150.83398383 123.97992494 134.03515625 162.265625 C130.0071651 166.97761465 123.63222508 166.75475154 117.86328125 167.23828125 C116.46943207 167.36365517 116.46943207 167.36365517 115.04742432 167.49156189 C113.0775063 167.66731869 111.10725708 167.83939682 109.13671875 168.00805664 C106.1802424 168.26122893 103.22487891 168.52502444 100.26953125 168.79101562 C47.17971005 173.51296834 -6.05812376 172.92784086 -59.14099121 168.41046143 C-60.84073872 168.26836263 -62.54106627 168.13308471 -64.24182129 168.00360107 C-66.83092321 167.80465532 -69.41714859 167.58267271 -72.00390625 167.35546875 C-73.17154007 167.27178795 -73.17154007 167.27178795 -74.36276245 167.18641663 C-79.40802016 166.7097258 -82.62332049 165.54858803 -86.62109375 162.203125 C-89.56296085 156.18776364 -90.60390479 149.90060052 -91.68359375 143.328125 C-91.8535083 142.3187085 -92.02342285 141.30929199 -92.19848633 140.26928711 C-93.6768013 131.27661839 -94.82860839 122.28107716 -95.62109375 113.203125 C-95.73324219 111.92953125 -95.84539062 110.6559375 -95.9609375 109.34375 C-102.04710077 27.63909235 -102.04710077 27.63909235 -85.87646484 8.09448242 C-83.26618415 5.9054973 -81.7887879 5.50960594 -78.44140625 5.05078125 C-76.8466748 4.83059326 -76.8466748 4.83059326 -75.21972656 4.60595703 C-69.0699202 3.91754587 -62.91811721 3.33001154 -56.75097656 2.82543945 C-54.51966418 2.64255688 -52.28913592 2.45179092 -50.05859375 2.25976562 C-33.36539118 0.85354537 -16.75015358 0.04165811 0 0 Z M-34.49609375 5.578125 C-35.67989624 5.64124878 -36.86369873 5.70437256 -38.08337402 5.76940918 C-45.60122482 6.17943556 -53.11198869 6.65615358 -60.62109375 7.203125 C-61.57342896 7.2700354 -62.52576416 7.3369458 -63.50695801 7.40588379 C-66.1541318 7.60036671 -68.79737836 7.8216634 -71.44140625 8.0546875 C-72.58777054 8.1379982 -72.58777054 8.1379982 -73.7572937 8.22299194 C-78.50812731 8.68777321 -81.34695201 9.68247977 -84.62109375 13.203125 C-85.52608228 15.3648667 -85.52608228 15.3648667 -85.6953125 17.72265625 C-85.80552734 18.58052734 -85.91574219 19.43839844 -86.02929688 20.32226562 C-86.12146484 21.21107422 -86.21363281 22.09988281 -86.30859375 23.015625 C-86.5164429 24.77266035 -86.72860775 26.52919112 -86.9453125 28.28515625 C-87.1007251 29.54513428 -87.1007251 29.54513428 -87.25927734 30.83056641 C-87.75486454 34.08030753 -88.63396237 37.0686879 -89.62109375 40.203125 C-90.66964575 43.73677433 -90.91298723 47.18257525 -91.15625 50.85546875 C-91.1993631 51.50338882 -91.2424762 52.1513089 -91.28689575 52.81886292 C-91.42448281 54.92581582 -91.55500142 57.03310489 -91.68359375 59.140625 C-91.75037827 60.21932861 -91.75037827 60.21932861 -91.81851196 61.31982422 C-93.2524399 84.79610411 -92.66418464 107.86278885 -89.62109375 131.203125 C-89.42193359 132.75700928 -89.42193359 132.75700928 -89.21875 134.34228516 C-88.77402239 137.71660669 -88.29579289 141.0846931 -87.80859375 144.453125 C-87.66768311 145.5248999 -87.52677246 146.5966748 -87.3815918 147.70092773 C-87.22730713 148.71743408 -87.07302246 149.73394043 -86.9140625 150.78125 C-86.78539795 151.68262695 -86.6567334 152.58400391 -86.52416992 153.51269531 C-85.30834913 157.13484862 -83.63629212 159.87219046 -80.62109375 162.203125 C-77.61888366 162.93608125 -75.3113965 163.2849183 -72.28515625 163.41015625 C-71.48757904 163.46588303 -70.69000183 163.5216098 -69.86825562 163.57902527 C-67.32841909 163.75093533 -64.78831651 163.88422217 -62.24609375 164.015625 C-59.7121436 164.17369522 -57.17878113 164.33954953 -54.64535522 164.50578308 C-53.07303257 164.6059707 -51.50029127 164.69986188 -49.92715454 164.78633118 C-45.4415448 165.03796477 -41.07024093 165.5520148 -36.62109375 166.203125 C-20.17245127 167.68877107 -3.59432891 167.40024951 12.90626144 167.39160156 C15.26979543 167.39061839 17.63332291 167.39160872 19.99685669 167.39282227 C45.49959185 167.39769682 70.92099951 166.80798256 96.37890625 165.203125 C96.37890625 164.543125 96.37890625 163.883125 96.37890625 163.203125 C97.38308594 163.21472656 98.38726562 163.22632813 99.421875 163.23828125 C114.1107559 163.76063311 114.1107559 163.76063311 128.37890625 161.203125 C130.96722207 158.38919327 131.89380905 155.99652744 132.56640625 152.265625 C132.72496094 151.43160156 132.88351563 150.59757813 133.046875 149.73828125 C133.37997383 147.19497371 133.43848359 144.76495053 133.37890625 142.203125 C134.03890625 142.203125 134.69890625 142.203125 135.37890625 142.203125 C142.38479369 103.58689702 141.74352662 62.65736326 134.00390625 24.203125 C133.81932861 23.25832275 133.63475098 22.31352051 133.44458008 21.34008789 C132.2497856 15.99198379 131.21193132 12.27323522 126.37890625 9.203125 C117.48220623 6.89909958 108.01846097 6.68195976 98.87890625 6.140625 C98.20518982 6.09987854 97.53147339 6.05913208 96.83734131 6.01715088 C92.01881051 5.72681018 87.1992943 5.46074386 82.37890625 5.203125 C80.72616699 5.11200439 80.72616699 5.11200439 79.04003906 5.01904297 C41.27243121 3.04028966 3.24917515 3.54521764 -34.49609375 5.578125 Z " fill="#3B1F0B" transform="translate(111.62109375,94.796875)"/>
<path d="M0 0 C3.3249149 2.06615171 6.23445396 4.46890792 8 8 C9.04614595 17.2808091 9.04614595 17.2808091 6.8828125 20.8359375 C5.5 22.1875 5.5 22.1875 3 24 C4.7015625 24.2165625 4.7015625 24.2165625 6.4375 24.4375 C10 25 10 25 11 26 C11.09868509 27.65191396 11.12798837 29.30803217 11.12939453 30.96289062 C11.13254669 32.02068726 11.13569885 33.07848389 11.13894653 34.16833496 C11.1369223 35.31934692 11.13489807 36.47035889 11.1328125 37.65625 C11.13424759 39.41515564 11.13424759 39.41515564 11.13571167 41.20959473 C11.1363937 43.69458062 11.13453784 46.17956829 11.13037109 48.66455078 C11.12502319 52.48343887 11.13031536 56.30220935 11.13671875 60.12109375 C11.13605797 62.52864609 11.13477682 64.93619837 11.1328125 67.34375 C11.13483673 68.49476196 11.13686096 69.64577393 11.13894653 70.83166504 C11.13579437 71.88946167 11.13264221 72.9472583 11.12939453 74.03710938 C11.12859894 74.97341187 11.12780334 75.90971436 11.12698364 76.87438965 C11 79 11 79 10 80 C8.48530552 80.23192865 6.96245438 80.41215238 5.4375 80.5625 C4.61121094 80.64628906 3.78492188 80.73007813 2.93359375 80.81640625 C2.29550781 80.87699219 1.65742188 80.93757813 1 81 C1.94875 81.721875 2.8975 82.44375 3.875 83.1875 C6.69877794 85.57736407 8.22049599 87.27570305 9 91 C9.0614409 95.30963994 8.50011921 98.23315054 6.125 101.875 C2.67754131 105.32245869 0.47787211 106.32486331 -4.3125 106.4375 C-7.92395584 106.35151296 -10.58843585 106.19734803 -13.5625 104.0625 C-16.65768687 100.17367547 -17.88064393 96.97032775 -18 92 C-16.53019483 86.72599321 -14.51632793 84.05157293 -10 81 C-12.31 80.67 -14.62 80.34 -17 80 C-17 61.85 -17 43.7 -17 25 C-15.35 24.67 -13.7 24.34 -12 24 C-12.825 23.21625 -13.65 22.4325 -14.5 21.625 C-17.43296143 18.0701499 -17.78140847 15.00523146 -17.5625 10.4765625 C-16.62556538 6.35144758 -14.27013056 3.60178271 -11 1 C-7.24464589 -0.2517847 -3.88289586 -0.77373976 0 0 Z " fill="#47230E" transform="translate(274,126)"/>
<path d="M0 0 C0.81336095 0.00075944 1.62672189 0.00151888 2.46473014 0.00230134 C3.87102831 -0.00367181 3.87102831 -0.00367181 5.30573654 -0.00976562 C6.342685 -0.00393994 7.37963346 0.00188574 8.4480046 0.00788796 C10.09215593 0.00532468 10.09215593 0.00532468 11.76952243 0.00270963 C15.46701088 -0.0006022 19.16432053 0.01044628 22.86179245 0.02134621 C25.50245215 0.02190996 28.14310067 0.02168268 30.783759 0.0204612 C36.48157393 0.01941095 42.17934316 0.02570212 47.8771466 0.03693688 C56.11527332 0.05317003 64.35337788 0.05839764 72.59151886 0.06091286 C85.95636218 0.06529341 99.32118112 0.07861224 112.6860112 0.09751809 C125.67103599 0.1158676 138.65605418 0.13002864 151.64108932 0.13853371 C152.84107337 0.13932188 152.84107337 0.13932188 154.06529953 0.14012598 C158.07848931 0.14273599 162.09167914 0.14526342 166.10486901 0.14774978 C199.4143234 0.16849347 232.7237483 0.20372875 266.03317916 0.24839699 C266.03317916 0.57839699 266.03317916 0.90839699 266.03317916 1.24839699 C265.48017859 1.25262893 264.92717802 1.25686087 264.35741985 1.26122105 C228.59176856 1.53533952 192.82636492 1.83143559 157.06109512 2.15118706 C149.39344947 2.21948703 141.72578459 2.28409182 134.05808151 2.34556496 C84.59842468 2.71868317 84.59842468 2.71868317 35.26242721 6.0322715 C33.68029936 6.18565872 32.09772618 6.33448315 30.51486862 6.48014748 C27.92118077 6.7190843 25.32871848 6.96870709 22.73630416 7.22105324 C21.94020736 7.29359826 21.14411056 7.36614327 20.32388961 7.44088662 C13.16276511 8.11866231 13.16276511 8.11866231 7.30295455 12.00572121 C5.76440763 14.72310096 5.25357531 17.05468914 4.71677291 20.13120949 C4.51084518 21.28975441 4.30491745 22.44829934 4.09274948 23.64195168 C3.88746627 24.87332863 3.68218307 26.10470559 3.47067916 27.37339699 C3.2537944 28.63571145 3.03690963 29.8980259 2.8134526 31.19859231 C1.18785507 40.85597368 -0.15980525 50.48930736 -0.96682084 60.24839699 C-1.07768021 61.51554543 -1.18853959 62.78269387 -1.30275834 64.08824074 C-3.49219809 93.23145913 -1.40086438 122.55702153 4.03317916 151.24839699 C4.22669967 152.33153176 4.42022018 153.41466652 4.61960495 154.53062356 C4.8398735 155.59506691 5.06014205 156.65951027 5.28708541 157.75620949 C5.4773027 158.71414406 5.66751998 159.67207863 5.86350143 160.65904152 C7.55057822 164.39378093 9.37648382 165.43168996 13.03317916 167.24839699 C16.20880957 167.97623589 19.36600309 168.24256303 22.61130416 168.47886574 C23.53675033 168.55961846 24.4621965 168.64037117 25.41568649 168.72357094 C28.37041857 168.97714082 31.32647674 169.20658099 34.28317916 169.43589699 C36.22341283 169.60039225 38.16351932 169.76639486 40.10349166 169.93394387 C58.35392249 171.48266891 76.59882982 172.42941886 94.90817916 172.87339699 C95.82119796 172.89618721 96.73421676 172.91897744 97.6749028 172.94245827 C122.13412501 173.52230826 146.58093682 172.89965929 171.03317916 172.24839699 C171.03317916 172.57839699 171.03317916 172.90839699 171.03317916 173.24839699 C218.05817916 173.74339699 218.05817916 173.74339699 266.03317916 174.24839699 C266.03317916 174.57839699 266.03317916 174.90839699 266.03317916 175.24839699 C231.92561225 175.29413554 197.81805232 175.3293964 163.71046139 175.35052765 C159.68733731 175.35302918 155.6642133 175.35561782 151.64108932 175.35826027 C150.43964911 175.35904721 150.43964911 175.35904721 149.21393739 175.35985003 C136.23049402 175.36856197 123.2470683 175.38433626 110.26363541 175.40270258 C96.94982075 175.42137974 83.63601536 175.43250908 70.32218814 175.43657398 C62.10124834 175.43932359 53.8803584 175.44802015 45.65943395 175.46422993 C40.02850967 175.47476988 34.39761131 175.47800443 28.76667787 175.47539975 C25.5138129 175.47411377 22.26105419 175.47721872 19.00820053 175.48680794 C15.48806417 175.49668083 11.96814544 175.49439402 8.4480046 175.48890603 C7.41105614 175.49473171 6.37410768 175.50055739 5.30573654 175.50655961 C4.36820443 175.50257751 3.43067232 175.49859542 2.46473014 175.49449265 C1.24468872 175.49563181 1.24468872 175.49563181 0 175.49679399 C-1.96682084 175.24839699 -1.96682084 175.24839699 -3.96682084 173.24839699 C-4.21850312 170.33731759 -4.21850312 170.33731759 -4.22078812 166.52952492 C-4.22546809 165.48164716 -4.22546809 165.48164716 -4.23024261 164.41260016 C-4.23825122 162.06025514 -4.23188797 159.70816604 -4.2256099 157.35581887 C-4.2283185 155.67405971 -4.23187868 153.99230175 -4.23623002 152.31054604 C-4.24537194 147.73420043 -4.24180236 143.15794469 -4.23547184 138.58159745 C-4.23042116 133.80056553 -4.23510069 129.0195415 -4.23824418 124.2385093 C-4.24188655 116.2084252 -4.23707763 108.17837786 -4.22756302 100.14829934 C-4.21667796 90.85404226 -4.22020334 81.55987292 -4.23121583 72.26561797 C-4.24028101 64.2970272 -4.24157777 56.3284629 -4.2363385 48.35986865 C-4.23321455 43.59564092 -4.23282106 38.83145449 -4.23941147 34.06722939 C-4.24517314 29.58900179 -4.24120978 25.11088771 -4.22962296 20.63267243 C-4.22697003 18.98547917 -4.22775218 17.33827642 -4.23214829 15.69108689 C-4.2375804 13.44968366 -4.23079844 11.20864857 -4.22078812 8.96726906 C-4.22003407 7.71069748 -4.21928002 6.45412591 -4.21850312 5.1594764 C-3.93236209 1.84983038 -3.47105909 0.43837274 0 0 Z " fill="#6C301A" transform="translate(17.9668208360672,92.75160300731659)"/>
<path d="M0 0 C1.91470844 -0.13547465 3.83218481 -0.23220869 5.75 -0.3125 C6.81734375 -0.37050781 7.8846875 -0.42851563 8.984375 -0.48828125 C12 0 12 0 13.99682617 2.00537109 C16.44548134 5.66596882 17.71976752 9.23462833 19.06640625 13.40234375 C19.34200378 14.22509293 19.61760132 15.0478421 19.90155029 15.89552307 C20.49152506 17.6593608 21.07699592 19.42471031 21.65835571 21.19140625 C23.18268005 25.82112917 24.74136257 30.43927571 26.296875 35.05859375 C26.60768509 35.98421112 26.91849518 36.90982849 27.23872375 37.86349487 C30.13295574 46.45745069 33.1814801 54.9898333 36.3125 63.5 C36.54687775 64.14105682 36.78125549 64.78211365 37.0227356 65.44259644 C38.79056145 71.64695854 38.79056145 71.64695854 42 77 C44.29564164 70.91815983 46.58691785 64.8346882 48.875 58.75 C49.21436584 57.84772675 49.55373169 56.94545349 49.90338135 56.01583862 C54.77189572 43.06095453 59.54267391 30.07856452 64.11669922 17.01660156 C64.48811035 15.96053711 64.85952148 14.90447266 65.2421875 13.81640625 C65.5604248 12.90318604 65.87866211 11.98996582 66.20654297 11.04907227 C67 9 67 9 68 8 C71.4375 7.8125 71.4375 7.8125 75 8 C77 10 77 10 77.27636719 13.24951172 C76.99127996 17.1183368 76.22142221 19.52047118 74.578125 23.0078125 C74.05275146 24.14565186 73.52737793 25.28349121 72.98608398 26.45581055 C72.5617659 27.35219742 72.5617659 27.35219742 72.12887573 28.26669312 C70.61603906 31.4654557 69.14809865 34.68478134 67.67578125 37.90234375 C67.37104385 38.56573257 67.06630646 39.2291214 66.75233459 39.91261292 C63.46741828 47.09654322 60.43493156 54.37991923 57.4375 61.6875 C56.70611816 63.46568115 56.70611816 63.46568115 55.95996094 65.27978516 C53.27168854 71.83935715 50.62322303 78.41416712 48 85 C44.04 85 40.08 85 36 85 C30.57726025 74.52523243 25.92920776 63.78559938 21.3125 52.9375 C20.51376567 51.06688923 19.71501882 49.19628381 18.91625977 47.32568359 C14.35296204 36.62107169 9.83887875 25.89725192 5.4375 15.125 C4.99124268 14.03437256 4.54498535 12.94374512 4.08520508 11.82006836 C0.87914578 3.89872298 0.87914578 3.89872298 0 0 Z " fill="#71301A" transform="translate(62,4)"/>
<path d="M0 0 C3.88441444 3.05473369 5.58083543 5.94915484 6.671875 10.640625 C7.53387122 18.25492491 7.47791353 24.92766516 4.046875 31.953125 C1.91726864 34.57417898 0.31924126 36.38275392 -2.765625 37.765625 C-6.14962517 38.05568216 -9.55671656 37.953125 -12.953125 37.953125 C-13.283125 44.553125 -13.613125 51.153125 -13.953125 57.953125 C-21.953125 57.953125 -21.953125 57.953125 -23.953125 56.953125 C-23.953125 38.143125 -23.953125 19.333125 -23.953125 -0.046875 C-6.13245631 -3.28699658 -6.13245631 -3.28699658 0 0 Z M-13.953125 7.953125 C-13.98201014 11.09893923 -13.99988423 14.24471969 -14.015625 17.390625 C-14.02400391 18.28845703 -14.03238281 19.18628906 -14.04101562 20.11132812 C-14.04423828 20.96533203 -14.04746094 21.81933594 -14.05078125 22.69921875 C-14.05601807 23.48997803 -14.06125488 24.2807373 -14.06665039 25.09545898 C-14.15808409 26.96905189 -14.15808409 26.96905189 -12.953125 27.953125 C-8.92152309 28.21605556 -7.39419766 28.24717344 -3.953125 25.953125 C-2.97036912 23.00485737 -2.81897775 21.02659996 -2.828125 17.953125 C-2.82554687 17.086875 -2.82296875 16.220625 -2.8203125 15.328125 C-2.85718295 12.80300805 -2.85718295 12.80300805 -3.953125 9.953125 C-7.5973024 7.5236734 -9.66553772 7.79132925 -13.953125 7.953125 Z " fill="#6F2F19" transform="translate(165.953125,25.046875)"/>
<path d="M0 0 C4.11196058 2.36219012 5.63055998 4.53777547 7 9 C7.16557141 11.82379366 7.23353164 14.54328634 7.1953125 17.36328125 C7.1924826 18.15526413 7.18965271 18.94724701 7.18673706 19.76322937 C7.17558863 22.27980999 7.15049422 24.79602789 7.125 27.3125 C7.11496329 29.02408338 7.10583864 30.73567237 7.09765625 32.44726562 C7.07566681 36.63164906 7.04117408 40.81576314 7 45 C0.65536834 45.35913009 0.65536834 45.35913009 -1.90551758 43.95581055 C-3.56656984 40.98755499 -3.48074912 38.0244423 -3.51171875 34.70703125 C-3.53864555 33.64798836 -3.53864555 33.64798836 -3.56611633 32.56755066 C-3.62023178 30.31592759 -3.65411722 28.06451657 -3.6875 25.8125 C-3.72067219 24.28447569 -3.75516177 22.75647937 -3.79101562 21.22851562 C-3.87595825 17.48583011 -3.94276248 13.74320759 -4 10 C-6.64 10.66 -9.28 11.32 -12 12 C-12 22.89 -12 33.78 -12 45 C-19 45 -19 45 -22 43 C-22.36076355 41.16500854 -22.36076355 41.16500854 -22.34057617 38.91748047 C-22.34034958 38.07675995 -22.34012299 37.23603943 -22.33988953 36.36984253 C-22.32440567 35.46146637 -22.30892181 34.55309021 -22.29296875 33.6171875 C-22.28872391 32.68778351 -22.28447906 31.75837952 -22.28010559 30.80081177 C-22.26328012 27.82524944 -22.22562103 24.85035844 -22.1875 21.875 C-22.17245816 19.86068685 -22.15876888 17.84636311 -22.14648438 15.83203125 C-22.11336394 10.88776121 -22.06155529 5.94399451 -22 1 C-20.84371094 1.01740234 -20.84371094 1.01740234 -19.6640625 1.03515625 C-18.15972656 1.04869141 -18.15972656 1.04869141 -16.625 1.0625 C-15.12839844 1.07990234 -15.12839844 1.07990234 -13.6015625 1.09765625 C-8.86348189 0.91980037 -5.03352507 -0.6270135 0 0 Z " fill="#43210B" transform="translate(228,38)"/>
<path d="M0 0 C1.1034375 -0.01675781 2.206875 -0.03351562 3.34375 -0.05078125 C6.91867452 0.36068902 8.68050744 1.09649472 11.5 3.3125 C14.87594464 7.62668629 14.89704472 11.62801636 14.79296875 16.89453125 C14.78872391 17.70871017 14.78447906 18.5228891 14.78010559 19.36174011 C14.76337753 21.94983668 14.72573712 24.53714071 14.6875 27.125 C14.67244553 28.88475434 14.65875846 30.64452095 14.64648438 32.40429688 C14.61349336 36.70733437 14.5617524 41.00978303 14.5 45.3125 C10.93372254 45.35634767 7.94492052 45.17373013 4.5 44.3125 C3.51 44.8075 3.51 44.8075 2.5 45.3125 C-2.63501648 45.94869673 -6.3016356 46.19293099 -10.5625 43.0625 C-14.33227467 37.71185208 -14.0292423 31.67285832 -13.5 25.3125 C-11.92088796 21.52263111 -9.96675336 19.47922085 -6.5 17.3125 C-3.61788698 16.35179566 -1.80149956 16.20668117 1.1875 16.25 C2.39986328 16.26353516 2.39986328 16.26353516 3.63671875 16.27734375 C4.55904297 16.29474609 4.55904297 16.29474609 5.5 16.3125 C4.84 14.6625 4.18 13.0125 3.5 11.3125 C2.50097656 11.25191406 1.50195312 11.19132812 0.47265625 11.12890625 C-0.81769531 11.04511719 -2.10804688 10.96132813 -3.4375 10.875 C-5.36916016 10.75318359 -5.36916016 10.75318359 -7.33984375 10.62890625 C-10.5 10.3125 -10.5 10.3125 -11.5 9.3125 C-11.54092937 6.97952567 -11.54241723 4.64544775 -11.5 2.3125 C-7.55217867 0.46380009 -4.34690758 0.01523449 0 0 Z M-3.4375 26.4375 C-4.98138276 29.16199899 -4.8267107 31.24141945 -4.5 34.3125 C-3.84 34.9725 -3.18 35.6325 -2.5 36.3125 C2.00317123 35.95986215 2.00317123 35.95986215 5.5 33.3125 C5.74212873 31.33121492 5.74212873 31.33121492 5.625 29.1875 C5.58375 27.90875 5.5425 26.63 5.5 25.3125 C0.84048964 24.9275192 0.84048964 24.9275192 -3.4375 26.4375 Z " fill="#70301A" transform="translate(187.5,37.6875)"/>
<path d="M0 0 C5.42730472 5.09837716 6.83581764 10.73596882 7.23046875 18.05078125 C7.32986859 34.33247481 7.32986859 34.33247481 2.8125 40.375 C-0.73911142 43.68445609 -3.26363502 44.90437247 -8.14453125 44.96484375 C-13.1829832 44.63897372 -16.4519024 43.83316791 -19.9375 39.9375 C-25.30970721 31.11173102 -24.61686018 19.31766871 -22.66796875 9.5078125 C-21.4820948 5.33505818 -19.93569405 2.19562218 -16.14453125 -0.19140625 C-11.10958945 -2.17864877 -5.02491028 -1.81752074 0 0 Z M-11.6875 9.0625 C-15.1828736 14.3055604 -14.28717712 21.91166863 -13.9375 27.9375 C-13.09447007 31.49292252 -13.09447007 31.49292252 -11.9375 33.9375 C-9.03676819 34.61551034 -9.03676819 34.61551034 -5.9375 34.9375 C-2.14625651 31.14625651 -2.77557381 26.66079479 -2.75 21.5 C-2.72873047 19.55287109 -2.72873047 19.55287109 -2.70703125 17.56640625 C-2.9236607 14.15541033 -3.3094008 11.92048997 -4.9375 8.9375 C-7.75117731 7.78317085 -9.07626 7.38384571 -11.6875 9.0625 Z " fill="#6F2F19" transform="translate(261.9375,39.0625)"/>
<path d="M0 0 C4.53897705 -0.02465392 9.07791543 -0.04283789 13.61694336 -0.05493164 C15.16219766 -0.0599714 16.70744716 -0.0668032 18.25268555 -0.07543945 C20.46925029 -0.08752076 22.68575218 -0.09323173 24.90234375 -0.09765625 C25.5971434 -0.10281754 26.29194305 -0.10797882 27.00779724 -0.11329651 C28.6722933 -0.11349277 30.33665499 -0.06189129 32 0 C33 1 33 1 33.09765625 3.06640625 C33.06510417 5.37760417 33.03255208 7.68880208 33 10 C29.37 10 25.74 10 22 10 C22 26.17 22 42.34 22 59 C14 59 14 59 12 58 C12 42.16 12 26.32 12 10 C8.37 10 4.74 10 1 10 C0 9 0 9 -0.09765625 6.93359375 C-0.08605469 6.10988281 -0.07445313 5.28617188 -0.0625 4.4375 C-0.05347656 3.61121094 -0.04445313 2.78492188 -0.03515625 1.93359375 C-0.02355469 1.29550781 -0.01195313 0.65742188 0 0 Z " fill="#45220C" transform="translate(30,24)"/>
<path d="M0 0 C1.32 0.33 2.64 0.66 4 1 C4 1.66 4 2.32 4 3 C4.66 3.33 5.32 3.66 6 4 C6.33 2.68 6.66 1.36 7 0 C8.65 0.33 10.3 0.66 12 1 C12 1.66 12 2.32 12 3 C12.474375 3.4125 12.94875 3.825 13.4375 4.25 C15.70477073 6.78934321 15.9325334 8.62666976 16 12 C14.0625 14.875 14.0625 14.875 12 17 C12.474375 17.37125 12.94875 17.7425 13.4375 18.125 C15.62064369 20.74477242 15.93088668 22.61344731 16 26 C14.0625 28.25 14.0625 28.25 12 30 C11.77390663 32.12364481 11.77390663 32.12364481 13.5 33.625 C13.995 34.07875 14.49 34.5325 15 35 C14.67 35.66 14.34 36.32 14 37 C13.01 37 12.02 37 11 37 C10.67 38.32 10.34 39.64 10 41 C9.01 41 8.02 41 7 41 C7.61277612 38.03824877 8.25372522 36.61941217 10 34 C9.01 34 8.02 34 7 34 C7 34.99 7 35.98 7 37 C5.68 37 4.36 37 3 37 C3 38.32 3 39.64 3 41 C2.01 41 1.02 41 0 41 C-0.33 41.99 -0.66 42.98 -1 44 C-3.0625 45.1875 -3.0625 45.1875 -5 46 C-5.05404449 43.24973583 -5.09369306 40.50053797 -5.125 37.75 C-5.14175781 36.97269531 -5.15851563 36.19539063 -5.17578125 35.39453125 C-5.23662606 28.27568856 -5.23662606 28.27568856 -3 25 C-2.34 25 -1.68 25 -1 25 C-1 24.01 -1 23.02 -1 22 C-1.99 22 -2.98 22 -4 22 C-4 20.68 -4 19.36 -4 18 C-3.01 18 -2.02 18 -1 18 C-0.67 17.01 -0.34 16.02 0 15 C0.99 15 1.98 15 3 15 C3 14.01 3 13.02 3 12 C2.01 12 1.02 12 0 12 C-0.33 12.99 -0.66 13.98 -1 15 C-1.99 15 -2.98 15 -4 15 C-3.67 13.68 -3.34 12.36 -3 11 C-2.34 11 -1.68 11 -1 11 C-1 10.01 -1 9.02 -1 8 C-1.99 8 -2.98 8 -4 8 C-4 6.68 -4 5.36 -4 4 C-3.01 4 -2.02 4 -1 4 C-0.67 2.68 -0.34 1.36 0 0 Z " fill="#39231A" transform="translate(265,156)"/>
<path d="M0 0 C1.1034375 -0.01675781 2.206875 -0.03351562 3.34375 -0.05078125 C6.91867452 0.36068902 8.68050744 1.09649472 11.5 3.3125 C14.87594464 7.62668629 14.89704472 11.62801636 14.79296875 16.89453125 C14.78872391 17.70871017 14.78447906 18.5228891 14.78010559 19.36174011 C14.76337753 21.94983668 14.72573712 24.53714071 14.6875 27.125 C14.67244553 28.88475434 14.65875846 30.64452095 14.64648438 32.40429688 C14.61349336 36.70733437 14.5617524 41.00978303 14.5 45.3125 C10.93372254 45.35634767 7.94492052 45.17373013 4.5 44.3125 C3.51 44.8075 3.51 44.8075 2.5 45.3125 C-2.63501648 45.94869673 -6.3016356 46.19293099 -10.5625 43.0625 C-14.33227467 37.71185208 -14.0292423 31.67285832 -13.5 25.3125 C-11.92088796 21.52263111 -9.96675336 19.47922085 -6.5 17.3125 C-3.61788698 16.35179566 -1.80149956 16.20668117 1.1875 16.25 C2.39986328 16.26353516 2.39986328 16.26353516 3.63671875 16.27734375 C4.55904297 16.29474609 4.55904297 16.29474609 5.5 16.3125 C4.84 14.6625 4.18 13.0125 3.5 11.3125 C2.50097656 11.25191406 1.50195312 11.19132812 0.47265625 11.12890625 C-0.81769531 11.04511719 -2.10804688 10.96132813 -3.4375 10.875 C-5.36916016 10.75318359 -5.36916016 10.75318359 -7.33984375 10.62890625 C-10.5 10.3125 -10.5 10.3125 -11.5 9.3125 C-11.54092937 6.97952567 -11.54241723 4.64544775 -11.5 2.3125 C-7.55217867 0.46380009 -4.34690758 0.01523449 0 0 Z M-8.5 4.3125 C-8.5 5.3025 -8.5 6.2925 -8.5 7.3125 C-3.55 7.6425 1.4 7.9725 6.5 8.3125 C7.16 11.9425 7.82 15.5725 8.5 19.3125 C7.61957031 19.26609375 6.73914063 19.2196875 5.83203125 19.171875 C4.67058594 19.13578125 3.50914062 19.0996875 2.3125 19.0625 C1.16394531 19.01609375 0.01539063 18.9696875 -1.16796875 18.921875 C-5.13979862 19.3875057 -6.68771485 20.53620387 -9.5 23.3125 C-11.59443056 27.50136113 -10.91314196 32.74971156 -10.5 37.3125 C-9.34241028 40.70144779 -9.34241028 40.70144779 -6.5 42.3125 C-3.34769703 43.00647715 -0.64824828 43.04074249 2.5 42.3125 C5.56724457 39.99993996 5.56724457 39.99993996 7.5 37.3125 C8.16 38.9625 8.82 40.6125 9.5 42.3125 C10.16 42.3125 10.82 42.3125 11.5 42.3125 C11.62391876 37.56202648 11.71448561 32.81250039 11.7746582 28.06079102 C11.79974959 26.44571539 11.83383126 24.83075274 11.87719727 23.21606445 C11.93809286 20.88985294 11.96626124 18.56514641 11.98828125 16.23828125 C12.01408768 15.52037918 12.0398941 14.80247711 12.06648254 14.06282043 C12.06865643 10.14666162 11.62115994 8.46677868 9.17333984 5.34985352 C5.8134442 2.78927551 3.98836441 2.75656175 -0.1875 2.9375 C-1.89486328 2.98777344 -1.89486328 2.98777344 -3.63671875 3.0390625 C-6.44221547 3.13354146 -6.44221547 3.13354146 -8.5 4.3125 Z " fill="#44210B" transform="translate(187.5,37.6875)"/>
<path d="M0 0 C3.88441444 3.05473369 5.58083543 5.94915484 6.671875 10.640625 C7.53387122 18.25492491 7.47791353 24.92766516 4.046875 31.953125 C1.91726864 34.57417898 0.31924126 36.38275392 -2.765625 37.765625 C-6.14962517 38.05568216 -9.55671656 37.953125 -12.953125 37.953125 C-13.283125 44.553125 -13.613125 51.153125 -13.953125 57.953125 C-21.953125 57.953125 -21.953125 57.953125 -23.953125 56.953125 C-23.953125 38.143125 -23.953125 19.333125 -23.953125 -0.046875 C-6.13245631 -3.28699658 -6.13245631 -3.28699658 0 0 Z M-20.953125 1.953125 C-20.953125 19.443125 -20.953125 36.933125 -20.953125 54.953125 C-19.633125 54.953125 -18.313125 54.953125 -16.953125 54.953125 C-16.953125 48.023125 -16.953125 41.093125 -16.953125 33.953125 C-15.963125 34.283125 -14.973125 34.613125 -13.953125 34.953125 C-9.89000733 35.44265725 -5.78829456 35.85389051 -2.03515625 34.01171875 C1.26036701 31.41598562 2.81763165 28.88002909 4.046875 24.953125 C4.39961829 21.57497602 4.39961829 21.57497602 4.359375 18.015625 C4.37613281 16.83097656 4.39289063 15.64632812 4.41015625 14.42578125 C3.92166076 9.75618459 2.55250481 6.31760202 -0.953125 3.140625 C-4.48938136 1.04097278 -7.36372505 0.81719718 -11.390625 0.828125 C-12.81181641 0.82425781 -12.81181641 0.82425781 -14.26171875 0.8203125 C-17.20376998 0.87806816 -17.20376998 0.87806816 -20.953125 1.953125 Z " fill="#43210B" transform="translate(165.953125,25.046875)"/>
<path d="M0 0 C0.33 0 0.66 0 1 0 C1 3.63 1 7.26 1 11 C1.99 11.495 1.99 11.495 3 12 C2.65467424 13.4449157 2.2722606 14.88099196 1.875 16.3125 C1.66617188 17.11300781 1.45734375 17.91351563 1.2421875 18.73828125 C-0.57253159 22.0424396 -2.5130997 22.58751151 -6 24 C-9.2459466 24.62388138 -12.49657165 24.90271095 -15.7890625 25.16796875 C-16.72873871 25.25250809 -17.66841492 25.33704742 -18.63656616 25.42414856 C-20.62130369 25.60028612 -22.60657007 25.77055119 -24.59228516 25.93530273 C-27.59540554 26.18503896 -30.59642676 26.45318226 -33.59765625 26.72460938 C-43.07806159 27.56104611 -52.47531313 28.33013855 -62 28 C-62 27.01 -62 26.02 -62 25 C-62.94407715 25.0714624 -63.8881543 25.1429248 -64.86083984 25.21655273 C-79.42763743 26.21716826 -93.99226142 26.11759434 -108.58612061 26.06866455 C-112.02615735 26.0582636 -115.46620192 26.05383175 -118.90625 26.04882812 C-125.60418638 26.0379181 -132.30208892 26.02127255 -139 26 C-139 25.67 -139 25.34 -139 25 C-138.32222504 24.98969254 -137.64445007 24.97938507 -136.94613647 24.96876526 C-130.44839792 24.86935406 -123.95071915 24.76668342 -117.45308495 24.66066074 C-114.11539218 24.6063059 -110.77769225 24.55342069 -107.43994141 24.50268555 C-93.67305743 24.29268223 -79.92587166 24.02095649 -66.17376709 23.33377075 C-59.65337917 23.01146045 -53.15397283 22.87425362 -46.625 22.9375 C-45.67496094 22.94201172 -44.72492188 22.94652344 -43.74609375 22.95117188 C-41.49731365 22.96252935 -39.24870292 22.97863699 -37 23 C-37 22.34 -37 21.68 -37 21 C-35.56164795 20.94054199 -35.56164795 20.94054199 -34.09423828 20.87988281 C-30.54107501 20.72788247 -26.98956277 20.55044151 -23.43798828 20.36523438 C-21.89990809 20.28860636 -20.36146652 20.21890807 -18.82275391 20.15625 C-16.61229179 20.06503815 -14.40432237 19.94906756 -12.1953125 19.828125 C-11.50567413 19.80502258 -10.81603577 19.78192017 -10.10549927 19.75811768 C-7.94528278 19.66840429 -7.94528278 19.66840429 -5 19 C-2.44963909 15.67204654 -2.12742625 11.31156616 -1.375 7.25 C-1.2409375 6.55261719 -1.106875 5.85523438 -0.96875 5.13671875 C-0.64056736 3.42548068 -0.31956498 1.71286829 0 0 Z " fill="#3C2715" transform="translate(245,237)"/>
<path d="M0 0 C3.11141288 1.6437653 5.28893717 3.03036886 7.375 5.875 C8.23855538 8.81108828 8.36658209 10.94514926 8 14 C5.96006092 17.6578218 4.49580738 19.66946174 1 22 C-3.59271203 22.73965025 -7.02462089 22.60961194 -11 20.125 C-14.47902736 16.42853343 -14.38781166 13.40391772 -14.359375 8.484375 C-14 6 -14 6 -11.625 2.9375 C-7.49878454 -0.10803998 -5.16827351 -0.43068946 0 0 Z " fill="#9E6F44" transform="translate(273,128)"/>
<path d="M0 0 C3.8047762 2.94080955 5.74262581 5.79892045 6.75 10.5 C5.7365313 15.22952059 4.06674649 18.27279328 0 21 C-4.96424774 22.17178416 -8.71561724 21.78635679 -13.0625 19.125 C-16.44056346 15.42002717 -16.45007272 12.36258114 -16.421875 7.484375 C-15.94012242 4.64738758 -15.36006881 3.7658995 -13.1875 1.9375 C-8.32071446 -1.02074219 -5.5233693 -1.49786286 0 0 Z " fill="#8F7151" transform="translate(275,209)"/>
<path d="M0 0 C0.66 0.66 1.32 1.32 2 2 C3.95327807 2.20099277 3.95327807 2.20099277 6.19921875 2.01171875 C7.08158203 1.96466797 7.96394531 1.91761719 8.87304688 1.86914062 C10.26620117 1.77922852 10.26620117 1.77922852 11.6875 1.6875 C13.46218524 1.58628221 15.23692898 1.48608685 17.01171875 1.38671875 C18.05948486 1.32782471 19.10725098 1.26893066 20.18676758 1.20825195 C21.44513428 1.13952881 22.70350098 1.07080566 24 1 C24.7667807 0.95765228 25.5335614 0.91530457 26.32357788 0.87167358 C43.03361866 -0.0259177 59.70663554 -0.11982341 76.4375 -0.0625 C79.03059808 -0.05746801 81.62369712 -0.05290815 84.21679688 -0.04882812 C90.47788607 -0.03797312 96.73893831 -0.02137344 103 0 C103 0.33 103 0.66 103 1 C102.43753067 1.00586624 101.87506134 1.01173248 101.29554749 1.01777649 C73.25063126 1.32138287 45.25869405 1.95053692 17.25 3.4375 C16.06528107 3.49894196 14.88056213 3.56038391 13.65994263 3.62368774 C2.46437481 4.21157463 -8.72697072 4.86760672 -19.890625 5.91015625 C-21.04881744 6.00640541 -21.04881744 6.00640541 -22.23040771 6.104599 C-26.26204369 6.51773474 -29.21413683 6.92183374 -32 10 C-32.76662181 12.1302457 -32.76662181 12.1302457 -32.94140625 14.52734375 C-33.05033203 15.40197266 -33.15925781 16.27660156 -33.27148438 17.17773438 C-33.36751953 18.08845703 -33.46355469 18.99917969 -33.5625 19.9375 C-33.76101904 21.7395406 -33.97028704 23.54043651 -34.19140625 25.33984375 C-34.27592041 26.13769287 -34.36043457 26.93554199 -34.44750977 27.75756836 C-35.09943509 30.4035843 -36.25136948 31.93857757 -38 34 C-41.59426314 28.60860529 -39.94723709 22.55003404 -38.8125 16.4375 C-36.72465551 6.37475394 -36.72465551 6.37475394 -32 3 C-28.03120153 1.85755726 -24.10412403 1.38680239 -20 1 C-19.03964844 0.89042969 -18.07929687 0.78085938 -17.08984375 0.66796875 C-11.38044003 0.06571097 -5.73733057 -0.27320622 0 0 Z " fill="#3D2816" transform="translate(60,98)"/>
<path d="M0 0 C0.99 0 1.98 0 3 0 C3.66 1.65 4.32 3.3 5 5 C5.639375 4.175 6.27875 3.35 6.9375 2.5 C10.5492347 -0.44835485 12.3310989 -0.61402232 16.81640625 -0.76171875 C20.33304216 0.46501471 21.2461391 2.80413114 23 6 C23.33663684 8.75064877 23.47224142 11.07348366 23.390625 13.8046875 C23.38496521 14.5286673 23.37930542 15.25264709 23.37347412 15.99856567 C23.35123667 18.29140788 23.30106987 20.58263716 23.25 22.875 C23.22991841 24.43747729 23.21167055 25.99997929 23.1953125 27.5625 C23.15141416 31.3756133 23.08247971 35.18753402 23 39 C21.68 39 20.36 39 19 39 C18.98541748 38.04109863 18.97083496 37.08219727 18.95581055 36.09423828 C18.89790493 32.5417726 18.82067329 28.98994602 18.73754883 25.43798828 C18.7042627 23.89968221 18.67624222 22.36125293 18.65356445 20.82275391 C18.62008442 18.61307182 18.5677769 16.40452265 18.51171875 14.1953125 C18.50532883 13.50567413 18.4989389 12.81603577 18.49235535 12.10549927 C18.45974286 9.95314611 18.45974286 9.95314611 18 7 C14.51131349 4.67420899 13.10281481 4.58134543 9 5 C6.72732642 5.98677903 6.72732642 5.98677903 5 8 C4.35345792 11.28633604 4.35345792 11.28633604 4.390625 15.07421875 C4.37408875 15.7580513 4.35755249 16.44188385 4.34051514 17.1464386 C4.2919968 19.32688336 4.27065809 21.5066307 4.25 23.6875 C4.22184315 25.16735287 4.1919161 26.6471732 4.16015625 28.12695312 C4.08624013 31.75114983 4.03668748 35.37521374 4 39 C2.68 39 1.36 39 0 39 C0 26.13 0 13.26 0 0 Z " fill="#70301A" transform="translate(209,41)"/>
<path d="M0 0 C5.42730472 5.09837716 6.83581764 10.73596882 7.23046875 18.05078125 C7.32986859 34.33247481 7.32986859 34.33247481 2.8125 40.375 C-0.73911142 43.68445609 -3.26363502 44.90437247 -8.14453125 44.96484375 C-13.1829832 44.63897372 -16.4519024 43.83316791 -19.9375 39.9375 C-25.30970721 31.11173102 -24.61686018 19.31766871 -22.66796875 9.5078125 C-21.4820948 5.33505818 -19.93569405 2.19562218 -16.14453125 -0.19140625 C-11.10958945 -2.17864877 -5.02491028 -1.81752074 0 0 Z M-17 4.5625 C-21.79421143 12.913707 -22.2927346 21.84260707 -20.21484375 31.1875 C-18.4824105 36.7050352 -18.4824105 36.7050352 -14.5078125 40.7109375 C-11.03999058 42.36579477 -8.74344739 42.40489705 -4.9375 41.9375 C-1.51264729 40.19276371 0.50541454 38.9455594 2.375 35.5625 C4.72637977 26.58450452 5.86483006 15.62854014 2.0625 6.9375 C0.27263047 3.8139117 0.27263047 3.8139117 -2.9375 1.9375 C-8.03271789 0.9261184 -13.30808209 0.38567347 -17 4.5625 Z " fill="#43210B" transform="translate(261.9375,39.0625)"/>
<path d="M0 0 C8.91 0 17.82 0 27 0 C27 1.32 27 2.64 27 4 C23.37 4 19.74 4 16 4 C16 20.17 16 36.34 16 53 C14.68 53 13.36 53 12 53 C12 36.83 12 20.66 12 4 C8.04 4 4.08 4 0 4 C0 2.68 0 1.36 0 0 Z " fill="#70301A" transform="translate(33,27)"/>
<path d="M0 0 C1.3303125 0.00773438 1.3303125 0.00773438 2.6875 0.015625 C3.574375 0.01046875 4.46125 0.0053125 5.375 0 C7.6875 0.265625 7.6875 0.265625 9.6875 2.265625 C9.88606972 5.13904561 9.96578946 7.89424488 9.9375 10.765625 C9.94523437 11.55066406 9.95296875 12.33570313 9.9609375 13.14453125 C9.94080787 19.01231713 9.94080787 19.01231713 7.6875 21.265625 C5.375 21.53125 5.375 21.53125 2.6875 21.515625 C1.3571875 21.52335937 1.3571875 21.52335937 0 21.53125 C-2.3125 21.265625 -2.3125 21.265625 -4.3125 19.265625 C-4.51106972 16.39220439 -4.59078946 13.63700512 -4.5625 10.765625 C-4.57023437 9.98058594 -4.57796875 9.19554687 -4.5859375 8.38671875 C-4.55896304 0.52366467 -4.55896304 0.52366467 0 0 Z " fill="#807766" transform="translate(273.3125,234.734375)"/>
<path d="M0 0 C1.093125 0.00257812 2.18625 0.00515625 3.3125 0.0078125 C4.405625 0.00523438 5.49875 0.00265625 6.625 0 C9.3125 0.1328125 9.3125 0.1328125 10.3125 1.1328125 C10.43913091 3.95697632 10.49770548 6.74576043 10.5 9.5703125 C10.51224609 10.35986328 10.52449219 11.14941406 10.53710938 11.96289062 C10.54237279 14.02088685 10.43456285 16.07843259 10.3125 18.1328125 C8.3125 20.1328125 8.3125 20.1328125 5.74609375 20.36328125 C4.75738281 20.34910156 3.76867187 20.33492187 2.75 20.3203125 C1.75871094 20.31386719 0.76742188 20.30742188 -0.25390625 20.30078125 C-2.6875 20.1328125 -2.6875 20.1328125 -3.6875 19.1328125 C-3.7858721 17.80237625 -3.81828592 16.46687906 -3.8203125 15.1328125 C-3.82160156 14.3284375 -3.82289063 13.5240625 -3.82421875 12.6953125 C-3.82035156 11.8496875 -3.81648438 11.0040625 -3.8125 10.1328125 C-3.81636719 9.2871875 -3.82023437 8.4415625 -3.82421875 7.5703125 C-3.82292969 6.7659375 -3.82164062 5.9615625 -3.8203125 5.1328125 C-3.81918457 4.3903125 -3.81805664 3.6478125 -3.81689453 2.8828125 C-3.60022486 -0.04754261 -2.95008783 0.14578922 0 0 Z " fill="#7B6756" transform="translate(272.6875,102.8671875)"/>
<path d="M0 0 C1.97909398 -0.02686553 3.95828971 -0.04633375 5.9375 -0.0625 C7.03964844 -0.07410156 8.14179688 -0.08570312 9.27734375 -0.09765625 C12 0 12 0 13 1 C13.0983721 2.33043625 13.13078592 3.66593344 13.1328125 5 C13.13474609 6.2065625 13.13474609 6.2065625 13.13671875 7.4375 C13.13285156 8.283125 13.12898438 9.12875 13.125 10 C13.12886719 10.845625 13.13273437 11.69125 13.13671875 12.5625 C13.13542969 13.366875 13.13414062 14.17125 13.1328125 15 C13.13168457 15.7425 13.13055664 16.485 13.12939453 17.25 C13 19 13 19 12 20 C10.19072719 20.12487758 8.37603893 20.17570846 6.5625 20.1875 C5.57378906 20.20167969 4.58507812 20.21585938 3.56640625 20.23046875 C1 20 1 20 -1 18 C-1.1720611 15.29368306 -1.23239017 12.7028606 -1.1875 10 C-1.18685547 9.26265625 -1.18621094 8.5253125 -1.18554688 7.765625 C-1.14050904 2.28101809 -1.14050904 2.28101809 0 0 Z " fill="#996942" transform="translate(254,103)"/>
<path d="M0 0 C1.50046875 0.00386719 1.50046875 0.00386719 3.03125 0.0078125 C4.0315625 0.00523437 5.031875 0.00265625 6.0625 0 C8.53125 0.1328125 8.53125 0.1328125 9.53125 1.1328125 C9.60450168 3.99548817 9.62363205 6.8335315 9.59375 9.6953125 C9.58923828 10.50162109 9.58472656 11.30792969 9.58007812 12.13867188 C9.56825518 14.13675006 9.55031914 16.13479033 9.53125 18.1328125 C8.21125 18.4628125 6.89125 18.7928125 5.53125 19.1328125 C5.53125 19.7928125 5.53125 20.4528125 5.53125 21.1328125 C-0.62109375 21.23046875 -0.62109375 21.23046875 -2.46875 21.1328125 C-4.02481751 19.57674499 -3.59845769 18.07323879 -3.6015625 15.9140625 C-3.60285156 15.06457031 -3.60414063 14.21507812 -3.60546875 13.33984375 C-3.60160156 12.44652344 -3.59773437 11.55320313 -3.59375 10.6328125 C-3.59761719 9.73949219 -3.60148438 8.84617188 -3.60546875 7.92578125 C-3.60417969 7.07628906 -3.60289062 6.22679687 -3.6015625 5.3515625 C-3.60043457 4.56716797 -3.59930664 3.78277344 -3.59814453 2.97460938 C-3.39562341 0.09193136 -2.89383711 0.15568111 0 0 Z " fill="#856950" transform="translate(257.46875,234.8671875)"/>
<path d="M0 0 C4.24648391 0.08861042 4.24648391 0.08861042 6.5625 2.1875 C8.63413265 6.71919642 8.77920891 10.78954902 8.8125 15.6875 C8.833125 16.43451172 8.85375 17.18152344 8.875 17.95117188 C8.90939954 22.84880641 8.22065911 26.11033211 5.5625 30.375 C3.5625 32.375 3.5625 32.375 0.6875 32.6875 C-2.82672191 32.33607781 -4.04479226 31.93861544 -6.4375 29.375 C-9.80748277 21.10650656 -9.83333115 10.67592059 -6.4375 2.375 C-4.03403621 -0.02846379 -3.29849805 0.05416253 0 0 Z M-3.1875 3.5 C-6.6828736 8.7430604 -5.78717712 16.34916863 -5.4375 22.375 C-4.59447007 25.93042252 -4.59447007 25.93042252 -3.4375 28.375 C-0.53676819 29.05301034 -0.53676819 29.05301034 2.5625 29.375 C6.35374349 25.58375651 5.72442619 21.09829479 5.75 15.9375 C5.77126953 13.99037109 5.77126953 13.99037109 5.79296875 12.00390625 C5.5763393 8.59291033 5.1905992 6.35798997 3.5625 3.375 C0.74882269 2.22067085 -0.57626 1.82134571 -3.1875 3.5 Z " fill="#44210B" transform="translate(253.4375,44.625)"/>
<path d="M0 0 C3.68809988 0.03165751 5.05393884 0.1964638 8.3125 2.125 C12.04103804 6.33463972 11.57284316 10.98913845 11.546875 16.3515625 C11.09413621 20.86703626 9.43498549 23.12751451 6.25 26.3125 C4.60659133 26.41104655 2.9588539 26.44222411 1.3125 26.4375 C0.41660156 26.44007812 -0.47929687 26.44265625 -1.40234375 26.4453125 C-3.75 26.3125 -3.75 26.3125 -5.75 25.3125 C-5.77886984 21.33334841 -5.79675406 17.35422347 -5.8125 13.375 C-5.82087891 12.23869141 -5.82925781 11.10238281 -5.83789062 9.93164062 C-5.84111328 8.85205078 -5.84433594 7.77246094 -5.84765625 6.66015625 C-5.85289307 5.65992432 -5.85812988 4.65969238 -5.86352539 3.62915039 C-5.66134376 -0.49665925 -3.67439849 0.10327451 0 0 Z M-2.75 3.3125 C-2.77888514 6.45831423 -2.79675923 9.60409469 -2.8125 12.75 C-2.82087891 13.64783203 -2.82925781 14.54566406 -2.83789062 15.47070312 C-2.84111328 16.32470703 -2.84433594 17.17871094 -2.84765625 18.05859375 C-2.85289307 18.84935303 -2.85812988 19.6401123 -2.86352539 20.45483398 C-2.95495909 22.32842689 -2.95495909 22.32842689 -1.75 23.3125 C2.28160191 23.57543056 3.80892734 23.60654844 7.25 21.3125 C8.23275588 18.36423237 8.38414725 16.38597496 8.375 13.3125 C8.37757813 12.44625 8.38015625 11.58 8.3828125 10.6875 C8.34594205 8.16238305 8.34594205 8.16238305 7.25 5.3125 C3.6058226 2.8830484 1.53758728 3.15070425 -2.75 3.3125 Z " fill="#44210B" transform="translate(154.75,29.6875)"/>
<path d="M0 0 C1.32 0 2.64 0 4 0 C4.66 1.65 5.32 3.3 6 5 C6.33 4.34 6.66 3.68 7 3 C13.15234375 2.90234375 13.15234375 2.90234375 15 3 C16 4 16 4 16.09765625 6.28515625 C16.08605469 7.20167969 16.07445312 8.11820312 16.0625 9.0625 C16.05347656 9.98160156 16.04445312 10.90070313 16.03515625 11.84765625 C16.02355469 12.55792969 16.01195312 13.26820313 16 14 C15.01 14 14.02 14 13 14 C13 11.36 13 8.72 13 6 C12.34 6 11.68 6 11 6 C11 8.64 11 11.28 11 14 C8.69 14 6.38 14 4 14 C3.67 13.01 3.34 12.02 3 11 C2.01 10.67 1.02 10.34 0 10 C0 11.32 0 12.64 0 14 C-0.99 14 -1.98 14 -3 14 C-2.58846263 9.02906176 -2.20399168 4.55491614 0 0 Z " fill="#542711" transform="translate(169,273)"/>
<path d="M0 0 C0.99 0 1.98 0 3 0 C3 0.99 3 1.98 3 3 C6.05263664 3.98120464 7.94736336 3.98120464 11 3 C11.33 3.99 11.66 4.98 12 6 C12.66 5.01 13.32 4.02 14 3 C14.99 3 15.98 3 17 3 C15.08957952 13.31627057 15.08957952 13.31627057 12 17 C10.68 17 9.36 17 8 17 C8 14 8 14 10 12 C9.67 11.34 9.34 10.68 9 10 C8.608125 10.66 8.21625 11.32 7.8125 12 C6 14 6 14 3.3125 14.25 C2.549375 14.1675 1.78625 14.085 1 14 C-0.38226016 11.23547967 -0.09525387 8.9538637 -0.0625 5.875 C-0.05347656 4.77929688 -0.04445313 3.68359375 -0.03515625 2.5546875 C-0.02355469 1.71164062 -0.01195313 0.86859375 0 0 Z M3 6 C3 7.65 3 9.3 3 11 C3.66 11 4.32 11 5 11 C5 9.35 5 7.7 5 6 C4.34 6 3.68 6 3 6 Z " fill="#572812" transform="translate(106,273)"/>
<path d="M0 0 C3.11141288 1.6437653 5.28893717 3.03036886 7.375 5.875 C8.23855538 8.81108828 8.36658209 10.94514926 8 14 C5.96006092 17.6578218 4.49580738 19.66946174 1 22 C-3.59271203 22.73965025 -7.02462089 22.60961194 -11 20.125 C-14.47902736 16.42853343 -14.38781166 13.40391772 -14.359375 8.484375 C-14 6 -14 6 -11.625 2.9375 C-7.49878454 -0.10803998 -5.16827351 -0.43068946 0 0 Z M-9.9375 3.9375 C-12.35365674 7.52512667 -12.7425028 9.65704919 -12.48046875 13.90625 C-12.10186623 16.2554401 -12.10186623 16.2554401 -9.9375 18.5625 C-6.22793965 20.37781677 -4.08316143 20.65622237 0 20 C3.08333333 18.08333333 3.08333333 18.08333333 5 15 C5.57167363 10.99828457 5.36938628 8.77235314 3.625 5.125 C2.17239958 2.90335175 2.17239958 2.90335175 0 2 C-4.2535161 1.51846988 -6.3220363 1.55283245 -9.9375 3.9375 Z " fill="#7E5426" transform="translate(273,128)"/>
<path d="M0 0 C3.8047762 2.94080955 5.74262581 5.79892045 6.75 10.5 C5.7365313 15.22952059 4.06674649 18.27279328 0 21 C-4.96424774 22.17178416 -8.71561724 21.78635679 -13.0625 19.125 C-16.44056346 15.42002717 -16.45007272 12.36258114 -16.421875 7.484375 C-15.94012242 4.64738758 -15.36006881 3.7658995 -13.1875 1.9375 C-8.32071446 -1.02074219 -5.5233693 -1.49786286 0 0 Z M-12.5625 3.5 C-14.57859335 7.00624931 -14.73148406 10.11158471 -14 14 C-12.76546291 17.14744519 -12.76546291 17.14744519 -10 19 C-5.7178284 19.8878631 -2.2678053 19.71120785 1.5625 17.5625 C3.7145847 13.72617511 3.74831272 10.29295189 3 6 C1.75 3.25 1.75 3.25 -1 2 C-5.31870978 1.24719738 -8.73923839 1.2619932 -12.5625 3.5 Z " fill="#83582A" transform="translate(275,209)"/>
<path d="M0 0 C0.90164362 10.46908427 0.90164362 10.46908427 -1.125 13.91015625 C-3.59475907 16.11621708 -5.91333738 16.98266748 -9.125 17.625 C-12 17 -12 17 -14.375 14.9375 C-16.41549207 11.24891818 -16.59455887 9.16191207 -16 5 C-13.02297412 -1.99601081 -6.51923575 -0.46126668 0 0 Z M-11.9375 4.125 C-13.48138276 6.84949899 -13.3267107 8.92891945 -13 12 C-12.34 12.66 -11.68 13.32 -11 14 C-6.49682877 13.64736215 -6.49682877 13.64736215 -3 11 C-2.75787127 9.01871492 -2.75787127 9.01871492 -2.875 6.875 C-2.91625 5.59625 -2.9575 4.3175 -3 3 C-7.65951036 2.6150192 -7.65951036 2.6150192 -11.9375 4.125 Z " fill="#45220C" transform="translate(196,60)"/>
<path d="M0 0 C2.33294775 -0.04241723 4.66702567 -0.04092937 7 0 C8 1 8 1 8.09765625 4.37890625 C8.09098369 5.77347077 8.07902532 7.16801743 8.0625 8.5625 C8.05798828 9.27341797 8.05347656 9.98433594 8.04882812 10.71679688 C8.03700864 12.47790013 8.01907263 14.23896036 8 16 C5.8614515 13.8614515 5.57344937 12.86724686 5 10 C4.67 11.65 4.34 13.3 4 15 C2.68 15.33 1.36 15.66 0 16 C-1.0625 14.1875 -1.0625 14.1875 -2 12 C-1 9 -1 9 0 8 C0.07148199 6.64756083 0.08399454 5.29165633 0.0625 3.9375 C0.041875 2.638125 0.02125 1.33875 0 0 Z " fill="#966741" transform="translate(259,235)"/>
<path d="M0 0 C1.65 0 3.3 0 5 0 C5.33 3.63 5.66 7.26 6 11 C5.34 10.67 4.68 10.34 4 10 C4.66 12.31 5.32 14.62 6 17 C5.34 17 4.68 17 4 17 C3.67 16.34 3.34 15.68 3 15 C3 16.65 3 18.3 3 20 C1.68 19.34 0.36 18.68 -1 18 C-1.02690844 15.37493198 -1.04679404 12.75013827 -1.0625 10.125 C-1.07087891 9.37863281 -1.07925781 8.63226563 -1.08789062 7.86328125 C-1.11328125 2.2265625 -1.11328125 2.2265625 0 0 Z " fill="#71695A" transform="translate(254,103)"/>
<path d="M0 0 C0.33 0 0.66 0 1 0 C1 3.63 1 7.26 1 11 C1.66 11.33 2.32 11.66 3 12 C3.33 12.33 3.66 12.66 4 13 C6.05396726 12.59070014 6.05396726 12.59070014 8 12 C8 12.99 8 13.98 8 15 C9.32 15 10.64 15 12 15 C12.33 10.05 12.66 5.1 13 0 C13.33 0 13.66 0 14 0 C14.05380578 2.79192205 14.09357669 5.5828141 14.125 8.375 C14.15013672 9.56609375 14.15013672 9.56609375 14.17578125 10.78125 C14.19335473 12.85492015 14.10335168 14.92883241 14 17 C12 19 12 19 9.6875 19.265625 C8.800625 19.26046875 7.91375 19.2553125 7 19.25 C5.6696875 19.25773437 5.6696875 19.25773437 4.3125 19.265625 C2 19 2 19 0 17 C-0.14517744 14.0906442 -0.18630796 11.280054 -0.125 8.375 C-0.11597656 7.57320312 -0.10695313 6.77140625 -0.09765625 5.9453125 C-0.07406223 3.96341477 -0.03819065 1.98167019 0 0 Z " fill="#63574D" transform="translate(269,237)"/>
<path d="M0 0 C0.66 0.66 1.32 1.32 2 2 C1.01 2.495 1.01 2.495 0 3 C0 4.98 0 6.96 0 9 C-1.9375 9.5625 -1.9375 9.5625 -4 10 C-5 9 -5 9 -5.0625 6.4375 C-5.041875 5.633125 -5.02125 4.82875 -5 4 C-7.11922127 5.08743288 -7.11922127 5.08743288 -9 7 C-9.33397787 10.12586875 -9.33397787 10.12586875 -9 13 C-9.99 12.67 -10.98 12.34 -12 12 C-12.4206933 7.70892835 -12.45543836 5.64865463 -9.9375 2.0625 C-6.31361351 -0.48193094 -4.34125236 -0.57337295 0 0 Z " fill="#986032" transform="translate(273,130)"/>
<path d="M0 0 C1.66611905 -0.042721 3.33382885 -0.04063832 5 0 C6 1 6 1 6.11352539 2.76586914 C6.10828857 3.51473389 6.10305176 4.26359863 6.09765625 5.03515625 C6.09282227 6.24848633 6.09282227 6.24848633 6.08789062 7.48632812 C6.07951172 8.33646484 6.07113281 9.18660156 6.0625 10.0625 C6.05798828 10.91650391 6.05347656 11.77050781 6.04882812 12.65039062 C6.03700373 14.76695663 6.01906769 16.88348685 6 19 C5.01 19.33 4.02 19.66 3 20 C1.62048657 17.24097315 1.69495024 14.76144747 1.5 11.6875 C1.24541428 7.70050583 0.87807454 3.9001144 0 0 Z " fill="#8E6D4E" transform="translate(261,103)"/>
<path d="M0 0 C0.33 3.96 0.66 7.92 1 12 C-0.65 12.33 -2.3 12.66 -4 13 C-6.02237052 13.95394836 -8.0282696 14.94535351 -10 16 C-10.33 13.69 -10.66 11.38 -11 9 C-10.21625 8.938125 -9.4325 8.87625 -8.625 8.8125 C-7.325625 8.4103125 -7.325625 8.4103125 -6 8 C-4.81608777 5.62374655 -4.81608777 5.62374655 -4 3 C-1.4137931 0 -1.4137931 0 0 0 Z " fill="#7E7868" transform="translate(281,104)"/>
<path d="M0 0 C2.875 -0.1875 2.875 -0.1875 6 0 C8.67927341 4.01891012 8.15601248 6.24161923 8 11 C4.625 11.125 4.625 11.125 1 11 C0.34 10.34 -0.32 9.68 -1 9 C-0.9765625 6.8359375 -0.9765625 6.8359375 -0.625 4.375 C-0.51414063 3.55773437 -0.40328125 2.74046875 -0.2890625 1.8984375 C-0.19367188 1.27195312 -0.09828125 0.64546875 0 0 Z M3 6 C2.67 6.66 2.34 7.32 2 8 C2.66 8 3.32 8 4 8 C3.67 7.34 3.34 6.68 3 6 Z " fill="#50250F" transform="translate(135,276)"/>
<path d="M0 0 C0.99 0 1.98 0 3 0 C3 0.99 3 1.98 3 3 C4.65 3.33 6.3 3.66 8 4 C8 7.3 8 10.6 8 14 C7.01 14 6.02 14 5 14 C5 11.36 5 8.72 5 6 C4.34 6 3.68 6 3 6 C3 8.64 3 11.28 3 14 C2.01 14 1.02 14 0 14 C0 9.38 0 4.76 0 0 Z " fill="#582812" transform="translate(154,273)"/>
<path d="M0 0 C1.32 0.33 2.64 0.66 4 1 C4 1.99 4 2.98 4 4 C3.01 4 2.02 4 1 4 C1 5.32 1 6.64 1 8 C1.99 8 2.98 8 4 8 C4 8.99 4 9.98 4 11 C3.01 11.495 3.01 11.495 2 12 C1.67 12.99 1.34 13.98 1 15 C1.99 14.67 2.98 14.34 4 14 C4.33 13.34 4.66 12.68 5 12 C5.99 12 6.98 12 8 12 C8 12.99 8 13.98 8 15 C7.01 15.33 6.02 15.66 5 16 C4.67 16.66 4.34 17.32 4 18 C3.01 18 2.02 18 1 18 C1 19.32 1 20.64 1 22 C1.99 22 2.98 22 4 22 C4 22.99 4 23.98 4 25 C3.34 25.33 2.68 25.66 2 26 C1.34 26.99 0.68 27.98 0 29 C0 19.43 0 9.86 0 0 Z " fill="#502818" transform="translate(260,156)"/>
<path d="M0 0 C1.32 0.66 2.64 1.32 4 2 C4 2.66 4 3.32 4 4 C5.45833358 5.62514468 5.45833358 5.62514468 7 7 C6.67 7.66 6.34 8.32 6 9 C5.01 9 4.02 9 3 9 C2.67 10.32 2.34 11.64 2 13 C1.01 13 0.02 13 -1 13 C-0.38722388 10.03824877 0.25372522 8.61941217 2 6 C1.01 6 0.02 6 -1 6 C-1 6.99 -1 7.98 -1 9 C-2.32 9 -3.64 9 -5 9 C-5 7.68 -5 6.36 -5 5 C-4.01 5 -3.02 5 -2 5 C-1.7834375 4.0409375 -1.7834375 4.0409375 -1.5625 3.0625 C-1 1 -1 1 0 0 Z " fill="#221E1B" transform="translate(273,184)"/>
<path d="M0 0 C2.64 0 5.28 0 8 0 C8 0.99 8 1.98 8 3 C6.35 3 4.7 3 3 3 C3 3.66 3 4.32 3 5 C4.32 5 5.64 5 7 5 C7 5.99 7 6.98 7 8 C5.68 8 4.36 8 3 8 C3 9.98 3 11.96 3 14 C2.01 14 1.02 14 0 14 C0 9.38 0 4.76 0 0 Z " fill="#592812" transform="translate(127,273)"/>
<path d="M0 0 C0.99 0.66 1.98 1.32 3 2 C2.34 3.32 1.68 4.64 1 6 C2.89179203 6.6814823 2.89179203 6.6814823 5 7 C5.66 6.34 6.32 5.68 7 5 C6.62971996 7.68453027 6.12340935 8.8677757 4.25 10.875 C2 12 2 12 -0.6875 11.5625 C-3 10 -3 10 -4.0625 7.125 C-4 4 -4 4 -2.0625 1.625 C-1.381875 1.08875 -0.70125 0.5525 0 0 Z " fill="#806448" transform="translate(271,216)"/>
<path d="M0 0 C3.40648331 0.06812967 6.03505898 0.26111892 8.80078125 2.37890625 C11.59854387 5.36363153 12.88305774 7.45426945 13.75 11.5 C12.76503525 16.09650219 10.56256829 18.96351045 7 22 C6.34 22 5.68 22 5 22 C6.15173355 19.53199953 7.04783565 17.95216435 9 16 C9.55997611 12.94665657 9.56049462 10.0527911 9 7 C6.64167228 4.52791204 6.64167228 4.52791204 4 3 C4 2.34 4 1.68 4 1 C2.68 0.67 1.36 0.34 0 0 Z " fill="#7C5226" transform="translate(268,208)"/>
<path d="M0 0 C0.33 0 0.66 0 1 0 C1 3.96 1 7.92 1 12 C1.66 12.33 2.32 12.66 3 13 C3.33 13.33 3.66 13.66 4 14 C6.05396726 13.59070014 6.05396726 13.59070014 8 13 C8 14.32 8 15.64 8 17 C8.99 17.33 9.98 17.66 11 18 C11 18.33 11 18.66 11 19 C9.35425434 19.02688151 7.70838587 19.04634123 6.0625 19.0625 C5.14597656 19.07410156 4.22945313 19.08570312 3.28515625 19.09765625 C1 19 1 19 0 18 C-0.08631874 16.65732587 -0.10706473 15.31025678 -0.09765625 13.96484375 C-0.09443359 13.15595703 -0.09121094 12.34707031 -0.08789062 11.51367188 C-0.07951172 10.66353516 -0.07113281 9.81339844 -0.0625 8.9375 C-0.05798828 8.08349609 -0.05347656 7.22949219 -0.04882812 6.34960938 C-0.03700373 4.23304337 -0.01906769 2.11651315 0 0 Z " fill="#64594E" transform="translate(269,104)"/>
<path d="M0 0 C4.57407407 0.48148148 4.57407407 0.48148148 6.4375 2.75 C7.21161347 5.84645386 6.61389928 7.28571485 5 10 C2.9375 10.875 2.9375 10.875 1 11 C0 10 0 10 -0.09765625 7.71484375 C-0.08605469 6.79832031 -0.07445312 5.88179688 -0.0625 4.9375 C-0.05347656 4.01839844 -0.04445313 3.09929687 -0.03515625 2.15234375 C-0.02355469 1.44207031 -0.01195312 0.73179688 0 0 Z " fill="#9B734F" transform="translate(270,103)"/>
<path d="M0 0 C1.9375 0.1875 1.9375 0.1875 4 1 C5.375 2.75 5.375 2.75 6 5 C5.375 7.6875 5.375 7.6875 4 10 C1.9375 10.875 1.9375 10.875 0 11 C-1 10 -1 10 -1.1328125 7.96875 C-1.13023437 7.1540625 -1.12765625 6.339375 -1.125 5.5 C-1.12757813 4.6853125 -1.13015625 3.870625 -1.1328125 3.03125 C-1 1 -1 1 0 0 Z " fill="#9A724F" transform="translate(271,235)"/>
<path d="M0 0 C0.99 0 1.98 0 3 0 C3 0.66 3 1.32 3 2 C3.66 2 4.32 2 5 2 C5 2.99 5 3.98 5 5 C4.34 5 3.68 5 3 5 C3 6.65 3 8.3 3 10 C3.66 10 4.32 10 5 10 C5 10.99 5 11.98 5 13 C3.35 12.67 1.7 12.34 0 12 C-0.19477739 10.37585622 -0.38059458 8.75063577 -0.5625 7.125 C-0.66691406 6.22007812 -0.77132812 5.31515625 -0.87890625 4.3828125 C-1 2 -1 2 0 0 Z " fill="#592812" transform="translate(144,274)"/>
<path d="M0 0 C1.32 0 2.64 0 4 0 C4.33 3.63 4.66 7.26 5 11 C2.03 10.505 2.03 10.505 -1 10 C-1.02689216 8.52093108 -1.04634621 7.04172517 -1.0625 5.5625 C-1.07410156 4.73878906 -1.08570313 3.91507813 -1.09765625 3.06640625 C-1 1 -1 1 0 0 Z " fill="#70685A" transform="translate(255,235)"/>
<path d="M0 0 C0.99 0 1.98 0 3 0 C3.33 4.62 3.66 9.24 4 14 C2.68 14 1.36 14 0 14 C0 9.38 0 4.76 0 0 Z " fill="#572812" transform="translate(191,273)"/>
<path d="M0 0 C1.66611905 -0.042721 3.33382885 -0.04063832 5 0 C6 1 6 1 6.09765625 3.72265625 C6.08605469 4.82480469 6.07445312 5.92695313 6.0625 7.0625 C6.05347656 8.16722656 6.04445313 9.27195313 6.03515625 10.41015625 C6.02355469 11.26480469 6.01195312 12.11945313 6 13 C4 9.25 4 9.25 4 7 C3.34 7 2.68 7 2 7 C0.5393715 4.35261084 0 3.10551666 0 0 Z " fill="#8D6D50" transform="translate(261,235)"/>
<path d="M0 0 C0.99 0 1.98 0 3 0 C3 0.99 3 1.98 3 3 C2.01 3.495 2.01 3.495 1 4 C0.67 4.99 0.34 5.98 0 7 C3.0745356 6.2236068 3.0745356 6.2236068 5 4 C4.125 7.875 4.125 7.875 3 9 C0.32941149 9.14115161 -2.32432238 9.04247107 -5 9 C-4.67 7.35 -4.34 5.7 -4 4 C-3.01 3.67 -2.02 3.34 -1 3 C-0.67 2.01 -0.34 1.02 0 0 Z " fill="#4B2718" transform="translate(276,193)"/>
<path d="M0 0 C0.33 0 0.66 0 1 0 C1 3.63 1 7.26 1 11 C1.66 11.33 2.32 11.66 3 12 C1.86500606 15.29148243 1.00716624 15.9959869 -2.125 17.75 C-3.07375 18.1625 -4.0225 18.575 -5 19 C-4.55527344 18.24976563 -4.55527344 18.24976563 -4.1015625 17.484375 C-2.63567729 14.17833601 -2.02973593 10.78423785 -1.375 7.25 C-1.17390625 6.20392578 -1.17390625 6.20392578 -0.96875 5.13671875 C-0.64056736 3.42548068 -0.31956498 1.71286829 0 0 Z " fill="#403324" transform="translate(245,237)"/>
<path d="M0 0 C0.99 0 1.98 0 3 0 C3.93619813 3.15506142 4.1057123 5.96586502 4.0625 9.25 C4.05347656 10.14203125 4.04445312 11.0340625 4.03515625 11.953125 C4.02355469 12.62859375 4.01195312 13.3040625 4 14 C3.01 14 2.02 14 1 14 C0.67 9.38 0.34 4.76 0 0 Z " fill="#562711" transform="translate(149,273)"/>
<path d="M0 0 C1.670625 0.061875 1.670625 0.061875 3.375 0.125 C2.055 0.455 0.735 0.785 -0.625 1.125 C-0.295 2.115 0.035 3.105 0.375 4.125 C-7.545 4.125 -15.465 4.125 -23.625 4.125 C-23.625 3.795 -23.625 3.465 -23.625 3.125 C-22.34882813 3.07601562 -21.07265625 3.02703125 -19.7578125 2.9765625 C-18.08851928 2.90153809 -16.41924954 2.82599012 -14.75 2.75 C-13.90824219 2.7190625 -13.06648437 2.688125 -12.19921875 2.65625 C-11.39355469 2.61757812 -10.58789062 2.57890625 -9.7578125 2.5390625 C-9.01418457 2.5076416 -8.27055664 2.4762207 -7.50439453 2.44384766 C-3.97622631 1.8452782 -4.15513375 0.14328047 0 0 Z " fill="#3F2D1D" transform="translate(188.625,95.875)"/>
<path d="M0 0 C1.65 0.33 3.3 0.66 5 1 C5 1.66 5 2.32 5 3 C6.45833358 4.62514468 6.45833358 4.62514468 8 6 C7.67 6.66 7.34 7.32 7 8 C5.68 8 4.36 8 3 8 C3 7.01 3 6.02 3 5 C1.68 4.34 0.36 3.68 -1 3 C-0.67 2.01 -0.34 1.02 0 0 Z " fill="#221E1B" transform="translate(272,156)"/>
<path d="M0 0 C1.32 0.33 2.64 0.66 4 1 C3.34 2.32 2.68 3.64 2 5 C1.34 5 0.68 5 0 5 C-0.33 5.99 -0.66 6.98 -1 8 C-1.99 8 -2.98 8 -4 8 C-4 6.68 -4 5.36 -4 4 C-3.01 4 -2.02 4 -1 4 C-0.67 2.68 -0.34 1.36 0 0 Z " fill="#211E1B" transform="translate(265,156)"/>
<path d="M0 0 C0.66 0 1.32 0 2 0 C2.66 2.31 3.32 4.62 4 7 C3.34 7 2.68 7 2 7 C0.85185003 9.29629994 0.69230191 11.07698086 0.4375 13.625 C0.35371094 14.44226563 0.26992187 15.25953125 0.18359375 16.1015625 C0.12300781 16.72804688 0.06242188 17.35453125 0 18 C-0.33 18 -0.66 18 -1 18 C-1.02690844 15.37493198 -1.04679404 12.75013827 -1.0625 10.125 C-1.07087891 9.37863281 -1.07925781 8.63226563 -1.08789062 7.86328125 C-1.11328125 2.2265625 -1.11328125 2.2265625 0 0 Z " fill="#685246" transform="translate(254,103)"/>
<path d="M0 0 C0.721875 0.309375 1.44375 0.61875 2.1875 0.9375 C4.82494915 1.93386968 7.20939943 2.62289181 10 3 C10.66 2.67 11.32 2.34 12 2 C12 3.32 12 4.64 12 6 C7.83783725 6.32644414 5.63686538 6.40650982 2.0625 4.125 C0 2 0 2 0 0 Z " fill="#8D6E4C" transform="translate(261,142)"/>
<path d="M0 0 C0.99 0 1.98 0 3 0 C3.99 2.31 4.98 4.62 6 7 C5.34 7 4.68 7 4 7 C3.67 6.34 3.34 5.68 3 5 C3 6.65 3 8.3 3 10 C2.01 10 1.02 10 0 10 C0 6.7 0 3.4 0 0 Z " fill="#7C7363" transform="translate(254,245)"/>
<path d="M0 0 C0.99 0.33 1.98 0.66 3 1 C3 2.98 3 4.96 3 7 C1.68 7.33 0.36 7.66 -1 8 C-2.0625 6.1875 -2.0625 6.1875 -3 4 C-2.67 3.01 -2.34 2.02 -2 1 C-1.67 1.33 -1.34 1.66 -1 2 C-0.67 1.34 -0.34 0.68 0 0 Z " fill="#955F35" transform="translate(260,243)"/>
<path d="M0 0 C2.0625 0.4375 2.0625 0.4375 4 1 C4 2.98 4 4.96 4 7 C1 7 1 7 -1 6 C-1.042721 4.33388095 -1.04063832 2.66617115 -1 1 C-0.67 0.67 -0.34 0.34 0 0 Z " fill="#867159" transform="translate(278,115)"/>
<path d="M0 0 C0.99 0 1.98 0 3 0 C3.99 2.31 4.98 4.62 6 7 C5.34 7 4.68 7 4 7 C3.67 6.34 3.34 5.68 3 5 C3 6.65 3 8.3 3 10 C2.01 9.67 1.02 9.34 0 9 C0 6.03 0 3.06 0 0 Z " fill="#7C7362" transform="translate(254,113)"/>
<path d="M0 0 C2.475 0.495 2.475 0.495 5 1 C5 3.97 5 6.94 5 10 C4.01 10 3.02 10 2 10 C2 7.03 2 4.06 2 1 C1.34 0.67 0.68 0.34 0 0 Z " fill="#5C2913" transform="translate(180,277)"/>
<path d="M0 0 C1.32 0 2.64 0 4 0 C4 1.32 4 2.64 4 4 C3.01 4 2.02 4 1 4 C0.67 4.99 0.34 5.98 0 7 C-0.99 7 -1.98 7 -3 7 C-2.67 5.68 -2.34 4.36 -2 3 C-1.34 3 -0.68 3 0 3 C0 2.01 0 1.02 0 0 Z " fill="#231E1B" transform="translate(264,193)"/>
<path d="M0 0 C1.32 0 2.64 0 4 0 C4 1.32 4 2.64 4 4 C3.01 4 2.02 4 1 4 C0.67 4.99 0.34 5.98 0 7 C-0.99 7 -1.98 7 -3 7 C-2.67 5.68 -2.34 4.36 -2 3 C-1.34 3 -0.68 3 0 3 C0 2.01 0 1.02 0 0 Z " fill="#231E1B" transform="translate(264,178)"/>
<path d="M0 0 C1.32 0 2.64 0 4 0 C4 1.32 4 2.64 4 4 C3.01 4 2.02 4 1 4 C0.67 4.99 0.34 5.98 0 7 C-0.99 7 -1.98 7 -3 7 C-2.67 5.68 -2.34 4.36 -2 3 C-1.34 3 -0.68 3 0 3 C0 2.01 0 1.02 0 0 Z " fill="#231E1B" transform="translate(264,164)"/>
<path d="M0 0 C1.98 0.495 1.98 0.495 4 1 C3.34 3.64 2.68 6.28 2 9 C1.01 8.67 0.02 8.34 -1 8 C-0.67 5.36 -0.34 2.72 0 0 Z " fill="#3E1E09" transform="translate(21,119)"/>
<path d="M0 0 C0.99 0.495 0.99 0.495 2 1 C2.6328125 3.06640625 2.6328125 3.06640625 3.125 5.5625 C3.29257812 6.38878906 3.46015625 7.21507813 3.6328125 8.06640625 C3.75398438 8.70449219 3.87515625 9.34257813 4 10 C3.01 10.33 2.02 10.66 1 11 C-0.20272819 8.59454362 -0.10071472 7.05003047 -0.0625 4.375 C-0.05347656 3.55773437 -0.04445313 2.74046875 -0.03515625 1.8984375 C-0.02355469 1.27195312 -0.01195312 0.64546875 0 0 Z " fill="#6B6458" transform="translate(263,112)"/>
<path d="M0 0 C0.33 0 0.66 0 1 0 C1 5.61 1 11.22 1 17 C-0.32 17 -1.64 17 -3 17 C-3.66 16.34 -4.32 15.68 -5 15 C-3.68 15 -2.36 15 -1 15 C-0.67 10.05 -0.34 5.1 0 0 Z " fill="#805A42" transform="translate(282,237)"/>
<path d="M0 0 C4.73300971 2.30582524 4.73300971 2.30582524 5.9375 5.4375 C6.00709375 8.29084377 5.34175448 9.54098693 4 12 C2.66666667 8 1.33333333 4 0 0 Z " fill="#85582A" transform="translate(274,129)"/>
<path d="M0 0 C1.67542976 0.28604898 3.34385343 0.61781233 5 1 C5 3.97 5 6.94 5 10 C4.34 9.67 3.68 9.34 3 9 C3 6.69 3 4.38 3 2 C1.68 1.67 0.36 1.34 -1 1 C-0.67 0.67 -0.34 0.34 0 0 Z " fill="#612B15" transform="translate(137,276)"/>
<path d="M0 0 C0.99 0 1.98 0 3 0 C2.690625 0.598125 2.38125 1.19625 2.0625 1.8125 C0.89790296 4.08956772 0.89790296 4.08956772 0 7 C-1.32 7 -2.64 7 -4 7 C-4 5.68 -4 4.36 -4 3 C-2.68 3 -1.36 3 0 3 C0 2.01 0 1.02 0 0 Z " fill="#53291B" transform="translate(272,190)"/>
<path d="M0 0 C0.99 0 1.98 0 3 0 C2.690625 0.598125 2.38125 1.19625 2.0625 1.8125 C0.89790296 4.08956772 0.89790296 4.08956772 0 7 C-1.32 7 -2.64 7 -4 7 C-4 5.68 -4 4.36 -4 3 C-2.68 3 -1.36 3 0 3 C0 2.01 0 1.02 0 0 Z " fill="#53291B" transform="translate(272,175)"/>
<path d="M0 0 C0.99 0 1.98 0 3 0 C2.690625 0.598125 2.38125 1.19625 2.0625 1.8125 C0.89790296 4.08956772 0.89790296 4.08956772 0 7 C-1.32 7 -2.64 7 -4 7 C-4 5.68 -4 4.36 -4 3 C-2.68 3 -1.36 3 0 3 C0 2.01 0 1.02 0 0 Z " fill="#53291B" transform="translate(272,161)"/>
<path d="M0 0 C1.0707051 4.28282042 0.91658005 6.72262645 0 11 C-1.5625 13.4375 -1.5625 13.4375 -3 15 C-3.66 13.35 -4.32 11.7 -5 10 C-4.34 10 -3.68 10 -3 10 C-2.01 6.7 -1.02 3.4 0 0 Z " fill="#423425" transform="translate(25,117)"/>
<path d="M0 0 C0.99 0.33 1.98 0.66 3 1 C3 2.32 3 3.64 3 5 C1.35 5.33 -0.3 5.66 -2 6 C-2.33 4.35 -2.66 2.7 -3 1 C-2.01 1.495 -2.01 1.495 -1 2 C-0.67 1.34 -0.34 0.68 0 0 Z " fill="#956138" transform="translate(260,111)"/>
<path d="M0 0 C0.66 0 1.32 0 2 0 C1.67 1.98 1.34 3.96 1 6 C-0.32 6.33 -1.64 6.66 -3 7 C-2.67 5.68 -2.34 4.36 -2 3 C-1.34 3 -0.68 3 0 3 C0 2.01 0 1.02 0 0 Z " fill="#271F19" transform="translate(279,193)"/>
<path d="M0 0 C0.66 0 1.32 0 2 0 C1.67 1.98 1.34 3.96 1 6 C-0.32 6.33 -1.64 6.66 -3 7 C-2.67 5.68 -2.34 4.36 -2 3 C-1.34 3 -0.68 3 0 3 C0 2.01 0 1.02 0 0 Z " fill="#271F19" transform="translate(279,178)"/>
<path d="M0 0 C0.66 0 1.32 0 2 0 C1.67 1.98 1.34 3.96 1 6 C-0.32 6.33 -1.64 6.66 -3 7 C-2.67 5.68 -2.34 4.36 -2 3 C-1.34 3 -0.68 3 0 3 C0 2.01 0 1.02 0 0 Z " fill="#271F19" transform="translate(279,164)"/>
<path d="M0 0 C2.31 0 4.62 0 7 0 C6.34 1.32 5.68 2.64 5 4 C4.01 4 3.02 4 2 4 C1.34 2.68 0.68 1.36 0 0 Z " fill="#746C60" transform="translate(274,235)"/>
<path d="M0 0 C1.20628008 2.33214148 2.1654738 4.49642139 3 7 C2.34 7 1.68 7 1 7 C0.67 7.66 0.34 8.32 0 9 C-0.87890625 2.84765625 -0.87890625 2.84765625 -1 1 C-0.67 0.67 -0.34 0.34 0 0 Z " fill="#5F5950" transform="translate(255,235)"/>
</svg>
